BenchNine-Bold.ufo
<glyph name="exclam" format="1">
  <advance width="402"/>
  <unicode hex="0021"/>
  <outline>
    <contour>
      <point x="132" y="0" type="line" smooth="yes"/>
      <point x="117" y="0"/>
      <point x="105" y="8"/>
      <point x="105" y="51" type="curve" smooth="yes"/>
      <point x="105" y="203" type="line" smooth="yes"/>
      <point x="105" y="246"/>
      <point x="117" y="253"/>
      <point x="132" y="253" type="curve" smooth="yes"/>
      <point x="269" y="253" type="line" smooth="yes"/>
      <point x="284" y="253"/>
      <point x="295" y="246"/>
      <point x="295" y="203" type="curve" smooth="yes"/>
      <point x="295" y="51" type="line" smooth="yes"/>
      <point x="295" y="8"/>
      <point x="284" y="0"/>
      <point x="269" y="0" type="curve" smooth="yes"/>
    </contour>
    <contour>
      <point x="183" y="468" type="line" smooth="yes"/>
      <point x="168" y="468"/>
      <point x="162" y="499"/>
      <point x="160" y="541" type="curve" smooth="yes"/>
      <point x="116" y="1428" type="line" smooth="yes"/>
      <point x="116" y="1437" type="line" smooth="yes"/>
      <point x="116" y="1475"/>
      <point x="128" y="1502"/>
      <point x="142" y="1502" type="curve" smooth="yes"/>
      <point x="260" y="1502" type="line" smooth="yes"/>
      <point x="274" y="1502"/>
      <point x="286" y="1478"/>
      <point x="286" y="1441" type="curve" smooth="yes"/>
      <point x="286" y="1429" type="line" smooth="yes"/>
      <point x="243" y="541" type="line" smooth="yes"/>
      <point x="241" y="499"/>
      <point x="236" y="468"/>
      <point x="221" y="468" type="curve" smooth="yes"/>
    </contour>
  </outline>
</glyph>
<glyph name="quotedbl" format="1">
  <advance width="533"/>
  <unicode hex="0022"/>
  <outline>
    <contour>
      <point x="130" y="765" type="line" smooth="yes"/>
      <point x="116" y="765"/>
      <point x="109" y="795"/>
      <point x="107" y="835" type="curve" smooth="yes"/>
      <point x="69" y="1364" type="line" smooth="yes"/>
      <point x="69" y="1375" type="line" smooth="yes"/>
      <point x="69" y="1410"/>
      <point x="80" y="1438"/>
      <point x="94" y="1438" type="curve" smooth="yes"/>
      <point x="192" y="1438" type="line" smooth="yes"/>
      <point x="206" y="1438"/>
      <point x="216" y="1408"/>
      <point x="216" y="1373" type="curve" smooth="yes"/>
      <point x="216" y="1364" type="line" smooth="yes"/>
      <point x="179" y="835" type="line" smooth="yes"/>
      <point x="176" y="795"/>
      <point x="171" y="765"/>
      <point x="156" y="765" type="curve" smooth="yes"/>
    </contour>
    <contour>
      <point x="383" y="765" type="line" smooth="yes"/>
      <point x="368" y="765"/>
      <point x="362" y="795"/>
      <point x="360" y="835" type="curve" smooth="yes"/>
      <point x="321" y="1364" type="line" smooth="yes"/>
      <point x="321" y="1373" type="line" smooth="yes"/>
      <point x="321" y="1409"/>
      <point x="332" y="1438"/>
      <point x="346" y="1438" type="curve" smooth="yes"/>
      <point x="445" y="1438" type="line" smooth="yes"/>
      <point x="458" y="1438"/>
      <point x="468" y="1410"/>
      <point x="468" y="1376" type="curve" smooth="yes"/>
      <point x="468" y="1364" type="line" smooth="yes"/>
      <point x="431" y="835" type="line" smooth="yes"/>
      <point x="429" y="795"/>
      <point x="424" y="765"/>
      <point x="409" y="765" type="curve" smooth="yes"/>
    </contour>
  </outline>
</glyph>
<glyph name="numbersign" format="1">
  <advance width="731"/>
  <unicode hex="0023"/>
  <outline>
    <contour>
      <point x="140" y="-159" type="line" smooth="yes"/>
      <point x="134" y="-159"/>
      <point x="130" y="-141"/>
      <point x="132" y="-124" type="curve" smooth="yes"/>
      <point x="170" y="347" type="line"/>
      <point x="113" y="347" type="line" smooth="yes"/>
      <point x="98" y="347"/>
      <point x="89" y="358"/>
      <point x="89" y="397" type="curve" smooth="yes"/>
      <point x="89" y="430" type="line" smooth="yes"/>
      <point x="89" y="469"/>
      <point x="96" y="480"/>
      <point x="111" y="480" type="curve" smooth="yes"/>
      <point x="184" y="480" type="line"/>
      <point x="213" y="844" type="line"/>
      <point x="147" y="844" type="line" smooth="yes"/>
      <point x="133" y="844"/>
      <point x="123" y="855"/>
      <point x="123" y="894" type="curve" smooth="yes"/>
      <point x="123" y="930" type="line" smooth="yes"/>
      <point x="123" y="966"/>
      <point x="132" y="980"/>
      <point x="146" y="980" type="curve" smooth="yes"/>
      <point x="228" y="980" type="line"/>
      <point x="273" y="1492" type="line" smooth="yes"/>
      <point x="275" y="1513"/>
      <point x="283" y="1527"/>
      <point x="289" y="1527" type="curve" smooth="yes"/>
      <point x="366" y="1527" type="line" smooth="yes"/>
      <point x="372" y="1527"/>
      <point x="376" y="1509"/>
      <point x="375" y="1492" type="curve" smooth="yes"/>
      <point x="330" y="980" type="line"/>
      <point x="466" y="980" type="line"/>
      <point x="512" y="1492" type="line" smooth="yes"/>
      <point x="513" y="1513"/>
      <point x="520" y="1527"/>
      <point x="528" y="1527" type="curve" smooth="yes"/>
      <point x="602" y="1527" type="line" smooth="yes"/>
      <point x="608" y="1527"/>
      <point x="612" y="1509"/>
      <point x="610" y="1492" type="curve" smooth="yes"/>
      <point x="565" y="980" type="line"/>
      <point x="626" y="980" type="line" smooth="yes"/>
      <point x="640" y="980"/>
      <point x="648" y="966"/>
      <point x="648" y="930" type="curve" smooth="yes"/>
      <point x="648" y="894" type="line" smooth="yes"/>
      <point x="648" y="855"/>
      <point x="641" y="844"/>
      <point x="627" y="844" type="curve" smooth="yes"/>
      <point x="551" y="844" type="line"/>
      <point x="522" y="480" type="line"/>
      <point x="589" y="480" type="line" smooth="yes"/>
      <point x="605" y="480"/>
      <point x="614" y="469"/>
      <point x="614" y="430" type="curve" smooth="yes"/>
      <point x="614" y="397" type="line" smooth="yes"/>
      <point x="614" y="358"/>
      <point x="606" y="347"/>
      <point x="591" y="347" type="curve" smooth="yes"/>
      <point x="507" y="347" type="line"/>
      <point x="469" y="-124" type="line" smooth="yes"/>
      <point x="467" y="-145"/>
      <point x="460" y="-159"/>
      <point x="453" y="-159" type="curve" smooth="yes"/>
      <point x="378" y="-159" type="line" smooth="yes"/>
      <point x="373" y="-159"/>
      <point x="369" y="-141"/>
      <point x="370" y="-124" type="curve" smooth="yes"/>
      <point x="408" y="347" type="line"/>
      <point x="272" y="347" type="line"/>
      <point x="234" y="-124" type="line" smooth="yes"/>
      <point x="232" y="-145"/>
      <point x="225" y="-159"/>
      <point x="218" y="-159" type="curve" smooth="yes"/>
    </contour>
    <contour>
      <point x="287" y="480" type="line"/>
      <point x="423" y="480" type="line"/>
      <point x="451" y="844" type="line"/>
      <point x="315" y="844" type="line"/>
    </contour>
  </outline>
</glyph>
<glyph name="dollar" format="1">
  <advance width="776"/>
  <unicode hex="0024"/>
  <outline>
    <contour>
      <point x="388" y="1283" type="line"/>
      <point x="307" y="1270"/>
      <point x="257" y="1184"/>
      <point x="257" y="1084" type="curve" smooth="yes"/>
      <point x="257" y="974"/>
      <point x="315" y="915"/>
      <point x="388" y="867" type="curve"/>
    </contour>
    <contour>
      <point x="439" y="168" type="line"/>
      <point x="509" y="196"/>
      <point x="547" y="275"/>
      <point x="547" y="371" type="curve" smooth="yes"/>
      <point x="547" y="474"/>
      <point x="505" y="533"/>
      <point x="439" y="583" type="curve"/>
    </contour>
    <contour>
      <point x="403" y="-198" type="line" smooth="yes"/>
      <point x="395" y="-198"/>
      <point x="388" y="-178"/>
      <point x="388" y="-132" type="curve" smooth="yes"/>
      <point x="388" y="-15" type="line"/>
      <point x="381" y="-15" type="line" smooth="yes"/>
      <point x="255" y="-15"/>
      <point x="135" y="36"/>
      <point x="47" y="168" type="curve" smooth="yes"/>
      <point x="43" y="174"/>
      <point x="41" y="182"/>
      <point x="41" y="191" type="curve" smooth="yes"/>
      <point x="41" y="237"/>
      <point x="89" y="309"/>
      <point x="124" y="309" type="curve" smooth="yes"/>
      <point x="131" y="309"/>
      <point x="137" y="306"/>
      <point x="142" y="300" type="curve" smooth="yes"/>
      <point x="213" y="209"/>
      <point x="293" y="157"/>
      <point x="381" y="157" type="curve" smooth="yes"/>
      <point x="388" y="157" type="line"/>
      <point x="388" y="618" type="line"/>
      <point x="277" y="693" type="line" smooth="yes"/>
      <point x="177" y="760"/>
      <point x="85" y="857"/>
      <point x="85" y="1050" type="curve" smooth="yes"/>
      <point x="85" y="1278"/>
      <point x="202" y="1447"/>
      <point x="388" y="1454" type="curve"/>
      <point x="388" y="1578" type="line" smooth="yes"/>
      <point x="388" y="1624"/>
      <point x="395" y="1643"/>
      <point x="403" y="1643" type="curve" smooth="yes"/>
      <point x="425" y="1643" type="line" smooth="yes"/>
      <point x="433" y="1643"/>
      <point x="439" y="1624"/>
      <point x="439" y="1578" type="curve" smooth="yes"/>
      <point x="439" y="1453" type="line"/>
      <point x="536" y="1447"/>
      <point x="629" y="1410"/>
      <point x="700" y="1317" type="curve" smooth="yes"/>
      <point x="707" y="1308"/>
      <point x="710" y="1297"/>
      <point x="710" y="1286" type="curve" smooth="yes"/>
      <point x="710" y="1236"/>
      <point x="656" y="1173"/>
      <point x="631" y="1173" type="curve" smooth="yes"/>
      <point x="627" y="1173"/>
      <point x="624" y="1174"/>
      <point x="622" y="1177" type="curve" smooth="yes"/>
      <point x="571" y="1238"/>
      <point x="508" y="1275"/>
      <point x="439" y="1283" type="curve"/>
      <point x="439" y="834" type="line"/>
      <point x="523" y="780" type="line" smooth="yes"/>
      <point x="630" y="711"/>
      <point x="724" y="599"/>
      <point x="724" y="400" type="curve" smooth="yes"/>
      <point x="724" y="184"/>
      <point x="617" y="19"/>
      <point x="439" y="-10" type="curve"/>
      <point x="439" y="-132" type="line" smooth="yes"/>
      <point x="439" y="-178"/>
      <point x="433" y="-198"/>
      <point x="425" y="-198" type="curve" smooth="yes"/>
    </contour>
  </outline>
</glyph>
<glyph name="percent" format="1">
  <advance width="1073"/>
  <unicode hex="0025"/>
  <outline>
    <contour>
      <point x="387" y="-73" type="line" smooth="yes"/>
      <point x="377" y="-73"/>
      <point x="369" y="-49"/>
      <point x="369" y="-23" type="curve" smooth="yes"/>
      <point x="369" y="-16"/>
      <point x="369.919" y="-9.98828"/>
      <point x="371" y="-3" type="curve" smooth="yes"/>
      <point x="595" y="1415" type="line" smooth="yes"/>
      <point x="601.62" y="1456.91"/>
      <point x="616" y="1485"/>
      <point x="632" y="1485" type="curve" smooth="yes"/>
      <point x="673" y="1485" type="line" smooth="yes"/>
      <point x="682" y="1485"/>
      <point x="689" y="1463"/>
      <point x="689" y="1438" type="curve" smooth="yes"/>
      <point x="689" y="1430"/>
      <point x="688.253" y="1422.96"/>
      <point x="687" y="1415" type="curve" smooth="yes"/>
      <point x="464" y="-3" type="line" smooth="yes"/>
      <point x="457.542" y="-44.9316"/>
      <point x="444" y="-73"/>
      <point x="428" y="-73" type="curve" smooth="yes"/>
    </contour>
    <contour>
      <point x="226" y="785" type="curve" smooth="yes"/>
      <point x="284" y="785"/>
      <point x="308" y="867"/>
      <point x="308" y="1051" type="curve" smooth="yes"/>
      <point x="308" y="1239"/>
      <point x="284" y="1323"/>
      <point x="226" y="1323" type="curve" smooth="yes"/>
      <point x="167" y="1323"/>
      <point x="143" y="1239"/>
      <point x="143" y="1051" type="curve" smooth="yes"/>
      <point x="143" y="867"/>
      <point x="167" y="785"/>
    </contour>
    <contour>
      <point x="226" y="670" type="curve" smooth="yes"/>
      <point x="111" y="670"/>
      <point x="46" y="778"/>
      <point x="46" y="1055" type="curve" smooth="yes"/>
      <point x="46" y="1330"/>
      <point x="109" y="1438"/>
      <point x="226" y="1438" type="curve" smooth="yes"/>
      <point x="341" y="1438"/>
      <point x="404" y="1330"/>
      <point x="404" y="1055" type="curve" smooth="yes"/>
      <point x="404" y="778"/>
      <point x="339" y="670"/>
    </contour>
    <contour>
      <point x="849" y="115" type="curve" smooth="yes"/>
      <point x="907" y="115"/>
      <point x="931" y="197"/>
      <point x="931" y="381" type="curve" smooth="yes"/>
      <point x="931" y="569"/>
      <point x="907" y="653"/>
      <point x="849" y="653" type="curve" smooth="yes"/>
      <point x="790" y="653"/>
      <point x="766" y="569"/>
      <point x="766" y="381" type="curve" smooth="yes"/>
      <point x="766" y="197"/>
      <point x="791" y="115"/>
    </contour>
    <contour>
      <point x="849" y="0" type="curve" smooth="yes"/>
      <point x="734" y="0"/>
      <point x="669" y="108"/>
      <point x="669" y="385" type="curve" smooth="yes"/>
      <point x="669" y="660"/>
      <point x="732" y="768"/>
      <point x="849" y="768" type="curve" smooth="yes"/>
      <point x="965" y="768"/>
      <point x="1028" y="660"/>
      <point x="1028" y="385" type="curve" smooth="yes"/>
      <point x="1028" y="108"/>
      <point x="963" y="0"/>
    </contour>
  </outline>
</glyph>
<glyph name="ampersand" format="1">
  <advance width="1181"/>
  <unicode hex="0026"/>
  <outline>
    <contour>
      <point x="478" y="-18" type="curve" smooth="yes"/>
      <point x="274" y="-18"/>
      <point x="112" y="90"/>
      <point x="112" y="405" type="curve" smooth="yes"/>
      <point x="112" y="592"/>
      <point x="212" y="719"/>
      <point x="299" y="745" type="curve"/>
      <point x="218" y="766"/>
      <point x="110" y="863"/>
      <point x="110" y="1058" type="curve" smooth="yes"/>
      <point x="110" y="1335"/>
      <point x="244" y="1459"/>
      <point x="437" y="1459" type="curve" smooth="yes"/>
      <point x="521" y="1459"/>
      <point x="563" y="1443"/>
      <point x="586" y="1430" type="curve" smooth="yes"/>
      <point x="600" y="1422"/>
      <point x="611" y="1412"/>
      <point x="611" y="1389" type="curve" smooth="yes"/>
      <point x="611" y="1385"/>
      <point x="611" y="1380"/>
      <point x="610" y="1375" type="curve" smooth="yes"/>
      <point x="604" y="1296" type="line"/>
      <point x="603" y="1264"/>
      <point x="593" y="1256"/>
      <point x="577" y="1264" type="curve"/>
      <point x="567" y="1267"/>
      <point x="550" y="1285"/>
      <point x="475" y="1285" type="curve" smooth="yes"/>
      <point x="402" y="1285"/>
      <point x="309" y="1238"/>
      <point x="308" y="1072" type="curve" smooth="yes"/>
      <point x="308" y="953"/>
      <point x="358" y="835"/>
      <point x="463" y="835" type="curve" smooth="yes"/>
      <point x="708" y="835" type="line" smooth="yes"/>
      <point x="716" y="835"/>
      <point x="723" y="845"/>
      <point x="723" y="865" type="curve" smooth="yes"/>
      <point x="730" y="1354" type="line" smooth="yes"/>
      <point x="731" y="1397"/>
      <point x="743" y="1408"/>
      <point x="761" y="1408" type="curve" smooth="yes"/>
      <point x="891" y="1408" type="line" smooth="yes"/>
      <point x="908" y="1408"/>
      <point x="920" y="1397"/>
      <point x="920" y="1354" type="curve" smooth="yes"/>
      <point x="920" y="865" type="line" smooth="yes"/>
      <point x="920" y="845"/>
      <point x="926" y="835"/>
      <point x="934" y="835" type="curve" smooth="yes"/>
      <point x="1083" y="835" type="line" smooth="yes"/>
      <point x="1101" y="835"/>
      <point x="1114" y="815"/>
      <point x="1114" y="776" type="curve" smooth="yes"/>
      <point x="1114" y="731" type="line" smooth="yes"/>
      <point x="1114" y="691"/>
      <point x="1101" y="669"/>
      <point x="1083" y="669" type="curve" smooth="yes"/>
      <point x="934" y="669" type="line" smooth="yes"/>
      <point x="926" y="669"/>
      <point x="920" y="660"/>
      <point x="920" y="640" type="curve" smooth="yes"/>
      <point x="920" y="365" type="line" smooth="yes"/>
      <point x="920" y="201"/>
      <point x="970" y="157"/>
      <point x="1024" y="157" type="curve" smooth="yes"/>
      <point x="1057" y="157"/>
      <point x="1087" y="171"/>
      <point x="1114" y="189" type="curve" smooth="yes"/>
      <point x="1130" y="199"/>
      <point x="1142" y="182"/>
      <point x="1145" y="150" type="curve"/>
      <point x="1146" y="91" type="line" smooth="yes"/>
      <point x="1146" y="81" type="line" smooth="yes"/>
      <point x="1146" y="53"/>
      <point x="1138" y="30"/>
      <point x="1123" y="20" type="curve" smooth="yes"/>
      <point x="1091" y="1"/>
      <point x="1045" y="-18"/>
      <point x="993" y="-18" type="curve" smooth="yes"/>
      <point x="914" y="-18"/>
      <point x="803" y="24"/>
      <point x="764" y="125" type="curve"/>
      <point x="725" y="81"/>
      <point x="657" y="-18"/>
    </contour>
    <contour>
      <point x="507" y="144" type="curve" smooth="yes"/>
      <point x="682" y="144"/>
      <point x="716" y="261"/>
      <point x="727" y="283" type="curve"/>
      <point x="725" y="319"/>
      <point x="723" y="641"/>
      <point x="723" y="641" type="curve" smooth="yes"/>
      <point x="723" y="661"/>
      <point x="716" y="669"/>
      <point x="708" y="669" type="curve" smooth="yes"/>
      <point x="473" y="669" type="line"/>
      <point x="381" y="668"/>
      <point x="310" y="555"/>
      <point x="310" y="407" type="curve" smooth="yes"/>
      <point x="310" y="201"/>
      <point x="426" y="144"/>
    </contour>
  </outline>
</glyph>
<glyph name="quotesingle" format="1">
  <advance width="363"/>
  <unicode hex="0027"/>
  <outline>
    <contour>
      <point x="169" y="765" type="line" smooth="yes"/>
      <point x="155" y="765"/>
      <point x="148" y="795"/>
      <point x="146" y="835" type="curve" smooth="yes"/>
      <point x="108" y="1364" type="line" smooth="yes"/>
      <point x="108" y="1375" type="line" smooth="yes"/>
      <point x="108" y="1410"/>
      <point x="119" y="1438"/>
      <point x="133" y="1438" type="curve" smooth="yes"/>
      <point x="231" y="1438" type="line" smooth="yes"/>
      <point x="245" y="1438"/>
      <point x="255" y="1408"/>
      <point x="255" y="1373" type="curve" smooth="yes"/>
      <point x="255" y="1364" type="line" smooth="yes"/>
      <point x="218" y="835" type="line" smooth="yes"/>
      <point x="215" y="795"/>
      <point x="210" y="765"/>
      <point x="195" y="765" type="curve" smooth="yes"/>
    </contour>
  </outline>
</glyph>
<glyph name="parenleft" format="1">
  <advance width="446"/>
  <unicode hex="0028"/>
  <outline>
    <contour>
      <point x="318" y="-143" type="line" smooth="yes"/>
      <point x="169" y="-89"/>
      <point x="104" y="298"/>
      <point x="104" y="698" type="curve" smooth="yes"/>
      <point x="104" y="1099"/>
      <point x="169" y="1485"/>
      <point x="318" y="1540" type="curve" smooth="yes"/>
      <point x="320" y="1540" type="line" smooth="yes"/>
      <point x="332" y="1540"/>
      <point x="344" y="1506"/>
      <point x="344" y="1470" type="curve" smooth="yes"/>
      <point x="344" y="1399" type="line" smooth="yes"/>
      <point x="344" y="1330"/>
      <point x="336" y="1317"/>
      <point x="315" y="1286" type="curve" smooth="yes"/>
      <point x="271" y="1220"/>
      <point x="240" y="1018"/>
      <point x="240" y="698" type="curve" smooth="yes"/>
      <point x="240" y="379"/>
      <point x="270" y="178"/>
      <point x="316" y="112" type="curve" smooth="yes"/>
      <point x="337" y="81"/>
      <point x="344" y="67"/>
      <point x="344" y="-2" type="curve" smooth="yes"/>
      <point x="344" y="-73" type="line" smooth="yes"/>
      <point x="344" y="-109"/>
      <point x="332" y="-143"/>
      <point x="320" y="-143" type="curve" smooth="yes"/>
    </contour>
  </outline>
</glyph>
<glyph name="parenright" format="1">
  <advance width="450"/>
  <unicode hex="0029"/>
  <outline>
    <contour>
      <point x="129" y="-143" type="curve" smooth="yes"/>
      <point x="127" y="-143" type="line" smooth="yes"/>
      <point x="115" y="-143"/>
      <point x="103" y="-109"/>
      <point x="103" y="-73" type="curve" smooth="yes"/>
      <point x="103" y="-1" type="line" smooth="yes"/>
      <point x="103" y="68"/>
      <point x="111" y="82"/>
      <point x="132" y="112" type="curve" smooth="yes"/>
      <point x="177" y="178"/>
      <point x="208" y="379"/>
      <point x="208" y="698" type="curve" smooth="yes"/>
      <point x="208" y="1018"/>
      <point x="177" y="1220"/>
      <point x="132" y="1286" type="curve" smooth="yes"/>
      <point x="112" y="1317"/>
      <point x="103" y="1331"/>
      <point x="103" y="1400" type="curve" smooth="yes"/>
      <point x="103" y="1470" type="line" smooth="yes"/>
      <point x="103" y="1506"/>
      <point x="115" y="1540"/>
      <point x="127" y="1540" type="curve" smooth="yes"/>
      <point x="129" y="1540" type="line" smooth="yes"/>
      <point x="279" y="1485"/>
      <point x="343" y="1098"/>
      <point x="343" y="698" type="curve" smooth="yes"/>
      <point x="343" y="297"/>
      <point x="279" y="-89"/>
    </contour>
  </outline>
</glyph>
<glyph name="plus" format="1">
  <advance width="801"/>
  <unicode hex="002B"/>
  <outline>
    <contour>
      <point x="369" y="271" type="line" smooth="yes"/>
      <point x="350" y="271"/>
      <point x="336" y="275"/>
      <point x="336" y="316" type="curve" smooth="yes"/>
      <point x="336" y="523" type="line" smooth="yes"/>
      <point x="336" y="543"/>
      <point x="330" y="545"/>
      <point x="321" y="545" type="curve" smooth="yes"/>
      <point x="142" y="545" type="line" smooth="yes"/>
      <point x="125" y="545"/>
      <point x="111" y="549"/>
      <point x="111" y="587" type="curve" smooth="yes"/>
      <point x="111" y="620" type="line" smooth="yes"/>
      <point x="111" y="658"/>
      <point x="125" y="661"/>
      <point x="142" y="661" type="curve" smooth="yes"/>
      <point x="321" y="661" type="line" smooth="yes"/>
      <point x="330" y="661"/>
      <point x="336" y="663"/>
      <point x="336" y="683" type="curve" smooth="yes"/>
      <point x="336" y="881" type="line" smooth="yes"/>
      <point x="336" y="922"/>
      <point x="350" y="926"/>
      <point x="369" y="926" type="curve" smooth="yes"/>
      <point x="441" y="926" type="line" smooth="yes"/>
      <point x="459" y="926"/>
      <point x="472" y="922"/>
      <point x="472" y="881" type="curve" smooth="yes"/>
      <point x="472" y="683" type="line" smooth="yes"/>
      <point x="472" y="663"/>
      <point x="479" y="661"/>
      <point x="489" y="661" type="curve" smooth="yes"/>
      <point x="665" y="661" type="line" smooth="yes"/>
      <point x="681" y="661"/>
      <point x="696" y="658"/>
      <point x="696" y="620" type="curve" smooth="yes"/>
      <point x="696" y="587" type="line" smooth="yes"/>
      <point x="696" y="549"/>
      <point x="681" y="545"/>
      <point x="665" y="545" type="curve" smooth="yes"/>
      <point x="489" y="545" type="line" smooth="yes"/>
      <point x="479" y="545"/>
      <point x="472" y="543"/>
      <point x="472" y="523" type="curve" smooth="yes"/>
      <point x="472" y="316" type="line" smooth="yes"/>
      <point x="472" y="275"/>
      <point x="459" y="271"/>
      <point x="441" y="271" type="curve" smooth="yes"/>
    </contour>
  </outline>
</glyph>
<glyph name="comma" format="1">
  <advance width="400"/>
  <unicode hex="002C"/>
  <outline>
    <contour>
      <point x="117" y="-316" type="curve" smooth="yes"/>
      <point x="115" y="-317"/>
      <point x="113" y="-318"/>
      <point x="111" y="-318" type="curve" smooth="yes"/>
      <point x="101" y="-318"/>
      <point x="92" y="-305"/>
      <point x="92" y="-275" type="curve" smooth="yes"/>
      <point x="92" y="-257" type="line" smooth="yes"/>
      <point x="92" y="-213"/>
      <point x="95" y="-214"/>
      <point x="115" y="-191" type="curve" smooth="yes"/>
      <point x="146" y="-153"/>
      <point x="162" y="-77"/>
      <point x="162" y="-27" type="curve" smooth="yes"/>
      <point x="162" y="-11"/>
      <point x="161" y="0"/>
      <point x="156" y="0" type="curve" smooth="yes"/>
      <point x="111" y="0" type="line" smooth="yes"/>
      <point x="97" y="0"/>
      <point x="90" y="19"/>
      <point x="90" y="57" type="curve" smooth="yes"/>
      <point x="90" y="204" type="line" smooth="yes"/>
      <point x="90" y="247"/>
      <point x="102" y="264"/>
      <point x="117" y="264" type="curve" smooth="yes"/>
      <point x="233" y="264" type="line" smooth="yes"/>
      <point x="247" y="264"/>
      <point x="259" y="243"/>
      <point x="259" y="200" type="curve" smooth="yes"/>
      <point x="259" y="50" type="line" smooth="yes"/>
      <point x="259" y="-188"/>
      <point x="165" y="-293"/>
    </contour>
  </outline>
</glyph>
<glyph name="hyphen" format="1">
  <advance width="656"/>
  <unicode hex="002D"/>
  <outline>
    <contour>
      <point x="115" y="532" type="line" smooth="yes"/>
      <point x="99" y="532"/>
      <point x="89" y="540"/>
      <point x="89" y="583" type="curve" smooth="yes"/>
      <point x="89" y="634" type="line" smooth="yes"/>
      <point x="89" y="677"/>
      <point x="99" y="684"/>
      <point x="115" y="684" type="curve" smooth="yes"/>
      <point x="542" y="684" type="line" smooth="yes"/>
      <point x="556" y="684"/>
      <point x="567" y="677"/>
      <point x="567" y="634" type="curve" smooth="yes"/>
      <point x="567" y="583" type="line" smooth="yes"/>
      <point x="567" y="540"/>
      <point x="556" y="532"/>
      <point x="542" y="532" type="curve" smooth="yes"/>
    </contour>
  </outline>
</glyph>
<glyph name="period" format="1">
  <advance width="377"/>
  <unicode hex="002E"/>
  <outline>
    <contour>
      <point x="120" y="0" type="line" smooth="yes"/>
      <point x="106" y="0"/>
      <point x="94" y="8"/>
      <point x="94" y="51" type="curve" smooth="yes"/>
      <point x="94" y="203" type="line" smooth="yes"/>
      <point x="94" y="246"/>
      <point x="106" y="253"/>
      <point x="120" y="253" type="curve" smooth="yes"/>
      <point x="257" y="253" type="line" smooth="yes"/>
      <point x="272" y="253"/>
      <point x="284" y="246"/>
      <point x="284" y="203" type="curve" smooth="yes"/>
      <point x="284" y="51" type="line" smooth="yes"/>
      <point x="284" y="8"/>
      <point x="272" y="0"/>
      <point x="257" y="0" type="curve" smooth="yes"/>
    </contour>
  </outline>
</glyph>
<glyph name="slash" format="1">
  <advance width="564"/>
  <unicode hex="002F"/>
  <outline>
    <contour>
      <point x="93" y="-205" type="line" smooth="yes"/>
      <point x="88" y="-205"/>
      <point x="84" y="-193"/>
      <point x="84" y="-179" type="curve" smooth="yes"/>
      <point x="84" y="-176"/>
      <point x="85" y="-173"/>
      <point x="85" y="-170" type="curve" smooth="yes"/>
      <point x="319" y="1612" type="line" smooth="yes"/>
      <point x="322" y="1633"/>
      <point x="330" y="1647"/>
      <point x="337" y="1647" type="curve" smooth="yes"/>
      <point x="474" y="1647" type="line" smooth="yes"/>
      <point x="480" y="1647"/>
      <point x="484" y="1635"/>
      <point x="484" y="1622" type="curve" smooth="yes"/>
      <point x="484" y="1619"/>
      <point x="484" y="1615"/>
      <point x="483" y="1612" type="curve" smooth="yes"/>
      <point x="248" y="-171" type="line" smooth="yes"/>
      <point x="245" y="-192"/>
      <point x="239" y="-206"/>
      <point x="232" y="-206" type="curve" smooth="yes"/>
    </contour>
  </outline>
</glyph>
<glyph name="zero" format="1">
  <advance width="891"/>
  <unicode hex="0030"/>
  <outline>
    <contour>
      <point x="445" y="145" type="curve" smooth="yes"/>
      <point x="559" y="145"/>
      <point x="598" y="306"/>
      <point x="598" y="724" type="curve" smooth="yes"/>
      <point x="598" y="1132"/>
      <point x="559" y="1294"/>
      <point x="443" y="1294" type="curve" smooth="yes"/>
      <point x="326" y="1294"/>
      <point x="290" y="1131"/>
      <point x="290" y="724" type="curve" smooth="yes"/>
      <point x="290" y="308"/>
      <point x="330" y="145"/>
    </contour>
    <contour>
      <point x="444" y="-18" type="curve" smooth="yes"/>
      <point x="264" y="-18"/>
      <point x="103" y="130"/>
      <point x="103" y="724" type="curve" smooth="yes"/>
      <point x="103" y="1342"/>
      <point x="264" y="1456"/>
      <point x="443" y="1456" type="curve" smooth="yes"/>
      <point x="623" y="1456"/>
      <point x="786" y="1345"/>
      <point x="786" y="724" type="curve" smooth="yes"/>
      <point x="786" y="130"/>
      <point x="624" y="-18"/>
    </contour>
  </outline>
</glyph>
<glyph name="one" format="1">
  <advance width="539"/>
  <unicode hex="0031"/>
  <outline>
    <contour>
      <point x="216" y="0" type="line" smooth="yes"/>
      <point x="201" y="0"/>
      <point x="191" y="24"/>
      <point x="191" y="67" type="curve" smooth="yes"/>
      <point x="191" y="1172" type="line" smooth="yes"/>
      <point x="191" y="1192"/>
      <point x="185" y="1203"/>
      <point x="178" y="1202" type="curve" smooth="yes"/>
      <point x="178" y="1202"/>
      <point x="99" y="1182"/>
      <point x="98" y="1182" type="curve" smooth="yes"/>
      <point x="84" y="1181"/>
      <point x="76" y="1191"/>
      <point x="76" y="1226" type="curve" smooth="yes"/>
      <point x="76" y="1322" type="line" smooth="yes"/>
      <point x="76" y="1354"/>
      <point x="86" y="1364"/>
      <point x="100" y="1367" type="curve" smooth="yes"/>
      <point x="364" y="1435" type="line" smooth="yes"/>
      <point x="367" y="1436"/>
      <point x="370" y="1436"/>
      <point x="373" y="1436" type="curve" smooth="yes"/>
      <point x="387" y="1436"/>
      <point x="395" y="1425"/>
      <point x="395" y="1389" type="curve" smooth="yes"/>
      <point x="395" y="67" type="line" smooth="yes"/>
      <point x="395" y="24"/>
      <point x="384" y="0"/>
      <point x="369" y="0" type="curve" smooth="yes"/>
    </contour>
  </outline>
</glyph>
<glyph name="two" format="1">
  <advance width="727"/>
  <unicode hex="0032"/>
  <outline>
    <contour>
      <point x="611" y="1" type="curve" smooth="yes"/>
      <point x="111" y="1" type="line" smooth="yes"/>
      <point x="94" y="1"/>
      <point x="84" y="23"/>
      <point x="84" y="70" type="curve" smooth="yes"/>
      <point x="84" y="76"/>
      <point x="85" y="123"/>
      <point x="85" y="130" type="curve" smooth="yes"/>
      <point x="117" y="652"/>
      <point x="498" y="844"/>
      <point x="498" y="1107" type="curve" smooth="yes"/>
      <point x="498" y="1235"/>
      <point x="422" y="1290"/>
      <point x="338" y="1290" type="curve" smooth="yes"/>
      <point x="229" y="1290"/>
      <point x="162" y="1245"/>
      <point x="119" y="1227" type="curve"/>
      <point x="105" y="1214"/>
      <point x="99" y="1221"/>
      <point x="98" y="1240" type="curve"/>
      <point x="88" y="1283"/>
      <point x="80" y="1325"/>
      <point x="80" y="1334" type="curve" smooth="yes"/>
      <point x="80" y="1360"/>
      <point x="83" y="1374"/>
      <point x="89" y="1383" type="curve"/>
      <point x="152" y="1426"/>
      <point x="249" y="1454"/>
      <point x="342" y="1454" type="curve" smooth="yes"/>
      <point x="496" y="1454"/>
      <point x="668" y="1399"/>
      <point x="668" y="1140" type="curve" smooth="yes"/>
      <point x="668" y="817"/>
      <point x="357" y="684"/>
      <point x="265" y="206" type="curve" smooth="yes"/>
      <point x="264" y="203"/>
      <point x="264" y="199"/>
      <point x="264" y="194" type="curve" smooth="yes"/>
      <point x="264" y="175"/>
      <point x="269" y="146"/>
      <point x="278" y="146" type="curve" smooth="yes"/>
      <point x="611" y="146" type="line" smooth="yes"/>
      <point x="622" y="146"/>
      <point x="629" y="135"/>
      <point x="629" y="96" type="curve" smooth="yes"/>
      <point x="629" y="48" type="line" smooth="yes"/>
      <point x="629" y="10"/>
      <point x="623" y="1"/>
    </contour>
  </outline>
</glyph>
<glyph name="three" format="1">
  <advance width="662"/>
  <unicode hex="0033"/>
  <outline>
    <contour>
      <point x="276" y="-15" type="curve" smooth="yes"/>
      <point x="177" y="-15"/>
      <point x="111" y="4"/>
      <point x="73" y="35" type="curve" smooth="yes"/>
      <point x="63" y="43"/>
      <point x="59" y="86"/>
      <point x="59" y="91" type="curve" smooth="yes"/>
      <point x="59" y="97"/>
      <point x="63" y="169"/>
      <point x="66" y="169" type="curve"/>
      <point x="67" y="190"/>
      <point x="69" y="204"/>
      <point x="80" y="194" type="curve"/>
      <point x="102" y="181"/>
      <point x="154" y="146"/>
      <point x="251" y="146" type="curve" smooth="yes"/>
      <point x="380" y="146"/>
      <point x="437" y="236"/>
      <point x="437" y="397" type="curve"/>
      <point x="436" y="549"/>
      <point x="378" y="646"/>
      <point x="262" y="648" type="curve" smooth="yes"/>
      <point x="226" y="648" type="line" smooth="yes"/>
      <point x="202" y="648"/>
      <point x="198" y="657"/>
      <point x="198" y="684" type="curve" smooth="yes"/>
      <point x="198" y="791" type="line" smooth="yes"/>
      <point x="198" y="804"/>
      <point x="202" y="815"/>
      <point x="226" y="815" type="curve" smooth="yes"/>
      <point x="261" y="815" type="line" smooth="yes"/>
      <point x="378" y="818"/>
      <point x="427" y="910"/>
      <point x="427" y="1053" type="curve" smooth="yes"/>
      <point x="427" y="1232"/>
      <point x="369" y="1292"/>
      <point x="267" y="1292" type="curve" smooth="yes"/>
      <point x="166" y="1292"/>
      <point x="105" y="1261"/>
      <point x="78" y="1245" type="curve"/>
      <point x="69" y="1238"/>
      <point x="65" y="1245"/>
      <point x="64" y="1271" type="curve"/>
      <point x="61" y="1271"/>
      <point x="56" y="1340"/>
      <point x="56" y="1345" type="curve" smooth="yes"/>
      <point x="56" y="1350"/>
      <point x="61" y="1394"/>
      <point x="71" y="1402" type="curve"/>
      <point x="119" y="1432"/>
      <point x="181" y="1454"/>
      <point x="293" y="1454" type="curve" smooth="yes"/>
      <point x="467" y="1454"/>
      <point x="602" y="1353"/>
      <point x="602" y="1061" type="curve" smooth="yes"/>
      <point x="602" y="883"/>
      <point x="539" y="764"/>
      <point x="405" y="730" type="curve"/>
      <point x="542" y="699"/>
      <point x="609" y="565"/>
      <point x="609" y="363" type="curve" smooth="yes"/>
      <point x="609" y="71"/>
      <point x="446" y="-15"/>
    </contour>
  </outline>
</glyph>
<glyph name="four" format="1">
  <advance width="894"/>
  <unicode hex="0034"/>
  <outline>
    <contour>
      <point x="571" y="-1" type="line" smooth="yes"/>
      <point x="547" y="-1"/>
      <point x="534" y="18"/>
      <point x="534" y="60" type="curve" smooth="yes"/>
      <point x="534" y="285" type="line"/>
      <point x="136" y="285" type="line" smooth="yes"/>
      <point x="109" y="285"/>
      <point x="87" y="306"/>
      <point x="87" y="338" type="curve" smooth="yes"/>
      <point x="87" y="342"/>
      <point x="87" y="347"/>
      <point x="88" y="352" type="curve" smooth="yes"/>
      <point x="231" y="1370" type="line"/>
      <point x="238" y="1412"/>
      <point x="244" y="1438"/>
      <point x="269" y="1438" type="curve" smooth="yes"/>
      <point x="351" y="1438" type="line" smooth="yes"/>
      <point x="374" y="1438"/>
      <point x="386" y="1415"/>
      <point x="386" y="1387" type="curve" smooth="yes"/>
      <point x="386" y="1382"/>
      <point x="386" y="1376"/>
      <point x="385" y="1370" type="curve" smooth="yes"/>
      <point x="287" y="489" type="line" smooth="yes"/>
      <point x="286" y="482"/>
      <point x="291" y="460"/>
      <point x="305" y="460" type="curve" smooth="yes"/>
      <point x="534" y="460" type="line"/>
      <point x="534" y="1377" type="line" smooth="yes"/>
      <point x="534" y="1419"/>
      <point x="547" y="1438"/>
      <point x="571" y="1438" type="curve" smooth="yes"/>
      <point x="668" y="1438" type="line" smooth="yes"/>
      <point x="692" y="1438"/>
      <point x="705" y="1419"/>
      <point x="705" y="1377" type="curve" smooth="yes"/>
      <point x="705" y="460" type="line"/>
      <point x="835" y="460" type="line" smooth="yes"/>
      <point x="865" y="460"/>
      <point x="879" y="443"/>
      <point x="879" y="404" type="curve" smooth="yes"/>
      <point x="879" y="341" type="line" smooth="yes"/>
      <point x="879" y="302"/>
      <point x="865" y="285"/>
      <point x="835" y="285" type="curve" smooth="yes"/>
      <point x="705" y="285" type="line"/>
      <point x="705" y="60" type="line" smooth="yes"/>
      <point x="705" y="18"/>
      <point x="692" y="-1"/>
      <point x="668" y="-1" type="curve" smooth="yes"/>
    </contour>
  </outline>
</glyph>
<glyph name="five" format="1">
  <advance width="841"/>
  <unicode hex="0035"/>
  <outline>
    <contour>
      <point x="399" y="-15" type="curve"/>
      <point x="347" y="-14"/>
      <point x="177" y="23"/>
      <point x="137" y="51" type="curve" smooth="yes"/>
      <point x="124" y="60"/>
      <point x="118" y="84"/>
      <point x="118" y="104" type="curve" smooth="yes"/>
      <point x="118" y="114"/>
      <point x="120" y="212"/>
      <point x="137" y="212" type="curve" smooth="yes"/>
      <point x="139" y="212"/>
      <point x="142" y="211"/>
      <point x="145" y="209" type="curve" smooth="yes"/>
      <point x="159" y="203"/>
      <point x="250" y="148"/>
      <point x="368" y="148" type="curve" smooth="yes"/>
      <point x="546" y="148"/>
      <point x="584" y="268"/>
      <point x="584" y="477" type="curve" smooth="yes"/>
      <point x="584" y="613"/>
      <point x="568" y="788"/>
      <point x="407" y="788" type="curve" smooth="yes"/>
      <point x="258" y="788"/>
      <point x="256" y="641"/>
      <point x="203" y="641" type="curve" smooth="yes"/>
      <point x="155" y="641" type="line" smooth="yes"/>
      <point x="131" y="641"/>
      <point x="133" y="681"/>
      <point x="132" y="721" type="curve" smooth="yes"/>
      <point x="112" y="1345" type="line" smooth="yes"/>
      <point x="112" y="1358" type="line" smooth="yes"/>
      <point x="112" y="1410"/>
      <point x="118" y="1438"/>
      <point x="141" y="1438" type="curve" smooth="yes"/>
      <point x="688" y="1438" type="line" smooth="yes"/>
      <point x="701" y="1438"/>
      <point x="710" y="1419"/>
      <point x="710" y="1393" type="curve" smooth="yes"/>
      <point x="708" y="1310" type="line"/>
      <point x="706" y="1280"/>
      <point x="702" y="1267"/>
      <point x="693" y="1267" type="curve" smooth="yes"/>
      <point x="273" y="1267" type="line" smooth="yes"/>
      <point x="258" y="1267"/>
      <point x="250" y="1256"/>
      <point x="250" y="1217" type="curve" smooth="yes"/>
      <point x="250" y="1215"/>
      <point x="253" y="822"/>
      <point x="253" y="822" type="curve"/>
      <point x="278" y="861"/>
      <point x="342" y="938"/>
      <point x="479" y="938" type="curve" smooth="yes"/>
      <point x="679" y="938"/>
      <point x="761" y="753"/>
      <point x="761" y="464" type="curve" smooth="yes"/>
      <point x="761" y="80"/>
      <point x="613" y="-15"/>
    </contour>
  </outline>
</glyph>
<glyph name="six" format="1">
  <advance width="844"/>
  <unicode hex="0036"/>
  <outline>
    <contour>
      <point x="104" y="687" type="curve" smooth="yes"/>
      <point x="104" y="1241"/>
      <point x="210" y="1454"/>
      <point x="480" y="1454" type="curve" smooth="yes"/>
      <point x="565" y="1454"/>
      <point x="667" y="1422"/>
      <point x="703" y="1391" type="curve" smooth="yes"/>
      <point x="714" y="1382"/>
      <point x="719" y="1344"/>
      <point x="719" y="1340" type="curve" smooth="yes"/>
      <point x="719" y="1337"/>
      <point x="713" y="1265"/>
      <point x="711" y="1263" type="curve"/>
      <point x="708" y="1234"/>
      <point x="702" y="1223"/>
      <point x="688" y="1232" type="curve" smooth="yes"/>
      <point x="668" y="1245"/>
      <point x="606" y="1289"/>
      <point x="519" y="1289" type="curve" smooth="yes"/>
      <point x="386" y="1289"/>
      <point x="303" y="1201"/>
      <point x="303" y="884" type="curve" smooth="yes"/>
      <point x="303" y="859" type="line"/>
      <point x="362" y="883"/>
      <point x="418" y="905"/>
      <point x="469" y="905" type="curve" smooth="yes"/>
      <point x="695" y="905"/>
      <point x="777" y="703"/>
      <point x="777" y="441" type="curve" smooth="yes"/>
      <point x="777" y="64"/>
      <point x="633" y="-15"/>
      <point x="442" y="-15" type="curve" smooth="yes"/>
      <point x="211" y="-15"/>
      <point x="104" y="184"/>
    </contour>
    <contour>
      <point x="447" y="147" type="curve" smooth="yes"/>
      <point x="535" y="147"/>
      <point x="585" y="206"/>
      <point x="585" y="456" type="curve" smooth="yes"/>
      <point x="585" y="610"/>
      <point x="561" y="740"/>
      <point x="457" y="740" type="curve" smooth="yes"/>
      <point x="416" y="740"/>
      <point x="362" y="725"/>
      <point x="302" y="696" type="curve"/>
      <point x="302" y="576" type="line" smooth="yes"/>
      <point x="302" y="248"/>
      <point x="346" y="147"/>
    </contour>
  </outline>
</glyph>
<glyph name="seven" format="1">
  <advance width="586"/>
  <unicode hex="0037"/>
  <outline>
    <contour>
      <point x="189" y="0" type="line" smooth="yes"/>
      <point x="176" y="0"/>
      <point x="165" y="18"/>
      <point x="165" y="50" type="curve" smooth="yes"/>
      <point x="165" y="55"/>
      <point x="165.271" y="59.9619"/>
      <point x="166" y="66" type="curve" smooth="yes"/>
      <point x="304" y="1210" type="line" smooth="yes"/>
      <point x="306" y="1226"/>
      <point x="300" y="1237"/>
      <point x="293" y="1237" type="curve" smooth="yes"/>
      <point x="98" y="1237" type="line" smooth="yes"/>
      <point x="83" y="1237"/>
      <point x="72" y="1246"/>
      <point x="72" y="1283" type="curve" smooth="yes"/>
      <point x="72" y="1394" type="line" smooth="yes"/>
      <point x="72" y="1429"/>
      <point x="83" y="1438"/>
      <point x="98" y="1438" type="curve" smooth="yes"/>
      <point x="490" y="1438" type="line" smooth="yes"/>
      <point x="503" y="1438"/>
      <point x="514" y="1421"/>
      <point x="514" y="1389" type="curve" smooth="yes"/>
      <point x="514" y="1384"/>
      <point x="514" y="1379"/>
      <point x="513" y="1373" type="curve" smooth="yes"/>
      <point x="357" y="66" type="line" smooth="yes"/>
      <point x="352" y="24.1084"/>
      <point x="345" y="0"/>
      <point x="330" y="0" type="curve" smooth="yes"/>
    </contour>
  </outline>
</glyph>
<glyph name="eight" format="1">
  <advance width="849"/>
  <unicode hex="0038"/>
  <outline>
    <contour>
      <point x="525" y="826" type="curve"/>
      <point x="541" y="844"/>
      <point x="563" y="966"/>
      <point x="563" y="1057" type="curve" smooth="yes"/>
      <point x="563" y="1240"/>
      <point x="503" y="1301"/>
      <point x="426" y="1301" type="curve" smooth="yes"/>
      <point x="345" y="1301"/>
      <point x="289" y="1244"/>
      <point x="289" y="1071" type="curve" smooth="yes"/>
      <point x="289" y="895"/>
      <point x="351" y="848"/>
    </contour>
    <contour>
      <point x="426" y="-15" type="curve" smooth="yes"/>
      <point x="262" y="-15"/>
      <point x="106" y="48"/>
      <point x="106" y="431" type="curve" smooth="yes"/>
      <point x="106" y="611"/>
      <point x="164" y="746"/>
      <point x="217" y="794" type="curve"/>
      <point x="172" y="841"/>
      <point x="135" y="920"/>
      <point x="135" y="1068" type="curve" smooth="yes"/>
      <point x="135" y="1376"/>
      <point x="275" y="1454"/>
      <point x="426" y="1454" type="curve" smooth="yes"/>
      <point x="577" y="1454"/>
      <point x="712" y="1377"/>
      <point x="712" y="1064" type="curve" smooth="yes"/>
      <point x="712" y="931"/>
      <point x="673" y="814"/>
      <point x="633" y="767" type="curve"/>
      <point x="705" y="705"/>
      <point x="744" y="606"/>
      <point x="744" y="425" type="curve" smooth="yes"/>
      <point x="744" y="63"/>
      <point x="591" y="-15"/>
    </contour>
    <contour>
      <point x="427" y="175" type="curve" smooth="yes"/>
      <point x="517" y="175"/>
      <point x="576" y="229"/>
      <point x="576" y="444" type="curve" smooth="yes"/>
      <point x="576" y="676"/>
      <point x="468" y="657"/>
      <point x="316" y="721" type="curve"/>
      <point x="292" y="670"/>
      <point x="271" y="545"/>
      <point x="271" y="457" type="curve" smooth="yes"/>
      <point x="271" y="242"/>
      <point x="336" y="175"/>
    </contour>
  </outline>
</glyph>
<glyph name="nine" format="1">
  <advance width="866"/>
  <unicode hex="0039"/>
  <outline>
    <contour>
      <point x="408" y="-15" type="curve" smooth="yes"/>
      <point x="334" y="-15"/>
      <point x="210" y="30"/>
      <point x="171" y="68" type="curve"/>
      <point x="160" y="77"/>
      <point x="157" y="115"/>
      <point x="157" y="121" type="curve" smooth="yes"/>
      <point x="163" y="199" type="line" smooth="yes"/>
      <point x="166" y="240"/>
      <point x="175" y="239"/>
      <point x="187" y="231" type="curve"/>
      <point x="204" y="216"/>
      <point x="298" y="160"/>
      <point x="399" y="160" type="curve" smooth="yes"/>
      <point x="523" y="160"/>
      <point x="563" y="269"/>
      <point x="563" y="527" type="curve" smooth="yes"/>
      <point x="563" y="581" type="line"/>
      <point x="518" y="553"/>
      <point x="467" y="527"/>
      <point x="411" y="527" type="curve" smooth="yes"/>
      <point x="193" y="527"/>
      <point x="103" y="722"/>
      <point x="103" y="994" type="curve" smooth="yes"/>
      <point x="103" y="1363"/>
      <point x="243" y="1462"/>
      <point x="433" y="1462" type="curve" smooth="yes"/>
      <point x="654" y="1462"/>
      <point x="763" y="1284"/>
      <point x="763" y="749" type="curve" smooth="yes"/>
      <point x="763" y="158"/>
      <point x="660" y="-15"/>
    </contour>
    <contour>
      <point x="423" y="692" type="curve" smooth="yes"/>
      <point x="463" y="692"/>
      <point x="516" y="707"/>
      <point x="564" y="745" type="curve"/>
      <point x="564" y="912" type="line" smooth="yes"/>
      <point x="564" y="1208"/>
      <point x="518" y="1292"/>
      <point x="429" y="1292" type="curve" smooth="yes"/>
      <point x="345" y="1292"/>
      <point x="297" y="1215"/>
      <point x="297" y="982" type="curve" smooth="yes"/>
      <point x="297" y="810"/>
      <point x="326" y="692"/>
    </contour>
  </outline>
</glyph>
<glyph name="colon" format="1">
  <advance width="340"/>
  <unicode hex="003A"/>
  <outline>
    <contour>
      <point x="126" y="0" type="line" smooth="yes"/>
      <point x="111" y="0"/>
      <point x="99" y="21"/>
      <point x="99" y="64" type="curve" smooth="yes"/>
      <point x="99" y="268" type="line" smooth="yes"/>
      <point x="99" y="311"/>
      <point x="111" y="332"/>
      <point x="126" y="332" type="curve" smooth="yes"/>
      <point x="214" y="332" type="line" smooth="yes"/>
      <point x="229" y="332"/>
      <point x="241" y="311"/>
      <point x="241" y="268" type="curve" smooth="yes"/>
      <point x="241" y="64" type="line" smooth="yes"/>
      <point x="241" y="21"/>
      <point x="229" y="0"/>
      <point x="214" y="0" type="curve" smooth="yes"/>
    </contour>
    <contour>
      <point x="126" y="690" type="line" smooth="yes"/>
      <point x="111" y="690"/>
      <point x="99" y="711"/>
      <point x="99" y="754" type="curve" smooth="yes"/>
      <point x="99" y="958" type="line" smooth="yes"/>
      <point x="99" y="1001"/>
      <point x="111" y="1022"/>
      <point x="126" y="1022" type="curve" smooth="yes"/>
      <point x="214" y="1022" type="line" smooth="yes"/>
      <point x="229" y="1022"/>
      <point x="241" y="1001"/>
      <point x="241" y="958" type="curve" smooth="yes"/>
      <point x="241" y="754" type="line" smooth="yes"/>
      <point x="241" y="711"/>
      <point x="229" y="690"/>
      <point x="214" y="690" type="curve" smooth="yes"/>
    </contour>
  </outline>
</glyph>
<glyph name="semicolon" format="1">
  <advance width="356"/>
  <unicode hex="003B"/>
  <outline>
    <contour>
      <point x="120" y="-328" type="curve" smooth="yes"/>
      <point x="118" y="-329"/>
      <point x="117" y="-329"/>
      <point x="115" y="-329" type="curve" smooth="yes"/>
      <point x="105" y="-329"/>
      <point x="96" y="-314"/>
      <point x="96" y="-283" type="curve" smooth="yes"/>
      <point x="96" y="-266" type="line" smooth="yes"/>
      <point x="96" y="-212"/>
      <point x="99" y="-214"/>
      <point x="119" y="-191" type="curve" smooth="yes"/>
      <point x="150" y="-153"/>
      <point x="166" y="-77"/>
      <point x="166" y="-27" type="curve" smooth="yes"/>
      <point x="166" y="-11"/>
      <point x="165" y="0"/>
      <point x="160" y="0" type="curve" smooth="yes"/>
      <point x="117" y="0" type="line" smooth="yes"/>
      <point x="103" y="0"/>
      <point x="96" y="19"/>
      <point x="96" y="57" type="curve" smooth="yes"/>
      <point x="96" y="248" type="line" smooth="yes"/>
      <point x="96" y="291"/>
      <point x="102" y="308"/>
      <point x="117" y="308" type="curve" smooth="yes"/>
      <point x="237" y="308" type="line" smooth="yes"/>
      <point x="251" y="308"/>
      <point x="263" y="287"/>
      <point x="263" y="244" type="curve" smooth="yes"/>
      <point x="263" y="50" type="line" smooth="yes"/>
      <point x="263" y="-188"/>
      <point x="168" y="-305"/>
    </contour>
    <contour>
      <point x="125" y="690" type="line" smooth="yes"/>
      <point x="110" y="690"/>
      <point x="98" y="711"/>
      <point x="98" y="754" type="curve" smooth="yes"/>
      <point x="98" y="958" type="line" smooth="yes"/>
      <point x="98" y="1001"/>
      <point x="110" y="1022"/>
      <point x="125" y="1022" type="curve" smooth="yes"/>
      <point x="230" y="1022" type="line" smooth="yes"/>
      <point x="245" y="1022"/>
      <point x="256" y="1001"/>
      <point x="256" y="958" type="curve" smooth="yes"/>
      <point x="256" y="754" type="line" smooth="yes"/>
      <point x="256" y="711"/>
      <point x="245" y="690"/>
      <point x="230" y="690" type="curve" smooth="yes"/>
    </contour>
  </outline>
</glyph>
<glyph name="less" format="1">
  <advance width="1073"/>
  <unicode hex="003C"/>
  <outline>
    <contour>
      <point x="526" y="145" type="curve" smooth="yes"/>
      <point x="519" y="145"/>
      <point x="510" y="151"/>
      <point x="500" y="158" type="curve"/>
      <point x="209" y="499" type="line"/>
      <point x="175" y="537"/>
      <point x="154" y="560"/>
      <point x="154" y="606" type="curve" smooth="yes"/>
      <point x="154" y="655" type="line" smooth="yes"/>
      <point x="154" y="701"/>
      <point x="176" y="723"/>
      <point x="210" y="762" type="curve"/>
      <point x="500" y="1112" type="line"/>
      <point x="508" y="1119"/>
      <point x="517" y="1122"/>
      <point x="525" y="1122" type="curve" smooth="yes"/>
      <point x="545" y="1122"/>
      <point x="559" y="1103"/>
      <point x="559" y="1079" type="curve" smooth="yes"/>
      <point x="559" y="1023" type="line" smooth="yes"/>
      <point x="559" y="976"/>
      <point x="540" y="960"/>
      <point x="511" y="928" type="curve"/>
      <point x="287" y="648" type="line" smooth="yes"/>
      <point x="281" y="642"/>
      <point x="278" y="636"/>
      <point x="278" y="630" type="curve" smooth="yes"/>
      <point x="278" y="624"/>
      <point x="281" y="618"/>
      <point x="287" y="612" type="curve" smooth="yes"/>
      <point x="511" y="342" type="line"/>
      <point x="540" y="311"/>
      <point x="559" y="297"/>
      <point x="559" y="250" type="curve" smooth="yes"/>
      <point x="559" y="187" type="line" smooth="yes"/>
      <point x="559" y="164"/>
      <point x="545" y="145"/>
    </contour>
  </outline>
</glyph>
<glyph name="equal" format="1">
  <advance width="560"/>
  <unicode hex="003D"/>
  <outline>
    <contour>
      <point x="72" y="338" type="line" smooth="yes"/>
      <point x="57" y="338"/>
      <point x="48" y="341"/>
      <point x="48" y="384" type="curve" smooth="yes"/>
      <point x="48" y="425" type="line" smooth="yes"/>
      <point x="48" y="468"/>
      <point x="57" y="470"/>
      <point x="72" y="470" type="curve" smooth="yes"/>
      <point x="488" y="470" type="line" smooth="yes"/>
      <point x="503" y="470"/>
      <point x="512" y="468"/>
      <point x="512" y="425" type="curve" smooth="yes"/>
      <point x="512" y="384" type="line" smooth="yes"/>
      <point x="512" y="341"/>
      <point x="503" y="338"/>
      <point x="488" y="338" type="curve" smooth="yes"/>
    </contour>
    <contour>
      <point x="72" y="617" type="line" smooth="yes"/>
      <point x="57" y="617"/>
      <point x="48" y="620"/>
      <point x="48" y="663" type="curve" smooth="yes"/>
      <point x="48" y="704" type="line" smooth="yes"/>
      <point x="48" y="747"/>
      <point x="57" y="750"/>
      <point x="72" y="750" type="curve" smooth="yes"/>
      <point x="488" y="750" type="line" smooth="yes"/>
      <point x="503" y="750"/>
      <point x="512" y="747"/>
      <point x="512" y="704" type="curve" smooth="yes"/>
      <point x="512" y="663" type="line" smooth="yes"/>
      <point x="512" y="620"/>
      <point x="503" y="617"/>
      <point x="488" y="617" type="curve" smooth="yes"/>
    </contour>
  </outline>
</glyph>
<glyph name="greater" format="1">
  <advance width="1073"/>
  <unicode hex="003E"/>
  <outline>
    <contour>
      <point x="187" y="145" type="curve" smooth="yes"/>
      <point x="167" y="145"/>
      <point x="154" y="164"/>
      <point x="154" y="189" type="curve" smooth="yes"/>
      <point x="154" y="244" type="line" smooth="yes"/>
      <point x="154" y="291"/>
      <point x="173" y="308"/>
      <point x="201" y="340" type="curve"/>
      <point x="426" y="619" type="line" smooth="yes"/>
      <point x="432" y="626"/>
      <point x="434" y="632"/>
      <point x="434" y="638" type="curve" smooth="yes"/>
      <point x="434" y="644"/>
      <point x="431" y="650"/>
      <point x="425" y="655" type="curve"/>
      <point x="202" y="925" type="line"/>
      <point x="173" y="957"/>
      <point x="154" y="971"/>
      <point x="154" y="1017" type="curve" smooth="yes"/>
      <point x="154" y="1081" type="line" smooth="yes"/>
      <point x="154" y="1104"/>
      <point x="167" y="1122"/>
      <point x="187" y="1122" type="curve" smooth="yes"/>
      <point x="194" y="1122"/>
      <point x="203" y="1117"/>
      <point x="212" y="1110" type="curve"/>
      <point x="503" y="768" type="line"/>
      <point x="537" y="730"/>
      <point x="559" y="708"/>
      <point x="559" y="662" type="curve" smooth="yes"/>
      <point x="559" y="613" type="line" smooth="yes"/>
      <point x="559" y="567"/>
      <point x="536" y="545"/>
      <point x="502" y="506" type="curve"/>
      <point x="213" y="156" type="line"/>
      <point x="204" y="149"/>
      <point x="195" y="145"/>
    </contour>
  </outline>
</glyph>
<glyph name="question" format="1">
  <advance width="772"/>
  <unicode hex="003F"/>
  <outline>
    <contour>
      <point x="271" y="520" type="curve"/>
      <point x="257" y="546"/>
      <point x="243" y="563"/>
      <point x="240" y="594" type="curve"/>
      <point x="234" y="611"/>
      <point x="242" y="632"/>
      <point x="250" y="641" type="curve"/>
      <point x="298" y="735"/>
      <point x="332" y="765"/>
      <point x="422" y="827" type="curve" smooth="yes"/>
      <point x="505" y="883"/>
      <point x="548" y="969"/>
      <point x="548" y="1070" type="curve"/>
      <point x="544" y="1218"/>
      <point x="458" y="1293"/>
      <point x="362" y="1293" type="curve" smooth="yes"/>
      <point x="275" y="1293"/>
      <point x="206" y="1264"/>
      <point x="141" y="1218" type="curve"/>
      <point x="125" y="1208"/>
      <point x="116" y="1221"/>
      <point x="108" y="1247" type="curve"/>
      <point x="101" y="1247"/>
      <point x="82" y="1318"/>
      <point x="82" y="1329" type="curve" smooth="yes"/>
      <point x="82" y="1350"/>
      <point x="91" y="1370"/>
      <point x="106" y="1379" type="curve"/>
      <point x="170" y="1425"/>
      <point x="274" y="1465"/>
      <point x="365" y="1465" type="curve" smooth="yes"/>
      <point x="538" y="1465"/>
      <point x="700" y="1366"/>
      <point x="708" y="1073" type="curve"/>
      <point x="708" y="876"/>
      <point x="567" y="748"/>
      <point x="444" y="674" type="curve" smooth="yes"/>
      <point x="380" y="635"/>
      <point x="344" y="580"/>
      <point x="316" y="525" type="curve" smooth="yes"/>
      <point x="313" y="521"/>
      <point x="302" y="509"/>
      <point x="290" y="509" type="curve" smooth="yes"/>
      <point x="284" y="509"/>
      <point x="277" y="512"/>
    </contour>
    <contour>
      <point x="257" y="0" type="line" smooth="yes"/>
      <point x="229" y="0"/>
      <point x="209" y="24"/>
      <point x="209" y="65" type="curve" smooth="yes"/>
      <point x="209" y="176" type="line" smooth="yes"/>
      <point x="209" y="217"/>
      <point x="229" y="241"/>
      <point x="257" y="241" type="curve" smooth="yes"/>
      <point x="362" y="241" type="line" smooth="yes"/>
      <point x="390" y="241"/>
      <point x="410" y="217"/>
      <point x="410" y="176" type="curve" smooth="yes"/>
      <point x="410" y="65" type="line" smooth="yes"/>
      <point x="410" y="24"/>
      <point x="390" y="0"/>
      <point x="362" y="0" type="curve" smooth="yes"/>
    </contour>
  </outline>
</glyph>
<glyph name="at" format="1">
  <advance width="1381"/>
  <unicode hex="0040"/>
  <outline>
    <contour>
      <point x="721" y="-157" type="curve" smooth="yes"/>
      <point x="296" y="-157"/>
      <point x="88" y="219"/>
      <point x="88" y="668" type="curve" smooth="yes"/>
      <point x="88" y="1126"/>
      <point x="286" y="1504"/>
      <point x="707" y="1504" type="curve" smooth="yes"/>
      <point x="1147" y="1504"/>
      <point x="1309" y="1149"/>
      <point x="1310" y="705" type="curve" smooth="yes"/>
      <point x="1310" y="363"/>
      <point x="1200" y="230"/>
      <point x="1097" y="230" type="curve" smooth="yes"/>
      <point x="1008" y="230"/>
      <point x="954" y="302"/>
      <point x="946" y="413" type="curve" smooth="yes"/>
      <point x="944" y="433"/>
      <point x="941" y="450"/>
      <point x="935" y="450" type="curve" smooth="yes"/>
      <point x="930" y="450"/>
      <point x="926" y="432"/>
      <point x="924" y="423" type="curve" smooth="yes"/>
      <point x="884" y="292"/>
      <point x="819" y="207"/>
      <point x="679" y="207" type="curve" smooth="yes"/>
      <point x="514" y="207"/>
      <point x="387" y="359"/>
      <point x="387" y="661" type="curve" smooth="yes"/>
      <point x="387" y="951"/>
      <point x="506" y="1105"/>
      <point x="670" y="1105" type="curve" smooth="yes"/>
      <point x="803" y="1105"/>
      <point x="878" y="1013"/>
      <point x="914" y="883" type="curve" smooth="yes"/>
      <point x="916" y="875"/>
      <point x="920" y="868"/>
      <point x="922" y="868" type="curve" smooth="yes"/>
      <point x="924" y="868"/>
      <point x="926" y="873"/>
      <point x="926" y="880" type="curve" smooth="yes"/>
      <point x="938" y="1011" type="line"/>
      <point x="943" y="1047"/>
      <point x="958" y="1060"/>
      <point x="981" y="1060" type="curve" smooth="yes"/>
      <point x="989" y="1060" type="line" smooth="yes"/>
      <point x="1010" y="1060"/>
      <point x="1024" y="1036"/>
      <point x="1024" y="1003" type="curve" smooth="yes"/>
      <point x="1024" y="487" type="line" smooth="yes"/>
      <point x="1024" y="361"/>
      <point x="1054" y="331"/>
      <point x="1095" y="331" type="curve" smooth="yes"/>
      <point x="1138" y="331"/>
      <point x="1189" y="405"/>
      <point x="1189" y="705" type="curve" smooth="yes"/>
      <point x="1189" y="1090"/>
      <point x="1065" y="1386"/>
      <point x="710" y="1386" type="curve" smooth="yes"/>
      <point x="362" y="1386"/>
      <point x="218" y="1031"/>
      <point x="218" y="664" type="curve" smooth="yes"/>
      <point x="218" y="311"/>
      <point x="344" y="-45"/>
      <point x="730" y="-45" type="curve" smooth="yes"/>
      <point x="813" y="-45"/>
      <point x="911" y="-15"/>
      <point x="974" y="15" type="curve" smooth="yes"/>
      <point x="975" y="15"/>
      <point x="976" y="16"/>
      <point x="977" y="16" type="curve" smooth="yes"/>
      <point x="994" y="16"/>
      <point x="1019" y="-37"/>
      <point x="1019" y="-67" type="curve" smooth="yes"/>
      <point x="1019" y="-76"/>
      <point x="1016" y="-83"/>
      <point x="1011" y="-86" type="curve" smooth="yes"/>
      <point x="940" y="-126"/>
      <point x="823" y="-157"/>
    </contour>
    <contour>
      <point x="697" y="327" type="curve" smooth="yes"/>
      <point x="807" y="327"/>
      <point x="888" y="432"/>
      <point x="888" y="652" type="curve" smooth="yes"/>
      <point x="888" y="864"/>
      <point x="808" y="977"/>
      <point x="698" y="977" type="curve" smooth="yes"/>
      <point x="568" y="977"/>
      <point x="515" y="839"/>
      <point x="515" y="652" type="curve" smooth="yes"/>
      <point x="515" y="460"/>
      <point x="574" y="327"/>
    </contour>
  </outline>
</glyph>
<glyph name="A" format="1">
  <advance width="822"/>
  <unicode hex="0041"/>
  <outline>
    <contour>
      <point x="68" y="0" type="line" smooth="yes"/>
      <point x="59" y="0"/>
      <point x="53" y="5"/>
      <point x="53" y="29" type="curve" smooth="yes"/>
      <point x="53" y="46" type="line" smooth="yes"/>
      <point x="53" y="52"/>
      <point x="53" y="59"/>
      <point x="54" y="63" type="curve" smooth="yes"/>
      <point x="279" y="1388" type="line" smooth="yes"/>
      <point x="286" y="1429"/>
      <point x="300" y="1437"/>
      <point x="316" y="1438" type="curve"/>
      <point x="519" y="1438" type="line"/>
      <point x="535" y="1437"/>
      <point x="548" y="1429"/>
      <point x="555" y="1388" type="curve" smooth="yes"/>
      <point x="776" y="63" type="line" smooth="yes"/>
      <point x="777" y="54"/>
      <point x="780" y="36"/>
      <point x="780" y="28" type="curve" smooth="yes"/>
      <point x="780" y="5"/>
      <point x="773" y="0"/>
      <point x="763" y="0" type="curve" smooth="yes"/>
      <point x="598" y="0" type="line" smooth="yes"/>
      <point x="585" y="0"/>
      <point x="573" y="5"/>
      <point x="567" y="41" type="curve" smooth="yes"/>
      <point x="530" y="296" type="line" smooth="yes"/>
      <point x="528" y="309"/>
      <point x="526" y="318"/>
      <point x="519" y="318" type="curve" smooth="yes"/>
      <point x="277" y="318" type="line" smooth="yes"/>
      <point x="270" y="318"/>
      <point x="268" y="308"/>
      <point x="266" y="295" type="curve" smooth="yes"/>
      <point x="224" y="42" type="line" smooth="yes"/>
      <point x="219" y="6"/>
      <point x="210" y="0"/>
      <point x="196" y="0" type="curve" smooth="yes"/>
    </contour>
    <contour>
      <point x="306" y="443" type="curve" smooth="yes"/>
      <point x="510" y="443" type="line" smooth="yes"/>
      <point x="515" y="443"/>
      <point x="517" y="452"/>
      <point x="517" y="461" type="curve" smooth="yes"/>
      <point x="517" y="464"/>
      <point x="517" y="467"/>
      <point x="515" y="470" type="curve"/>
      <point x="416" y="1241" type="line" smooth="yes"/>
      <point x="415" y="1246"/>
      <point x="414" y="1248"/>
      <point x="413" y="1248" type="curve" smooth="yes"/>
      <point x="411" y="1248"/>
      <point x="410" y="1246"/>
      <point x="409" y="1242" type="curve" smooth="yes"/>
      <point x="292" y="471" type="line" smooth="yes"/>
      <point x="291.382" y="466.925"/>
      <point x="291" y="464"/>
      <point x="291" y="462" type="curve" smooth="yes"/>
      <point x="291" y="453"/>
      <point x="294" y="443"/>
    </contour>
  </outline>
</glyph>
<glyph name="B" format="1">
  <advance width="896"/>
  <unicode hex="0042"/>
  <outline>
    <contour>
      <point x="143" y="0" type="line" smooth="yes"/>
      <point x="127" y="0"/>
      <point x="116" y="3"/>
      <point x="116" y="44" type="curve" smooth="yes"/>
      <point x="116" y="1393" type="line" smooth="yes"/>
      <point x="116" y="1435"/>
      <point x="127" y="1438"/>
      <point x="143" y="1438" type="curve" smooth="yes"/>
      <point x="509" y="1438" type="line" smooth="yes"/>
      <point x="672" y="1438"/>
      <point x="794" y="1340"/>
      <point x="794" y="1041" type="curve" smooth="yes"/>
      <point x="794" y="930"/>
      <point x="771" y="837"/>
      <point x="705" y="782" type="curve" smooth="yes"/>
      <point x="701" y="778"/>
      <point x="696" y="773"/>
      <point x="696" y="770" type="curve" smooth="yes"/>
      <point x="696" y="765"/>
      <point x="702" y="761"/>
      <point x="706" y="757" type="curve" smooth="yes"/>
      <point x="789" y="698"/>
      <point x="831" y="590"/>
      <point x="831" y="424" type="curve" smooth="yes"/>
      <point x="831" y="96"/>
      <point x="692" y="0"/>
      <point x="490" y="0" type="curve" smooth="yes"/>
    </contour>
    <contour>
      <point x="327" y="150" type="curve" smooth="yes"/>
      <point x="454" y="150" type="line" smooth="yes"/>
      <point x="572" y="150"/>
      <point x="639" y="257"/>
      <point x="639" y="425" type="curve" smooth="yes"/>
      <point x="639" y="576"/>
      <point x="576" y="684"/>
      <point x="486" y="684" type="curve" smooth="yes"/>
      <point x="327" y="684" type="line" smooth="yes"/>
      <point x="319" y="684"/>
      <point x="313" y="680"/>
      <point x="313" y="660" type="curve" smooth="yes"/>
      <point x="313" y="170" type="line" smooth="yes"/>
      <point x="313" y="152"/>
      <point x="319" y="150"/>
    </contour>
    <contour>
      <point x="327" y="833" type="curve" smooth="yes"/>
      <point x="493" y="833" type="line" smooth="yes"/>
      <point x="565" y="833"/>
      <point x="614" y="910"/>
      <point x="614" y="1035" type="curve" smooth="yes"/>
      <point x="614" y="1203"/>
      <point x="550" y="1282"/>
      <point x="455" y="1282" type="curve" smooth="yes"/>
      <point x="327" y="1282" type="line" smooth="yes"/>
      <point x="319" y="1282"/>
      <point x="313" y="1280"/>
      <point x="313" y="1260" type="curve" smooth="yes"/>
      <point x="313" y="853" type="line" smooth="yes"/>
      <point x="313" y="835"/>
      <point x="319" y="833"/>
    </contour>
  </outline>
</glyph>
<glyph name="C" format="1">
  <advance width="717"/>
  <unicode hex="0043"/>
  <outline>
    <contour>
      <point x="494" y="-15" type="curve" smooth="yes"/>
      <point x="280" y="-15"/>
      <point x="87" y="44"/>
      <point x="87" y="720" type="curve" smooth="yes"/>
      <point x="87" y="1382"/>
      <point x="287" y="1454"/>
      <point x="499" y="1454" type="curve" smooth="yes"/>
      <point x="555" y="1454"/>
      <point x="618" y="1442"/>
      <point x="652" y="1426" type="curve"/>
      <point x="655" y="1422"/>
      <point x="662" y="1421"/>
      <point x="662" y="1407" type="curve" smooth="yes"/>
      <point x="662" y="1286" type="line" smooth="yes"/>
      <point x="662" y="1273"/>
      <point x="659" y="1272"/>
      <point x="655" y="1272" type="curve" smooth="yes"/>
      <point x="652" y="1272"/>
      <point x="597" y="1292"/>
      <point x="534" y="1292" type="curve" smooth="yes"/>
      <point x="395" y="1292"/>
      <point x="285" y="1228"/>
      <point x="285" y="720" type="curve" smooth="yes"/>
      <point x="285" y="206"/>
      <point x="377" y="146"/>
      <point x="520" y="146" type="curve" smooth="yes"/>
      <point x="570" y="146"/>
      <point x="611" y="153"/>
      <point x="646" y="165" type="curve" smooth="yes"/>
      <point x="647" y="165"/>
      <point x="654" y="145"/>
      <point x="654" y="144" type="curve" smooth="yes"/>
      <point x="654" y="29" type="line" smooth="yes"/>
      <point x="654" y="28"/>
      <point x="647" y="9"/>
      <point x="646" y="8" type="curve" smooth="yes"/>
      <point x="606" y="-7"/>
      <point x="546" y="-15"/>
    </contour>
  </outline>
</glyph>
<glyph name="E" format="1">
  <advance width="752"/>
  <unicode hex="0045"/>
  <outline>
    <contour>
      <point x="141" y="0" type="line" smooth="yes"/>
      <point x="126" y="0"/>
      <point x="116" y="3"/>
      <point x="116" y="42" type="curve" smooth="yes"/>
      <point x="116" y="1396" type="line" smooth="yes"/>
      <point x="116" y="1434"/>
      <point x="126" y="1438"/>
      <point x="141" y="1438" type="curve" smooth="yes"/>
      <point x="667" y="1438" type="line" smooth="yes"/>
      <point x="681" y="1438"/>
      <point x="692" y="1435"/>
      <point x="692" y="1398" type="curve" smooth="yes"/>
      <point x="692" y="1319" type="line" smooth="yes"/>
      <point x="692" y="1282"/>
      <point x="681" y="1279"/>
      <point x="667" y="1279" type="curve" smooth="yes"/>
      <point x="325" y="1279" type="line" smooth="yes"/>
      <point x="318" y="1279"/>
      <point x="313" y="1266"/>
      <point x="313" y="1246" type="curve" smooth="yes"/>
      <point x="313" y="842" type="line" smooth="yes"/>
      <point x="313" y="829"/>
      <point x="319" y="815"/>
      <point x="323" y="815" type="curve" smooth="yes"/>
      <point x="598" y="815" type="line" smooth="yes"/>
      <point x="613" y="815"/>
      <point x="623" y="806"/>
      <point x="623" y="769" type="curve" smooth="yes"/>
      <point x="623" y="692" type="line" smooth="yes"/>
      <point x="623" y="655"/>
      <point x="613" y="646"/>
      <point x="598" y="646" type="curve" smooth="yes"/>
      <point x="324" y="646" type="line" smooth="yes"/>
      <point x="319" y="646"/>
      <point x="313" y="629"/>
      <point x="313" y="616" type="curve" smooth="yes"/>
      <point x="313" y="159" type="line"/>
      <point x="670" y="159" type="line" smooth="yes"/>
      <point x="685" y="159"/>
      <point x="696" y="156"/>
      <point x="696" y="119" type="curve" smooth="yes"/>
      <point x="696" y="40" type="line" smooth="yes"/>
      <point x="696" y="3"/>
      <point x="685" y="0"/>
      <point x="670" y="0" type="curve" smooth="yes"/>
    </contour>
  </outline>
</glyph>
<glyph name="F" format="1">
  <advance width="684"/>
  <unicode hex="0046"/>
  <outline>
    <contour>
      <point x="141" y="0" type="line" smooth="yes"/>
      <point x="126" y="0"/>
      <point x="116" y="3"/>
      <point x="116" y="42" type="curve" smooth="yes"/>
      <point x="116" y="1396" type="line" smooth="yes"/>
      <point x="116" y="1433"/>
      <point x="126" y="1438"/>
      <point x="141" y="1438" type="curve" smooth="yes"/>
      <point x="632" y="1438" type="line" smooth="yes"/>
      <point x="647" y="1438"/>
      <point x="657" y="1435"/>
      <point x="657" y="1398" type="curve" smooth="yes"/>
      <point x="657" y="1319" type="line" smooth="yes"/>
      <point x="657" y="1282"/>
      <point x="647" y="1279"/>
      <point x="632" y="1279" type="curve" smooth="yes"/>
      <point x="325" y="1279" type="line" smooth="yes"/>
      <point x="318" y="1279"/>
      <point x="313" y="1273"/>
      <point x="313" y="1253" type="curve" smooth="yes"/>
      <point x="313" y="812" type="line" smooth="yes"/>
      <point x="313" y="799"/>
      <point x="319" y="792"/>
      <point x="323" y="792" type="curve" smooth="yes"/>
      <point x="573" y="792" type="line" smooth="yes"/>
      <point x="588" y="792"/>
      <point x="598" y="789"/>
      <point x="598" y="753" type="curve" smooth="yes"/>
      <point x="598" y="663" type="line" smooth="yes"/>
      <point x="598" y="626"/>
      <point x="588" y="623"/>
      <point x="573" y="623" type="curve" smooth="yes"/>
      <point x="324" y="623" type="line" smooth="yes"/>
      <point x="319" y="623"/>
      <point x="313" y="611"/>
      <point x="313" y="598" type="curve" smooth="yes"/>
      <point x="313" y="42" type="line" smooth="yes"/>
      <point x="313" y="3"/>
      <point x="303" y="0"/>
      <point x="288" y="0" type="curve" smooth="yes"/>
    </contour>
  </outline>
</glyph>
<glyph name="G" format="1">
  <advance width="902"/>
  <unicode hex="0047"/>
  <outline>
    <contour>
      <point x="792" y="-16" type="curve" smooth="yes"/>
      <point x="777" y="-16"/>
      <point x="752" y="-6"/>
      <point x="742" y="47" type="curve" smooth="yes"/>
      <point x="741" y="57"/>
      <point x="714" y="195"/>
      <point x="714" y="214" type="curve" smooth="yes"/>
      <point x="714" y="220"/>
      <point x="712" y="224"/>
      <point x="711" y="224" type="curve" smooth="yes"/>
      <point x="709" y="224"/>
      <point x="707" y="222"/>
      <point x="705" y="215" type="curve" smooth="yes"/>
      <point x="683" y="66"/>
      <point x="607" y="-15"/>
      <point x="482" y="-15" type="curve" smooth="yes"/>
      <point x="291" y="-15"/>
      <point x="92" y="65"/>
      <point x="92" y="720" type="curve" smooth="yes"/>
      <point x="92" y="1398"/>
      <point x="331" y="1454"/>
      <point x="564" y="1454" type="curve" smooth="yes"/>
      <point x="625" y="1454"/>
      <point x="700" y="1434"/>
      <point x="734" y="1419" type="curve"/>
      <point x="738" y="1415"/>
      <point x="746" y="1415"/>
      <point x="746" y="1400" type="curve" smooth="yes"/>
      <point x="746" y="1277" type="line" smooth="yes"/>
      <point x="746" y="1264"/>
      <point x="742" y="1263"/>
      <point x="738" y="1263" type="curve" smooth="yes"/>
      <point x="735" y="1263"/>
      <point x="642" y="1292"/>
      <point x="575" y="1292" type="curve" smooth="yes"/>
      <point x="416" y="1292"/>
      <point x="290" y="1227"/>
      <point x="290" y="720" type="curve" smooth="yes"/>
      <point x="290" y="242"/>
      <point x="383" y="144"/>
      <point x="503" y="144" type="curve" smooth="yes"/>
      <point x="630" y="144"/>
      <point x="652" y="300"/>
      <point x="652" y="544" type="curve" smooth="yes"/>
      <point x="652" y="577"/>
      <point x="648" y="589"/>
      <point x="643" y="589" type="curve" smooth="yes"/>
      <point x="530" y="589" type="line" smooth="yes"/>
      <point x="515" y="589"/>
      <point x="501" y="593"/>
      <point x="501" y="632" type="curve" smooth="yes"/>
      <point x="501" y="714" type="line" smooth="yes"/>
      <point x="501" y="753"/>
      <point x="514" y="758"/>
      <point x="529" y="758" type="curve" smooth="yes"/>
      <point x="798" y="758" type="line" smooth="yes"/>
      <point x="812" y="758"/>
      <point x="824" y="739"/>
      <point x="824" y="696" type="curve" smooth="yes"/>
      <point x="824" y="51" type="line" smooth="yes"/>
      <point x="824" y="8"/>
      <point x="807" y="-16"/>
    </contour>
  </outline>
</glyph>
<glyph name="H" format="1">
  <advance width="947"/>
  <unicode hex="0048"/>
  <outline>
    <contour>
      <point x="142" y="0" type="line" smooth="yes"/>
      <point x="126" y="0"/>
      <point x="116" y="4"/>
      <point x="116" y="47" type="curve" smooth="yes"/>
      <point x="116" y="1391" type="line" smooth="yes"/>
      <point x="116" y="1434"/>
      <point x="126" y="1438"/>
      <point x="142" y="1438" type="curve" smooth="yes"/>
      <point x="287" y="1438" type="line" smooth="yes"/>
      <point x="303" y="1438"/>
      <point x="313" y="1434"/>
      <point x="313" y="1391" type="curve" smooth="yes"/>
      <point x="313" y="859" type="line" smooth="yes"/>
      <point x="313" y="846"/>
      <point x="319" y="836"/>
      <point x="323" y="836" type="curve" smooth="yes"/>
      <point x="623" y="836" type="line" smooth="yes"/>
      <point x="627" y="836"/>
      <point x="634" y="847"/>
      <point x="634" y="860" type="curve" smooth="yes"/>
      <point x="634" y="1391" type="line" smooth="yes"/>
      <point x="634" y="1434"/>
      <point x="645" y="1438"/>
      <point x="660" y="1438" type="curve" smooth="yes"/>
      <point x="807" y="1438" type="line" smooth="yes"/>
      <point x="822" y="1438"/>
      <point x="832" y="1434"/>
      <point x="832" y="1391" type="curve" smooth="yes"/>
      <point x="832" y="47" type="line" smooth="yes"/>
      <point x="832" y="4"/>
      <point x="822" y="0"/>
      <point x="807" y="0" type="curve" smooth="yes"/>
      <point x="660" y="0" type="line" smooth="yes"/>
      <point x="645" y="0"/>
      <point x="633" y="4"/>
      <point x="633" y="47" type="curve" smooth="yes"/>
      <point x="633" y="658" type="line" smooth="yes"/>
      <point x="633" y="671"/>
      <point x="627" y="679"/>
      <point x="622" y="679" type="curve" smooth="yes"/>
      <point x="325" y="679" type="line" smooth="yes"/>
      <point x="320" y="679"/>
      <point x="315" y="671"/>
      <point x="315" y="658" type="curve" smooth="yes"/>
      <point x="315" y="47" type="line" smooth="yes"/>
      <point x="315" y="4"/>
      <point x="304" y="0"/>
      <point x="289" y="0" type="curve" smooth="yes"/>
    </contour>
  </outline>
</glyph>
<glyph name="I" format="1">
  <advance width="430"/>
  <unicode hex="0049"/>
  <outline>
    <contour>
      <point x="143" y="0" type="line" smooth="yes"/>
      <point x="128" y="0"/>
      <point x="117" y="4"/>
      <point x="117" y="47" type="curve" smooth="yes"/>
      <point x="117" y="1391" type="line" smooth="yes"/>
      <point x="117" y="1434"/>
      <point x="128" y="1438"/>
      <point x="143" y="1438" type="curve" smooth="yes"/>
      <point x="290" y="1438" type="line" smooth="yes"/>
      <point x="304" y="1438"/>
      <point x="315" y="1434"/>
      <point x="315" y="1391" type="curve" smooth="yes"/>
      <point x="315" y="47" type="line" smooth="yes"/>
      <point x="315" y="4"/>
      <point x="304" y="0"/>
      <point x="290" y="0" type="curve" smooth="yes"/>
    </contour>
  </outline>
</glyph>
<glyph name="J" format="1">
  <advance width="534"/>
  <unicode hex="004A"/>
  <outline>
    <contour>
      <point x="63" y="-155" type="curve" smooth="yes"/>
      <point x="56" y="-155"/>
      <point x="50" y="-145"/>
      <point x="50" y="-124" type="curve" smooth="yes"/>
      <point x="50" y="5" type="line" smooth="yes"/>
      <point x="50" y="27"/>
      <point x="56" y="38"/>
      <point x="63" y="39" type="curve" smooth="yes"/>
      <point x="171" y="45"/>
      <point x="218" y="51"/>
      <point x="218" y="464" type="curve" smooth="yes"/>
      <point x="218" y="1395" type="line" smooth="yes"/>
      <point x="218" y="1423"/>
      <point x="224" y="1438"/>
      <point x="234" y="1438" type="curve" smooth="yes"/>
      <point x="399" y="1438" type="line" smooth="yes"/>
      <point x="408" y="1438"/>
      <point x="416" y="1423"/>
      <point x="416" y="1395" type="curve" smooth="yes"/>
      <point x="416" y="412" type="line" smooth="yes"/>
      <point x="416" y="-138"/>
      <point x="251" y="-155"/>
    </contour>
  </outline>
</glyph>
<glyph name="K" format="1">
  <advance width="814"/>
  <unicode hex="004B"/>
  <outline>
    <contour>
      <point x="141" y="0" type="line" smooth="yes"/>
      <point x="126" y="0"/>
      <point x="116" y="11"/>
      <point x="116" y="54" type="curve" smooth="yes"/>
      <point x="116" y="1384" type="line" smooth="yes"/>
      <point x="116" y="1427"/>
      <point x="126" y="1438"/>
      <point x="141" y="1438" type="curve" smooth="yes"/>
      <point x="287" y="1438" type="line" smooth="yes"/>
      <point x="302" y="1438"/>
      <point x="313" y="1427"/>
      <point x="313" y="1384" type="curve" smooth="yes"/>
      <point x="313" y="725" type="line"/>
      <point x="558" y="1387" type="line" smooth="yes"/>
      <point x="570" y="1421"/>
      <point x="584" y="1438"/>
      <point x="601" y="1438" type="curve" smooth="yes"/>
      <point x="749" y="1438" type="line" smooth="yes"/>
      <point x="764" y="1438"/>
      <point x="770" y="1428"/>
      <point x="770" y="1415" type="curve" smooth="yes"/>
      <point x="770" y="1406"/>
      <point x="768" y="1396"/>
      <point x="764" y="1386" type="curve" smooth="yes"/>
      <point x="522" y="770" type="line" smooth="yes"/>
      <point x="520" y="763"/>
      <point x="515" y="751"/>
      <point x="515" y="733" type="curve" smooth="yes"/>
      <point x="515" y="725"/>
      <point x="516" y="716"/>
      <point x="519" y="705" type="curve"/>
      <point x="777" y="55" type="line" smooth="yes"/>
      <point x="782" y="42"/>
      <point x="784" y="32"/>
      <point x="784" y="23" type="curve" smooth="yes"/>
      <point x="784" y="9"/>
      <point x="778" y="0"/>
      <point x="771" y="0" type="curve" smooth="yes"/>
      <point x="625" y="0" type="line" smooth="yes"/>
      <point x="608" y="0"/>
      <point x="594" y="10"/>
      <point x="578" y="52" type="curve"/>
      <point x="314" y="678" type="line"/>
      <point x="314" y="52" type="line" smooth="yes"/>
      <point x="314" y="9"/>
      <point x="302" y="0"/>
      <point x="287" y="0" type="curve" smooth="yes"/>
    </contour>
  </outline>
</glyph>
<glyph name="L" format="1">
  <advance width="652"/>
  <unicode hex="004C"/>
  <outline>
    <contour>
      <point x="141" y="0" type="line" smooth="yes"/>
      <point x="126" y="0"/>
      <point x="116" y="4"/>
      <point x="116" y="47" type="curve" smooth="yes"/>
      <point x="116" y="1391" type="line" smooth="yes"/>
      <point x="116" y="1434"/>
      <point x="126" y="1438"/>
      <point x="141" y="1438" type="curve" smooth="yes"/>
      <point x="288" y="1438" type="line" smooth="yes"/>
      <point x="303" y="1438"/>
      <point x="313" y="1434"/>
      <point x="313" y="1391" type="curve" smooth="yes"/>
      <point x="313" y="181" type="line" smooth="yes"/>
      <point x="313" y="161"/>
      <point x="319" y="159"/>
      <point x="327" y="159" type="curve" smooth="yes"/>
      <point x="587" y="159" type="line" smooth="yes"/>
      <point x="601" y="159"/>
      <point x="612" y="156"/>
      <point x="612" y="120" type="curve" smooth="yes"/>
      <point x="612" y="40" type="line" smooth="yes"/>
      <point x="612" y="3"/>
      <point x="601" y="0"/>
      <point x="587" y="0" type="curve" smooth="yes"/>
    </contour>
  </outline>
</glyph>
<glyph name="M" format="1">
  <advance width="1082"/>
  <unicode hex="004D"/>
  <outline>
    <contour>
      <point x="121" y="0" type="line" smooth="yes"/>
      <point x="108" y="0"/>
      <point x="97" y="10"/>
      <point x="97" y="49" type="curve" smooth="yes"/>
      <point x="97" y="54" type="line"/>
      <point x="142" y="1381" type="line" smooth="yes"/>
      <point x="143" y="1424"/>
      <point x="152" y="1437"/>
      <point x="167" y="1438" type="curve"/>
      <point x="325" y="1438" type="line"/>
      <point x="341" y="1437"/>
      <point x="357.654" y="1432.12"/>
      <point x="365" y="1391" type="curve" smooth="yes"/>
      <point x="534" y="445" type="line" smooth="yes"/>
      <point x="536" y="436"/>
      <point x="544" y="436"/>
      <point x="545" y="445" type="curve" smooth="yes"/>
      <point x="715" y="1388" type="line" smooth="yes"/>
      <point x="722.237" y="1428.14"/>
      <point x="738" y="1437"/>
      <point x="754" y="1438" type="curve"/>
      <point x="914" y="1438" type="line"/>
      <point x="928" y="1437"/>
      <point x="938" y="1424"/>
      <point x="938" y="1381" type="curve"/>
      <point x="985" y="54" type="line" smooth="yes"/>
      <point x="985" y="48" type="line" smooth="yes"/>
      <point x="985" y="10"/>
      <point x="975" y="0"/>
      <point x="960" y="0" type="curve" smooth="yes"/>
      <point x="850" y="0" type="line" smooth="yes"/>
      <point x="835" y="0"/>
      <point x="825.298" y="11.0088"/>
      <point x="824" y="54" type="curve" smooth="yes"/>
      <point x="793" y="1081" type="line" smooth="yes"/>
      <point x="793" y="1088"/>
      <point x="788" y="1091"/>
      <point x="786" y="1085" type="curve" smooth="yes"/>
      <point x="604" y="48" type="line" smooth="yes"/>
      <point x="597.49" y="10.9111"/>
      <point x="584" y="0"/>
      <point x="570" y="0" type="curve" smooth="yes"/>
      <point x="505" y="0" type="line" smooth="yes"/>
      <point x="492" y="0"/>
      <point x="479" y="11"/>
      <point x="471" y="48" type="curve"/>
      <point x="294" y="1080" type="line" smooth="yes"/>
      <point x="293" y="1086"/>
      <point x="289" y="1082"/>
      <point x="289" y="1076" type="curve" smooth="yes"/>
      <point x="257" y="54" type="line"/>
      <point x="257" y="11"/>
      <point x="248" y="0"/>
      <point x="234" y="0" type="curve" smooth="yes"/>
    </contour>
  </outline>
</glyph>
<glyph name="N" format="1">
  <advance width="962"/>
  <unicode hex="004E"/>
  <outline>
    <contour>
      <point x="142" y="0" type="line" smooth="yes"/>
      <point x="126" y="0"/>
      <point x="116" y="7"/>
      <point x="116" y="50" type="curve" smooth="yes"/>
      <point x="116" y="1385" type="line" smooth="yes"/>
      <point x="116" y="1428"/>
      <point x="126" y="1438"/>
      <point x="142" y="1438" type="curve" smooth="yes"/>
      <point x="294" y="1438" type="line" smooth="yes"/>
      <point x="307" y="1438"/>
      <point x="321" y="1423"/>
      <point x="330" y="1399" type="curve" smooth="yes"/>
      <point x="669" y="488" type="line" smooth="yes"/>
      <point x="671" y="482"/>
      <point x="676" y="491"/>
      <point x="676" y="501" type="curve" smooth="yes"/>
      <point x="676" y="1385" type="line" smooth="yes"/>
      <point x="676" y="1428"/>
      <point x="688" y="1438"/>
      <point x="703" y="1438" type="curve" smooth="yes"/>
      <point x="822" y="1438" type="line" smooth="yes"/>
      <point x="837" y="1438"/>
      <point x="847" y="1428"/>
      <point x="847" y="1385" type="curve" smooth="yes"/>
      <point x="847" y="46" type="line" smooth="yes"/>
      <point x="847" y="3"/>
      <point x="837" y="-1"/>
      <point x="822" y="-1" type="curve" smooth="yes"/>
      <point x="714" y="-1" type="line" smooth="yes"/>
      <point x="701" y="-1"/>
      <point x="683" y="16"/>
      <point x="674" y="41" type="curve" smooth="yes"/>
      <point x="297" y="1025" type="line" smooth="yes"/>
      <point x="294" y="1031"/>
      <point x="290" y="1023"/>
      <point x="290" y="1013" type="curve" smooth="yes"/>
      <point x="290" y="50" type="line" smooth="yes"/>
      <point x="290" y="7"/>
      <point x="279" y="0"/>
      <point x="263" y="0" type="curve" smooth="yes"/>
    </contour>
  </outline>
</glyph>
<glyph name="O" format="1">
  <advance width="924"/>
  <unicode hex="004F"/>
  <outline>
    <contour>
      <point x="461" y="143" type="curve" smooth="yes"/>
      <point x="596" y="143"/>
      <point x="639" y="252"/>
      <point x="639" y="726" type="curve" smooth="yes"/>
      <point x="639" y="1179"/>
      <point x="601" y="1292"/>
      <point x="462" y="1292" type="curve" smooth="yes"/>
      <point x="325" y="1292"/>
      <point x="285" y="1172"/>
      <point x="285" y="726" type="curve" smooth="yes"/>
      <point x="285" y="256"/>
      <point x="328" y="143"/>
    </contour>
    <contour>
      <point x="462" y="-15" type="curve" smooth="yes"/>
      <point x="199" y="-15"/>
      <point x="87" y="111"/>
      <point x="87" y="726" type="curve" smooth="yes"/>
      <point x="87" y="1320"/>
      <point x="205" y="1454"/>
      <point x="462" y="1454" type="curve" smooth="yes"/>
      <point x="720" y="1454"/>
      <point x="837" y="1323"/>
      <point x="837" y="726" type="curve" smooth="yes"/>
      <point x="837" y="107"/>
      <point x="727" y="-15"/>
    </contour>
  </outline>
</glyph>
<glyph name="P" format="1">
  <advance width="866"/>
  <unicode hex="0050"/>
  <outline>
    <contour>
      <point x="141" y="0" type="line" smooth="yes"/>
      <point x="126" y="0"/>
      <point x="116" y="11"/>
      <point x="116" y="52" type="curve" smooth="yes"/>
      <point x="116" y="1391" type="line" smooth="yes"/>
      <point x="116" y="1433"/>
      <point x="126" y="1438"/>
      <point x="141" y="1438" type="curve" smooth="yes"/>
      <point x="435" y="1438" type="line" smooth="yes"/>
      <point x="621" y="1438"/>
      <point x="807" y="1404"/>
      <point x="807" y="965" type="curve" smooth="yes"/>
      <point x="807" y="551"/>
      <point x="640" y="500"/>
      <point x="466" y="500" type="curve" smooth="yes"/>
      <point x="324" y="500" type="line" smooth="yes"/>
      <point x="318" y="500"/>
      <point x="313" y="497"/>
      <point x="313" y="482" type="curve" smooth="yes"/>
      <point x="313" y="52" type="line" smooth="yes"/>
      <point x="313" y="11"/>
      <point x="303" y="0"/>
      <point x="288" y="0" type="curve" smooth="yes"/>
    </contour>
    <contour>
      <point x="323" y="660" type="curve" smooth="yes"/>
      <point x="443" y="660" type="line" smooth="yes"/>
      <point x="572" y="660"/>
      <point x="610" y="701"/>
      <point x="610" y="964" type="curve" smooth="yes"/>
      <point x="610" y="1259"/>
      <point x="534" y="1279"/>
      <point x="424" y="1279" type="curve" smooth="yes"/>
      <point x="323" y="1279" type="line" smooth="yes"/>
      <point x="318" y="1279"/>
      <point x="313" y="1274"/>
      <point x="313" y="1259" type="curve" smooth="yes"/>
      <point x="313" y="678" type="line" smooth="yes"/>
      <point x="313" y="663"/>
      <point x="317" y="660"/>
    </contour>
  </outline>
</glyph>
<glyph name="Q" format="1">
  <advance width="952"/>
  <unicode hex="0051"/>
  <outline>
    <contour>
      <point x="542" y="-346" type="curve" smooth="yes"/>
      <point x="468" y="-15" type="line"/>
      <point x="459" y="-16"/>
      <point x="442" y="-17"/>
      <point x="430" y="-16" type="curve" smooth="yes"/>
      <point x="198" y="-1"/>
      <point x="87" y="131"/>
      <point x="87" y="722" type="curve" smooth="yes"/>
      <point x="87" y="1330"/>
      <point x="219" y="1454"/>
      <point x="476" y="1454" type="curve" smooth="yes"/>
      <point x="734" y="1454"/>
      <point x="865" y="1334"/>
      <point x="865" y="722" type="curve" smooth="yes"/>
      <point x="865" y="215"/>
      <point x="786" y="49"/>
      <point x="617" y="-1" type="curve"/>
      <point x="630" y="-71"/>
      <point x="686" y="-307"/>
      <point x="686" y="-333" type="curve"/>
      <point x="689" y="-359"/>
      <point x="689" y="-372"/>
      <point x="669" y="-379" type="curve" smooth="yes"/>
      <point x="663" y="-381"/>
      <point x="591" y="-399"/>
      <point x="581" y="-399" type="curve" smooth="yes"/>
      <point x="565" y="-399"/>
      <point x="551" y="-386"/>
    </contour>
    <contour>
      <point x="475" y="143" type="curve" smooth="yes"/>
      <point x="610" y="143"/>
      <point x="667" y="234"/>
      <point x="667" y="722" type="curve" smooth="yes"/>
      <point x="667" y="1189"/>
      <point x="615" y="1292"/>
      <point x="476" y="1292" type="curve" smooth="yes"/>
      <point x="339" y="1292"/>
      <point x="285" y="1182"/>
      <point x="285" y="722" type="curve" smooth="yes"/>
      <point x="285" y="239"/>
      <point x="342" y="143"/>
    </contour>
  </outline>
</glyph>
<glyph name="R" format="1">
  <advance width="924"/>
  <unicode hex="0052"/>
  <outline>
    <contour>
      <point x="141" y="0" type="line" smooth="yes"/>
      <point x="126" y="0"/>
      <point x="116" y="4"/>
      <point x="116" y="45" type="curve" smooth="yes"/>
      <point x="116" y="1392" type="line" smooth="yes"/>
      <point x="116" y="1435"/>
      <point x="126" y="1438"/>
      <point x="141" y="1438" type="curve" smooth="yes"/>
      <point x="477" y="1438" type="line" smooth="yes"/>
      <point x="663" y="1438"/>
      <point x="817" y="1396"/>
      <point x="817" y="1054" type="curve" smooth="yes"/>
      <point x="817" y="846"/>
      <point x="751" y="779"/>
      <point x="664" y="745" type="curve"/>
      <point x="662" y="743"/>
      <point x="661" y="741"/>
      <point x="661" y="739" type="curve" smooth="yes"/>
      <point x="661" y="737"/>
      <point x="662" y="735"/>
      <point x="664" y="734" type="curve" smooth="yes"/>
      <point x="746" y="695"/>
      <point x="810" y="646"/>
      <point x="818" y="408" type="curve" smooth="yes"/>
      <point x="820" y="369"/>
      <point x="822" y="64"/>
      <point x="822" y="50" type="curve" smooth="yes"/>
      <point x="822" y="19"/>
      <point x="815" y="0"/>
      <point x="804" y="0" type="curve" smooth="yes"/>
      <point x="804" y="0"/>
      <point x="649" y="-1"/>
      <point x="645" y="-1" type="curve" smooth="yes"/>
      <point x="634" y="-1"/>
      <point x="629" y="8"/>
      <point x="628" y="44" type="curve"/>
      <point x="624" y="105"/>
      <point x="620" y="463"/>
      <point x="609" y="518" type="curve"/>
      <point x="601" y="633"/>
      <point x="529" y="648"/>
      <point x="467" y="648" type="curve" smooth="yes"/>
      <point x="324" y="648" type="line" smooth="yes"/>
      <point x="318" y="648"/>
      <point x="313" y="642"/>
      <point x="313" y="626" type="curve" smooth="yes"/>
      <point x="313" y="45" type="line" smooth="yes"/>
      <point x="313" y="5"/>
      <point x="303" y="0"/>
      <point x="288" y="0" type="curve" smooth="yes"/>
    </contour>
    <contour>
      <point x="323" y="804" type="curve" smooth="yes"/>
      <point x="452" y="804" type="line" smooth="yes"/>
      <point x="578" y="804"/>
      <point x="619" y="908"/>
      <point x="619" y="1047" type="curve" smooth="yes"/>
      <point x="619" y="1222"/>
      <point x="561" y="1279"/>
      <point x="421" y="1279" type="curve" smooth="yes"/>
      <point x="324" y="1279" type="line" smooth="yes"/>
      <point x="318" y="1279"/>
      <point x="313" y="1274"/>
      <point x="313" y="1259" type="curve" smooth="yes"/>
      <point x="313" y="831" type="line" smooth="yes"/>
      <point x="313" y="816"/>
      <point x="317" y="804"/>
    </contour>
  </outline>
</glyph>
<glyph name="S" format="1">
  <advance width="776"/>
  <unicode hex="0053"/>
  <outline>
    <contour>
      <point x="407" y="1454" type="curve" smooth="yes"/>
      <point x="515" y="1454"/>
      <point x="621" y="1420"/>
      <point x="700" y="1317" type="curve" smooth="yes"/>
      <point x="707" y="1308"/>
      <point x="710" y="1297"/>
      <point x="710" y="1286" type="curve" smooth="yes"/>
      <point x="710" y="1236"/>
      <point x="656" y="1173"/>
      <point x="631" y="1173" type="curve" smooth="yes"/>
      <point x="627" y="1173"/>
      <point x="624" y="1174"/>
      <point x="622" y="1177" type="curve" smooth="yes"/>
      <point x="564" y="1247"/>
      <point x="490" y="1285"/>
      <point x="410" y="1285" type="curve" smooth="yes"/>
      <point x="315" y="1285"/>
      <point x="257" y="1192"/>
      <point x="257" y="1084" type="curve" smooth="yes"/>
      <point x="257" y="970"/>
      <point x="319" y="911"/>
      <point x="396" y="862" type="curve" smooth="yes"/>
      <point x="523" y="780" type="line" smooth="yes"/>
      <point x="630" y="711"/>
      <point x="724" y="599"/>
      <point x="724" y="400" type="curve" smooth="yes"/>
      <point x="724" y="161"/>
      <point x="594" y="-15"/>
      <point x="381" y="-15" type="curve" smooth="yes"/>
      <point x="255" y="-15"/>
      <point x="135" y="36"/>
      <point x="47" y="168" type="curve" smooth="yes"/>
      <point x="43" y="174"/>
      <point x="41" y="182"/>
      <point x="41" y="191" type="curve" smooth="yes"/>
      <point x="41" y="237"/>
      <point x="89" y="309"/>
      <point x="124" y="309" type="curve" smooth="yes"/>
      <point x="131" y="309"/>
      <point x="137" y="306"/>
      <point x="142" y="300" type="curve" smooth="yes"/>
      <point x="213" y="209"/>
      <point x="293" y="157"/>
      <point x="381" y="157" type="curve" smooth="yes"/>
      <point x="488" y="157"/>
      <point x="547" y="251"/>
      <point x="547" y="371" type="curve" smooth="yes"/>
      <point x="547" y="491"/>
      <point x="491" y="551"/>
      <point x="405" y="607" type="curve"/>
      <point x="277" y="693" type="line" smooth="yes"/>
      <point x="177" y="760"/>
      <point x="85" y="857"/>
      <point x="85" y="1050" type="curve" smooth="yes"/>
      <point x="85" y="1287"/>
      <point x="208" y="1454"/>
    </contour>
  </outline>
</glyph>
<glyph name="T" format="1">
  <advance width="663"/>
  <unicode hex="0054"/>
  <outline>
    <contour>
      <point x="260" y="0" type="line" smooth="yes"/>
      <point x="246" y="0"/>
      <point x="235" y="5"/>
      <point x="235" y="48" type="curve" smooth="yes"/>
      <point x="235" y="1252" type="line" smooth="yes"/>
      <point x="235" y="1272"/>
      <point x="231" y="1277"/>
      <point x="224" y="1277" type="curve" smooth="yes"/>
      <point x="50" y="1277" type="line" smooth="yes"/>
      <point x="34" y="1277"/>
      <point x="24" y="1278"/>
      <point x="24" y="1315" type="curve" smooth="yes"/>
      <point x="24" y="1394" type="line" smooth="yes"/>
      <point x="24" y="1433"/>
      <point x="34" y="1438"/>
      <point x="50" y="1438" type="curve" smooth="yes"/>
      <point x="615" y="1438" type="line" smooth="yes"/>
      <point x="630" y="1438"/>
      <point x="640" y="1433"/>
      <point x="640" y="1394" type="curve" smooth="yes"/>
      <point x="640" y="1315" type="line" smooth="yes"/>
      <point x="640" y="1278"/>
      <point x="630" y="1277"/>
      <point x="615" y="1277" type="curve" smooth="yes"/>
      <point x="444" y="1277" type="line" smooth="yes"/>
      <point x="437" y="1277"/>
      <point x="433" y="1272"/>
      <point x="433" y="1252" type="curve" smooth="yes"/>
      <point x="433" y="48" type="line" smooth="yes"/>
      <point x="433" y="5"/>
      <point x="422" y="0"/>
      <point x="407" y="0" type="curve" smooth="yes"/>
    </contour>
  </outline>
</glyph>
<glyph name="U" format="1">
  <advance width="953"/>
  <unicode hex="0055"/>
  <outline>
    <contour>
      <point x="480" y="-15" type="curve" smooth="yes"/>
      <point x="254" y="-15"/>
      <point x="100" y="40"/>
      <point x="100" y="583" type="curve" smooth="yes"/>
      <point x="100" y="1391" type="line" smooth="yes"/>
      <point x="100" y="1434"/>
      <point x="111" y="1438"/>
      <point x="126" y="1438" type="curve" smooth="yes"/>
      <point x="273" y="1438" type="line" smooth="yes"/>
      <point x="287" y="1438"/>
      <point x="298" y="1434"/>
      <point x="298" y="1391" type="curve" smooth="yes"/>
      <point x="298" y="589" type="line" smooth="yes"/>
      <point x="298" y="193"/>
      <point x="353" y="145"/>
      <point x="479" y="145" type="curve" smooth="yes"/>
      <point x="606" y="145"/>
      <point x="655" y="181"/>
      <point x="655" y="589" type="curve" smooth="yes"/>
      <point x="655" y="1391" type="line" smooth="yes"/>
      <point x="655" y="1434"/>
      <point x="665" y="1438"/>
      <point x="680" y="1438" type="curve" smooth="yes"/>
      <point x="828" y="1438" type="line" smooth="yes"/>
      <point x="842" y="1438"/>
      <point x="852" y="1434"/>
      <point x="852" y="1391" type="curve" smooth="yes"/>
      <point x="852" y="583" type="line" smooth="yes"/>
      <point x="852" y="33"/>
      <point x="696" y="-15"/>
    </contour>
  </outline>
</glyph>
<glyph name="V" format="1">
  <advance width="800"/>
  <unicode hex="0056"/>
  <outline>
    <contour>
      <point x="332" y="0" type="line"/>
      <point x="317" y="1"/>
      <point x="303" y="23"/>
      <point x="295" y="64" type="curve" smooth="yes"/>
      <point x="45" y="1371" type="line" smooth="yes"/>
      <point x="44" y="1380"/>
      <point x="43" y="1388"/>
      <point x="43" y="1396" type="curve" smooth="yes"/>
      <point x="43" y="1420"/>
      <point x="49" y="1438"/>
      <point x="59" y="1438" type="curve" smooth="yes"/>
      <point x="206" y="1438" type="line" smooth="yes"/>
      <point x="222" y="1438"/>
      <point x="236.19" y="1414.21"/>
      <point x="243" y="1373" type="curve" smooth="yes"/>
      <point x="416" y="326" type="line"/>
      <point x="584" y="1373" type="line" smooth="yes"/>
      <point x="590.59" y="1414.07"/>
      <point x="604" y="1438"/>
      <point x="621" y="1438" type="curve" smooth="yes"/>
      <point x="742" y="1438" type="line" smooth="yes"/>
      <point x="752" y="1438"/>
      <point x="757" y="1421"/>
      <point x="757" y="1399" type="curve" smooth="yes"/>
      <point x="757" y="1390"/>
      <point x="757" y="1381"/>
      <point x="755" y="1371" type="curve" smooth="yes"/>
      <point x="516" y="64" type="line" smooth="yes"/>
      <point x="509" y="23"/>
      <point x="496" y="1"/>
      <point x="479" y="0" type="curve"/>
    </contour>
  </outline>
</glyph>
<glyph name="W" format="1">
  <advance width="1130"/>
  <unicode hex="0057"/>
  <outline>
    <contour>
      <point x="272" y="0" type="line"/>
      <point x="257" y="1"/>
      <point x="242" y="27"/>
      <point x="236" y="69" type="curve" smooth="yes"/>
      <point x="55" y="1369" type="line" smooth="yes"/>
      <point x="53" y="1379"/>
      <point x="53" y="1388"/>
      <point x="53" y="1397" type="curve" smooth="yes"/>
      <point x="53" y="1421"/>
      <point x="59" y="1438"/>
      <point x="69" y="1438" type="curve" smooth="yes"/>
      <point x="200" y="1438" type="line" smooth="yes"/>
      <point x="216" y="1438"/>
      <point x="230.956" y="1411.12"/>
      <point x="236" y="1368" type="curve" smooth="yes"/>
      <point x="347" y="419" type="line"/>
      <point x="482" y="1365" type="line" smooth="yes"/>
      <point x="488.155" y="1408.13"/>
      <point x="504" y="1429"/>
      <point x="519" y="1429" type="curve" smooth="yes"/>
      <point x="627" y="1429" type="line"/>
      <point x="642" y="1427"/>
      <point x="655.933" y="1405.99"/>
      <point x="662" y="1365" type="curve" smooth="yes"/>
      <point x="805" y="399" type="line"/>
      <point x="917" y="1369" type="line" smooth="yes"/>
      <point x="921.866" y="1411.15"/>
      <point x="937" y="1438"/>
      <point x="952" y="1438" type="curve" smooth="yes"/>
      <point x="1065" y="1438" type="line" smooth="yes"/>
      <point x="1074" y="1438"/>
      <point x="1081" y="1421"/>
      <point x="1081" y="1397" type="curve" smooth="yes"/>
      <point x="1081" y="1388"/>
      <point x="1080" y="1379"/>
      <point x="1078" y="1369" type="curve" smooth="yes"/>
      <point x="901" y="69" type="line" smooth="yes"/>
      <point x="895" y="27"/>
      <point x="882" y="1"/>
      <point x="867" y="0" type="curve"/>
      <point x="745" y="0" type="line"/>
      <point x="729" y="1"/>
      <point x="715" y="28"/>
      <point x="709" y="70" type="curve" smooth="yes"/>
      <point x="559" y="1003" type="line"/>
      <point x="414" y="69" type="line"/>
      <point x="409" y="29"/>
      <point x="396" y="3"/>
      <point x="382" y="0" type="curve"/>
    </contour>
  </outline>
</glyph>
<glyph name="X" format="1">
  <advance width="809"/>
  <unicode hex="0058"/>
  <outline>
    <contour>
      <point x="61" y="0" type="line" smooth="yes"/>
      <point x="55" y="0"/>
      <point x="50" y="12"/>
      <point x="50" y="27" type="curve" smooth="yes"/>
      <point x="50" y="35"/>
      <point x="52" y="46"/>
      <point x="56" y="57" type="curve" smooth="yes"/>
      <point x="305" y="698" type="line"/>
      <point x="66" y="1379" type="line"/>
      <point x="63" y="1391"/>
      <point x="60" y="1402"/>
      <point x="60" y="1411" type="curve" smooth="yes"/>
      <point x="60" y="1426"/>
      <point x="64" y="1438"/>
      <point x="71" y="1438" type="curve" smooth="yes"/>
      <point x="264" y="1438" type="line" smooth="yes"/>
      <point x="281" y="1438"/>
      <point x="297" y="1422"/>
      <point x="310" y="1385" type="curve" smooth="yes"/>
      <point x="438" y="1019" type="line"/>
      <point x="578" y="1388" type="line" smooth="yes"/>
      <point x="591" y="1423"/>
      <point x="609" y="1438"/>
      <point x="625" y="1438" type="curve" smooth="yes"/>
      <point x="744" y="1438" type="line" smooth="yes"/>
      <point x="752" y="1438"/>
      <point x="757" y="1426"/>
      <point x="757" y="1411" type="curve" smooth="yes"/>
      <point x="757" y="1403"/>
      <point x="756" y="1394"/>
      <point x="752" y="1386" type="curve" smooth="yes"/>
      <point x="520" y="793" type="line"/>
      <point x="769" y="59" type="line" smooth="yes"/>
      <point x="773" y="49"/>
      <point x="774" y="38"/>
      <point x="774" y="30" type="curve" smooth="yes"/>
      <point x="774" y="14"/>
      <point x="770" y="0"/>
      <point x="761" y="0" type="curve" smooth="yes"/>
      <point x="582" y="0" type="line" smooth="yes"/>
      <point x="565" y="0"/>
      <point x="550" y="15"/>
      <point x="537" y="52" type="curve" smooth="yes"/>
      <point x="389" y="476" type="line"/>
      <point x="223" y="50" type="line" smooth="yes"/>
      <point x="209" y="15"/>
      <point x="194" y="0"/>
      <point x="178" y="0" type="curve" smooth="yes"/>
    </contour>
  </outline>
</glyph>
<glyph name="Y" format="1">
  <advance width="732"/>
  <unicode hex="0059"/>
  <outline>
    <contour>
      <point x="295" y="0" type="line" smooth="yes"/>
      <point x="280" y="0"/>
      <point x="270" y="8"/>
      <point x="270" y="51" type="curve" smooth="yes"/>
      <point x="270" y="478" type="line"/>
      <point x="39" y="1378" type="line" smooth="yes"/>
      <point x="35" y="1390"/>
      <point x="34" y="1398"/>
      <point x="34" y="1407" type="curve" smooth="yes"/>
      <point x="34" y="1424"/>
      <point x="40" y="1438"/>
      <point x="50" y="1438" type="curve" smooth="yes"/>
      <point x="198" y="1438" type="line" smooth="yes"/>
      <point x="214" y="1438"/>
      <point x="231" y="1420"/>
      <point x="240" y="1385" type="curve" smooth="yes"/>
      <point x="381" y="820" type="line"/>
      <point x="519" y="1384" type="line" smooth="yes"/>
      <point x="527" y="1417"/>
      <point x="544" y="1438"/>
      <point x="559" y="1438" type="curve" smooth="yes"/>
      <point x="684" y="1438" type="line" smooth="yes"/>
      <point x="694" y="1438"/>
      <point x="700" y="1423"/>
      <point x="700" y="1406" type="curve" smooth="yes"/>
      <point x="700" y="1397"/>
      <point x="699" y="1389"/>
      <point x="696" y="1378" type="curve" smooth="yes"/>
      <point x="468" y="481" type="line"/>
      <point x="468" y="51" type="line" smooth="yes"/>
      <point x="468" y="8"/>
      <point x="457" y="0"/>
      <point x="443" y="0" type="curve" smooth="yes"/>
    </contour>
  </outline>
</glyph>
<glyph name="Z" format="1">
  <advance width="715"/>
  <unicode hex="005A"/>
  <outline>
    <contour>
      <point x="108" y="0" type="line" smooth="yes"/>
      <point x="94" y="0"/>
      <point x="83" y="3"/>
      <point x="83" y="40" type="curve" smooth="yes"/>
      <point x="83" y="100" type="line" smooth="yes"/>
      <point x="83" y="139"/>
      <point x="91" y="160"/>
      <point x="99" y="185" type="curve" smooth="yes"/>
      <point x="411" y="1245" type="line"/>
      <point x="414" y="1251"/>
      <point x="415" y="1257"/>
      <point x="415" y="1263" type="curve" smooth="yes"/>
      <point x="415" y="1272"/>
      <point x="412" y="1279"/>
      <point x="408" y="1279" type="curve" smooth="yes"/>
      <point x="117" y="1279" type="line" smooth="yes"/>
      <point x="102" y="1279"/>
      <point x="92" y="1282"/>
      <point x="92" y="1319" type="curve" smooth="yes"/>
      <point x="92" y="1398" type="line" smooth="yes"/>
      <point x="92" y="1435"/>
      <point x="102" y="1438"/>
      <point x="117" y="1438" type="curve" smooth="yes"/>
      <point x="624" y="1438" type="line" smooth="yes"/>
      <point x="638" y="1438"/>
      <point x="649" y="1435"/>
      <point x="649" y="1398" type="curve" smooth="yes"/>
      <point x="649" y="1353" type="line" smooth="yes"/>
      <point x="649" y="1307"/>
      <point x="639" y="1276"/>
      <point x="632" y="1251" type="curve" smooth="yes"/>
      <point x="316" y="189" type="line" smooth="yes"/>
      <point x="315" y="184"/>
      <point x="314" y="178"/>
      <point x="314" y="173" type="curve" smooth="yes"/>
      <point x="314" y="165"/>
      <point x="316" y="159"/>
      <point x="320" y="159" type="curve" smooth="yes"/>
      <point x="636" y="159" type="line" smooth="yes"/>
      <point x="651" y="159"/>
      <point x="662" y="163"/>
      <point x="662" y="125" type="curve" smooth="yes"/>
      <point x="662" y="40" type="line" smooth="yes"/>
      <point x="662" y="3"/>
      <point x="651" y="0"/>
      <point x="636" y="0" type="curve" smooth="yes"/>
    </contour>
  </outline>
</glyph>
<glyph name="bracketleft" format="1">
  <advance width="583"/>
  <unicode hex="005B"/>
  <outline>
    <contour>
      <point x="144" y="-125" type="line" smooth="yes"/>
      <point x="128" y="-125"/>
      <point x="116" y="-107"/>
      <point x="117" y="-64" type="curve"/>
      <point x="117" y="1408" type="line"/>
      <point x="116" y="1451"/>
      <point x="128" y="1466"/>
      <point x="144" y="1466" type="curve" smooth="yes"/>
      <point x="455" y="1466" type="line" smooth="yes"/>
      <point x="470" y="1466"/>
      <point x="481" y="1458"/>
      <point x="481" y="1415" type="curve" smooth="yes"/>
      <point x="481" y="1307" type="line" smooth="yes"/>
      <point x="481" y="1264"/>
      <point x="470" y="1256"/>
      <point x="456" y="1256" type="curve" smooth="yes"/>
      <point x="326" y="1256" type="line" smooth="yes"/>
      <point x="319" y="1256"/>
      <point x="314" y="1243"/>
      <point x="314" y="1223" type="curve" smooth="yes"/>
      <point x="314" y="112" type="line" smooth="yes"/>
      <point x="314" y="92"/>
      <point x="319" y="80"/>
      <point x="326" y="80" type="curve" smooth="yes"/>
      <point x="455" y="80" type="line" smooth="yes"/>
      <point x="470" y="80"/>
      <point x="481" y="65"/>
      <point x="481" y="22" type="curve" smooth="yes"/>
      <point x="481" y="-71" type="line" smooth="yes"/>
      <point x="481" y="-114"/>
      <point x="470" y="-125"/>
      <point x="455" y="-125" type="curve" smooth="yes"/>
    </contour>
  </outline>
</glyph>
<glyph name="backslash" format="1">
  <advance width="581"/>
  <unicode hex="005C"/>
  <outline>
    <contour>
      <point x="345" y="-206" type="line" smooth="yes"/>
      <point x="338" y="-206"/>
      <point x="332" y="-192"/>
      <point x="329" y="-171" type="curve" smooth="yes"/>
      <point x="94" y="1612" type="line" smooth="yes"/>
      <point x="94" y="1615"/>
      <point x="93" y="1618"/>
      <point x="93" y="1621" type="curve" smooth="yes"/>
      <point x="93" y="1635"/>
      <point x="97" y="1647"/>
      <point x="102" y="1647" type="curve" smooth="yes"/>
      <point x="241" y="1647" type="line" smooth="yes"/>
      <point x="248" y="1647"/>
      <point x="255" y="1633"/>
      <point x="257" y="1612" type="curve" smooth="yes"/>
      <point x="491" y="-170" type="line" smooth="yes"/>
      <point x="492" y="-174"/>
      <point x="492" y="-178"/>
      <point x="492" y="-181" type="curve" smooth="yes"/>
      <point x="492" y="-194"/>
      <point x="488" y="-205"/>
      <point x="484" y="-205" type="curve" smooth="yes"/>
    </contour>
  </outline>
</glyph>
<glyph name="bracketright" format="1">
  <advance width="584"/>
  <unicode hex="005D"/>
  <outline>
    <contour>
      <point x="129" y="-128" type="line" smooth="yes"/>
      <point x="114" y="-128"/>
      <point x="103" y="-121"/>
      <point x="103" y="-78" type="curve" smooth="yes"/>
      <point x="103" y="48" type="line" smooth="yes"/>
      <point x="103" y="91"/>
      <point x="114" y="99"/>
      <point x="129" y="99" type="curve" smooth="yes"/>
      <point x="258" y="99" type="line" smooth="yes"/>
      <point x="265" y="99"/>
      <point x="269" y="112"/>
      <point x="269" y="132" type="curve" smooth="yes"/>
      <point x="269" y="1210" type="line" smooth="yes"/>
      <point x="269" y="1230"/>
      <point x="265" y="1242"/>
      <point x="258" y="1242" type="curve" smooth="yes"/>
      <point x="129" y="1242" type="line" smooth="yes"/>
      <point x="114" y="1242"/>
      <point x="103" y="1258"/>
      <point x="103" y="1301" type="curve" smooth="yes"/>
      <point x="103" y="1409" type="line" smooth="yes"/>
      <point x="103" y="1452"/>
      <point x="114" y="1466"/>
      <point x="129" y="1466" type="curve" smooth="yes"/>
      <point x="441" y="1466" type="line" smooth="yes"/>
      <point x="455" y="1466"/>
      <point x="468" y="1445"/>
      <point x="467" y="1402" type="curve"/>
      <point x="467" y="-71" type="line"/>
      <point x="468" y="-114"/>
      <point x="456" y="-128"/>
      <point x="441" y="-128" type="curve" smooth="yes"/>
    </contour>
  </outline>
</glyph>
<glyph name="asciicircum" format="1">
  <advance width="1030"/>
  <unicode hex="005E"/>
  <outline>
    <contour>
      <point x="118" y="351" type="line" smooth="yes"/>
      <point x="97" y="351"/>
      <point x="90" y="363"/>
      <point x="90" y="380" type="curve" smooth="yes"/>
      <point x="90" y="391"/>
      <point x="93" y="405"/>
      <point x="98" y="418" type="curve" smooth="yes"/>
      <point x="409" y="1290" type="line"/>
      <point x="426" y="1332"/>
      <point x="441" y="1357"/>
      <point x="488" y="1357" type="curve" smooth="yes"/>
      <point x="539" y="1357" type="line" smooth="yes"/>
      <point x="586" y="1357"/>
      <point x="598" y="1332"/>
      <point x="616" y="1289" type="curve"/>
      <point x="933" y="419" type="line" smooth="yes"/>
      <point x="937" y="407"/>
      <point x="941" y="394"/>
      <point x="941" y="382" type="curve" smooth="yes"/>
      <point x="941" y="365"/>
      <point x="933" y="351"/>
      <point x="912" y="351" type="curve" smooth="yes"/>
      <point x="834" y="351" type="line" smooth="yes"/>
      <point x="808" y="351"/>
      <point x="789" y="365"/>
      <point x="772" y="420" type="curve"/>
      <point x="534" y="1100" type="line"/>
      <point x="526" y="1126"/>
      <point x="522" y="1131"/>
      <point x="513" y="1131" type="curve" smooth="yes"/>
      <point x="504" y="1131"/>
      <point x="500" y="1126"/>
      <point x="492" y="1100" type="curve" smooth="yes"/>
      <point x="263" y="420" type="line"/>
      <point x="246" y="365"/>
      <point x="231" y="351"/>
      <point x="195" y="351" type="curve" smooth="yes"/>
    </contour>
  </outline>
</glyph>
<glyph name="underscore" format="1">
  <advance width="949"/>
  <unicode hex="005F"/>
  <outline>
    <contour>
      <point x="122" y="-126" type="line" smooth="yes"/>
      <point x="89" y="-126"/>
      <point x="72" y="-113"/>
      <point x="72" y="-76" type="curve" smooth="yes"/>
      <point x="72" y="-29" type="line" smooth="yes"/>
      <point x="72" y="9"/>
      <point x="89" y="21"/>
      <point x="122" y="21" type="curve" smooth="yes"/>
      <point x="827" y="21" type="line" smooth="yes"/>
      <point x="859" y="21"/>
      <point x="876" y="9"/>
      <point x="876" y="-28" type="curve" smooth="yes"/>
      <point x="876" y="-76" type="line" smooth="yes"/>
      <point x="876" y="-113"/>
      <point x="859" y="-126"/>
      <point x="827" y="-126" type="curve" smooth="yes"/>
    </contour>
  </outline>
</glyph>
<glyph name="grave" format="1">
  <advance width="597"/>
  <unicode hex="0060"/>
  <outline>
    <contour>
      <point x="434" y="1169" type="line" smooth="yes"/>
      <point x="421" y="1169"/>
      <point x="418" y="1191"/>
      <point x="415" y="1208" type="curve" smooth="yes"/>
      <point x="352" y="1549" type="line" smooth="yes"/>
      <point x="350" y="1561"/>
      <point x="348" y="1575"/>
      <point x="348" y="1586" type="curve" smooth="yes"/>
      <point x="348" y="1602"/>
      <point x="351" y="1614"/>
      <point x="358" y="1614" type="curve" smooth="yes"/>
      <point x="440" y="1614" type="line" smooth="yes"/>
      <point x="455" y="1614"/>
      <point x="461" y="1602"/>
      <point x="464" y="1559" type="curve" smooth="yes"/>
      <point x="486" y="1236" type="line" smooth="yes"/>
      <point x="487" y="1222"/>
      <point x="487" y="1210"/>
      <point x="487" y="1201" type="curve" smooth="yes"/>
      <point x="487" y="1174"/>
      <point x="482" y="1169"/>
      <point x="472" y="1169" type="curve" smooth="yes"/>
    </contour>
  </outline>
</glyph>
<glyph name="a" format="1">
  <advance width="724"/>
  <unicode hex="0061"/>
  <outline>
    <contour>
      <point x="286" y="-12" type="curve" smooth="yes"/>
      <point x="155" y="-12"/>
      <point x="78" y="73"/>
      <point x="78" y="238" type="curve" smooth="yes"/>
      <point x="78" y="624"/>
      <point x="448" y="581"/>
      <point x="472" y="615" type="curve"/>
      <point x="472" y="668" type="line" smooth="yes"/>
      <point x="472" y="800"/>
      <point x="450" y="882"/>
      <point x="363" y="882" type="curve" smooth="yes"/>
      <point x="289" y="882"/>
      <point x="260" y="832"/>
      <point x="237" y="750" type="curve" smooth="yes"/>
      <point x="230" y="728"/>
      <point x="222" y="723"/>
      <point x="213" y="724" type="curve"/>
      <point x="205" y="726"/>
      <point x="108" y="752"/>
      <point x="107" y="758" type="curve"/>
      <point x="99" y="762"/>
      <point x="99" y="795"/>
      <point x="105" y="818" type="curve" smooth="yes"/>
      <point x="138" y="942"/>
      <point x="211" y="1017"/>
      <point x="374" y="1017" type="curve" smooth="yes"/>
      <point x="536" y="1017"/>
      <point x="635" y="919"/>
      <point x="635" y="605" type="curve" smooth="yes"/>
      <point x="635" y="50" type="line" smooth="yes"/>
      <point x="635" y="15"/>
      <point x="627" y="-1"/>
      <point x="614" y="-1" type="curve" smooth="yes"/>
      <point x="582" y="-1" type="line" smooth="yes"/>
      <point x="570" y="-1"/>
      <point x="559" y="14"/>
      <point x="550" y="43" type="curve"/>
      <point x="546" y="64"/>
      <point x="514" y="153"/>
      <point x="511" y="174" type="curve"/>
      <point x="509" y="180"/>
      <point x="504" y="180"/>
      <point x="503" y="174" type="curve" smooth="yes"/>
      <point x="469" y="59"/>
      <point x="411" y="-12"/>
    </contour>
    <contour>
      <point x="321" y="116" type="curve" smooth="yes"/>
      <point x="418" y="116"/>
      <point x="476" y="266"/>
      <point x="476" y="428" type="curve" smooth="yes"/>
      <point x="476" y="442"/>
      <point x="476" y="504"/>
      <point x="467" y="504" type="curve" smooth="yes"/>
      <point x="466" y="504"/>
      <point x="439" y="499"/>
      <point x="437" y="498" type="curve" smooth="yes"/>
      <point x="292" y="461"/>
      <point x="228" y="380"/>
      <point x="228" y="251" type="curve" smooth="yes"/>
      <point x="228" y="168"/>
      <point x="256" y="116"/>
    </contour>
  </outline>
</glyph>
<glyph name="b" format="1">
  <advance width="765"/>
  <unicode hex="0062"/>
  <outline>
    <contour>
      <point x="433" y="-11" type="curve" smooth="yes"/>
      <point x="348" y="-11"/>
      <point x="261" y="31"/>
      <point x="215" y="193" type="curve" smooth="yes"/>
      <point x="214" y="196"/>
      <point x="212" y="198"/>
      <point x="211" y="198" type="curve" smooth="yes"/>
      <point x="199" y="198"/>
      <point x="185" y="0"/>
      <point x="152" y="0" type="curve" smooth="yes"/>
      <point x="124" y="0" type="line" smooth="yes"/>
      <point x="110" y="0"/>
      <point x="104" y="19"/>
      <point x="104" y="62" type="curve" smooth="yes"/>
      <point x="104" y="1355" type="line" smooth="yes"/>
      <point x="104" y="1398"/>
      <point x="114" y="1428"/>
      <point x="129" y="1428" type="curve" smooth="yes"/>
      <point x="240" y="1428" type="line" smooth="yes"/>
      <point x="255" y="1428"/>
      <point x="265" y="1398"/>
      <point x="265" y="1355" type="curve" smooth="yes"/>
      <point x="265" y="884" type="line" smooth="yes"/>
      <point x="265" y="873"/>
      <point x="268" y="869"/>
      <point x="270" y="869" type="curve" smooth="yes"/>
      <point x="273" y="869"/>
      <point x="276" y="873"/>
      <point x="277" y="876" type="curve" smooth="yes"/>
      <point x="316" y="975"/>
      <point x="380" y="1018"/>
      <point x="446" y="1018" type="curve" smooth="yes"/>
      <point x="565" y="1018"/>
      <point x="685" y="894"/>
      <point x="685" y="500" type="curve" smooth="yes"/>
      <point x="685" y="124"/>
      <point x="556" y="-11"/>
    </contour>
    <contour>
      <point x="399" y="125" type="curve" smooth="yes"/>
      <point x="474" y="125"/>
      <point x="518" y="244"/>
      <point x="518" y="511" type="curve" smooth="yes"/>
      <point x="518" y="752"/>
      <point x="471" y="882"/>
      <point x="398" y="882" type="curve" smooth="yes"/>
      <point x="322" y="882"/>
      <point x="265" y="735"/>
      <point x="265" y="511" type="curve" smooth="yes"/>
      <point x="265" y="291"/>
      <point x="320" y="125"/>
    </contour>
  </outline>
</glyph>
<glyph name="c" format="1">
  <advance width="582"/>
  <unicode hex="0063"/>
  <outline>
    <contour>
      <point x="395" y="-11" type="curve"/>
      <point x="243" y="-11"/>
      <point x="81" y="43"/>
      <point x="81" y="509" type="curve" smooth="yes"/>
      <point x="81" y="942"/>
      <point x="231" y="1018"/>
      <point x="377" y="1018" type="curve" smooth="yes"/>
      <point x="422" y="1018"/>
      <point x="476" y="1006"/>
      <point x="511" y="995" type="curve" smooth="yes"/>
      <point x="517" y="994"/>
      <point x="523" y="985"/>
      <point x="523" y="980" type="curve" smooth="yes"/>
      <point x="523" y="874" type="line"/>
      <point x="524" y="865"/>
      <point x="517" y="856"/>
      <point x="511" y="858" type="curve" smooth="yes"/>
      <point x="484" y="866"/>
      <point x="454" y="876"/>
      <point x="419" y="876" type="curve" smooth="yes"/>
      <point x="337" y="876"/>
      <point x="255" y="853"/>
      <point x="255" y="509" type="curve" smooth="yes"/>
      <point x="255" y="151"/>
      <point x="328" y="132"/>
      <point x="419" y="132" type="curve" smooth="yes"/>
      <point x="451" y="132"/>
      <point x="485" y="140"/>
      <point x="511" y="148" type="curve"/>
      <point x="517" y="147"/>
      <point x="524" y="135"/>
      <point x="524" y="127" type="curve" smooth="yes"/>
      <point x="524" y="28" type="line" smooth="yes"/>
      <point x="524" y="19"/>
      <point x="517" y="9"/>
      <point x="511" y="7" type="curve" smooth="yes"/>
      <point x="481" y="-2"/>
      <point x="437" y="-10"/>
    </contour>
  </outline>
</glyph>
<glyph name="d" format="1">
  <advance width="789"/>
  <unicode hex="0064"/>
  <outline>
    <contour>
      <point x="342" y="-11" type="curve" smooth="yes"/>
      <point x="220" y="-11"/>
      <point x="79" y="69"/>
      <point x="79" y="500" type="curve" smooth="yes"/>
      <point x="79" y="929"/>
      <point x="211" y="1018"/>
      <point x="335" y="1018" type="curve" smooth="yes"/>
      <point x="407" y="1018"/>
      <point x="462" y="976"/>
      <point x="499" y="878" type="curve"/>
      <point x="502" y="874"/>
      <point x="505" y="869"/>
      <point x="507" y="868" type="curve" smooth="yes"/>
      <point x="509" y="868"/>
      <point x="511" y="875"/>
      <point x="511" y="881" type="curve" smooth="yes"/>
      <point x="511" y="1368" type="line" smooth="yes"/>
      <point x="511" y="1411"/>
      <point x="521" y="1428"/>
      <point x="536" y="1428" type="curve" smooth="yes"/>
      <point x="660" y="1428" type="line" smooth="yes"/>
      <point x="674" y="1428"/>
      <point x="685" y="1411"/>
      <point x="685" y="1368" type="curve" smooth="yes"/>
      <point x="685" y="67" type="line" smooth="yes"/>
      <point x="685" y="24"/>
      <point x="676" y="0"/>
      <point x="661" y="0" type="curve" smooth="yes"/>
      <point x="632" y="0" type="line" smooth="yes"/>
      <point x="618" y="0"/>
      <point x="605" y="24"/>
      <point x="598" y="60" type="curve" smooth="yes"/>
      <point x="594.479" y="79.9546"/>
      <point x="574.881" y="211.56"/>
      <point x="566" y="216" type="curve"/>
      <point x="564" y="214"/>
      <point x="562" y="211"/>
      <point x="559" y="204" type="curve"/>
      <point x="520" y="25"/>
      <point x="435" y="-11"/>
    </contour>
    <contour>
      <point x="510" y="511" type="curve" smooth="yes"/>
      <point x="510" y="771"/>
      <point x="459" y="882"/>
      <point x="381" y="882" type="curve" smooth="yes"/>
      <point x="307" y="882"/>
      <point x="254" y="817"/>
      <point x="254" y="511" type="curve" smooth="yes"/>
      <point x="254" y="191"/>
      <point x="302" y="125"/>
      <point x="380" y="125" type="curve" smooth="yes"/>
      <point x="462" y="125"/>
      <point x="510" y="238"/>
    </contour>
  </outline>
</glyph>
<glyph name="e" format="1">
  <advance width="695"/>
  <unicode hex="0065"/>
  <outline>
    <contour>
      <point x="623" y="242" type="line" smooth="yes"/>
      <point x="623" y="103"/>
      <point x="550" y="-11"/>
      <point x="385" y="-11" type="curve" smooth="yes"/>
      <point x="245" y="-11"/>
      <point x="81" y="61"/>
      <point x="81" y="504" type="curve" smooth="yes"/>
      <point x="81" y="951"/>
      <point x="241" y="1018"/>
      <point x="373" y="1018" type="curve" smooth="yes"/>
      <point x="509" y="1018"/>
      <point x="631" y="917"/>
      <point x="631" y="536" type="curve" smooth="yes"/>
      <point x="631" y="510"/>
      <point x="629" y="466"/>
      <point x="606" y="466" type="curve" smooth="yes"/>
      <point x="258" y="466" type="line" smooth="yes"/>
      <point x="253" y="466"/>
      <point x="250" y="454"/>
      <point x="250" y="441" type="curve" smooth="yes"/>
      <point x="251" y="240"/>
      <point x="298" y="125"/>
      <point x="390" y="125" type="curve" smooth="yes"/>
      <point x="484" y="125"/>
      <point x="496" y="224"/>
      <point x="502" y="288" type="curve" smooth="yes"/>
      <point x="504" y="302"/>
      <point x="510" y="310"/>
      <point x="519" y="310" type="curve" smooth="yes"/>
      <point x="600" y="310" type="line" smooth="yes"/>
      <point x="621" y="310"/>
      <point x="623" y="286"/>
      <point x="623" y="258" type="curve" smooth="yes"/>
    </contour>
    <contour>
      <point x="255" y="572" type="curve" smooth="yes"/>
      <point x="484" y="572" type="line" smooth="yes"/>
      <point x="486" y="572"/>
      <point x="486" y="588"/>
      <point x="486" y="597" type="curve" smooth="yes"/>
      <point x="481" y="785"/>
      <point x="445" y="883"/>
      <point x="372" y="883" type="curve" smooth="yes"/>
      <point x="312" y="883"/>
      <point x="260" y="813"/>
      <point x="251" y="622" type="curve" smooth="yes"/>
      <point x="251" y="611"/>
      <point x="251" y="572"/>
    </contour>
  </outline>
</glyph>
<glyph name="f" format="1">
  <advance width="485"/>
  <unicode hex="0066"/>
  <outline>
    <contour>
      <point x="152" y="0" type="line" smooth="yes"/>
      <point x="138" y="0"/>
      <point x="126" y="18"/>
      <point x="126" y="61" type="curve" smooth="yes"/>
      <point x="126" y="825" type="line" smooth="yes"/>
      <point x="126" y="845"/>
      <point x="126" y="857"/>
      <point x="119" y="857" type="curve" smooth="yes"/>
      <point x="67" y="857" type="line" smooth="yes"/>
      <point x="52" y="857"/>
      <point x="44" y="863"/>
      <point x="44" y="898" type="curve" smooth="yes"/>
      <point x="44" y="959" type="line" smooth="yes"/>
      <point x="44" y="994"/>
      <point x="52" y="1006"/>
      <point x="67" y="1006" type="curve" smooth="yes"/>
      <point x="119" y="1006" type="line" smooth="yes"/>
      <point x="126" y="1006"/>
      <point x="126" y="1019"/>
      <point x="126" y="1041" type="curve" smooth="yes"/>
      <point x="126" y="1394"/>
      <point x="211" y="1459"/>
      <point x="347" y="1459" type="curve" smooth="yes"/>
      <point x="377" y="1459"/>
      <point x="430" y="1456"/>
      <point x="444" y="1453" type="curve" smooth="yes"/>
      <point x="455" y="1451"/>
      <point x="467" y="1445"/>
      <point x="467" y="1417" type="curve" smooth="yes"/>
      <point x="467" y="1352" type="line" smooth="yes"/>
      <point x="467" y="1316"/>
      <point x="466" y="1307"/>
      <point x="454" y="1307" type="curve" smooth="yes"/>
      <point x="391" y="1307" type="line" smooth="yes"/>
      <point x="322" y="1307"/>
      <point x="294" y="1261"/>
      <point x="294" y="1100" type="curve" smooth="yes"/>
      <point x="294" y="1012" type="line" smooth="yes"/>
      <point x="294" y="1009"/>
      <point x="296" y="1006"/>
      <point x="297" y="1006" type="curve" smooth="yes"/>
      <point x="438" y="1006" type="line" smooth="yes"/>
      <point x="452" y="1006"/>
      <point x="460" y="998"/>
      <point x="460" y="964" type="curve" smooth="yes"/>
      <point x="460" y="898" type="line" smooth="yes"/>
      <point x="460" y="864"/>
      <point x="452" y="857"/>
      <point x="438" y="857" type="curve" smooth="yes"/>
      <point x="302" y="857" type="line" smooth="yes"/>
      <point x="296" y="857"/>
      <point x="294" y="845"/>
      <point x="294" y="825" type="curve" smooth="yes"/>
      <point x="294" y="61" type="line" smooth="yes"/>
      <point x="294" y="18"/>
      <point x="282" y="0"/>
      <point x="268" y="0" type="curve" smooth="yes"/>
    </contour>
  </outline>
</glyph>
<glyph name="g" format="1">
  <advance width="799"/>
  <unicode hex="0067"/>
  <outline>
    <contour>
      <point x="436" y="456" type="curve" smooth="yes"/>
      <point x="520" y="456"/>
      <point x="563" y="540"/>
      <point x="563" y="670" type="curve" smooth="yes"/>
      <point x="563" y="810"/>
      <point x="508" y="908"/>
      <point x="427" y="908" type="curve" smooth="yes"/>
      <point x="347" y="908"/>
      <point x="299" y="818"/>
      <point x="299" y="682" type="curve" smooth="yes"/>
      <point x="299" y="533"/>
      <point x="356" y="456"/>
    </contour>
    <contour>
      <point x="425" y="-202" type="curve" smooth="yes"/>
      <point x="558" y="-202"/>
      <point x="624" y="-142"/>
      <point x="624" y="-38" type="curve" smooth="yes"/>
      <point x="624" y="58"/>
      <point x="559" y="69"/>
      <point x="488" y="69" type="curve" smooth="yes"/>
      <point x="374" y="69" type="line" smooth="yes"/>
      <point x="357" y="69"/>
      <point x="305" y="-18"/>
      <point x="305" y="-101" type="curve" smooth="yes"/>
      <point x="305" y="-153"/>
      <point x="326" y="-202"/>
    </contour>
    <contour>
      <point x="411" y="-307" type="curve" smooth="yes"/>
      <point x="245" y="-307"/>
      <point x="151" y="-246"/>
      <point x="151" y="-139" type="curve" smooth="yes"/>
      <point x="151" y="-72"/>
      <point x="183" y="1"/>
      <point x="236" y="80" type="curve" smooth="yes"/>
      <point x="239" y="84"/>
      <point x="240" y="90"/>
      <point x="240" y="94" type="curve" smooth="yes"/>
      <point x="240" y="101"/>
      <point x="239" y="106"/>
      <point x="234" y="109" type="curve" smooth="yes"/>
      <point x="176" y="132"/>
      <point x="134" y="142"/>
      <point x="134" y="219" type="curve" smooth="yes"/>
      <point x="134" y="320"/>
      <point x="172" y="362"/>
      <point x="208" y="407" type="curve" smooth="yes"/>
      <point x="213" y="414"/>
      <point x="215" y="421"/>
      <point x="215" y="426" type="curve" smooth="yes"/>
      <point x="215" y="432"/>
      <point x="213" y="439"/>
      <point x="209" y="444" type="curve" smooth="yes"/>
      <point x="174" y="483"/>
      <point x="127" y="569"/>
      <point x="127" y="674" type="curve" smooth="yes"/>
      <point x="127" y="870"/>
      <point x="218" y="1018"/>
      <point x="418" y="1018" type="curve" smooth="yes"/>
      <point x="449" y="1018"/>
      <point x="472" y="1011"/>
      <point x="488" y="1007" type="curve" smooth="yes"/>
      <point x="500" y="1005"/>
      <point x="506" y="1006"/>
      <point x="507" y="1022" type="curve" smooth="yes"/>
      <point x="517" y="1280" type="line" smooth="yes"/>
      <point x="519" y="1322"/>
      <point x="532" y="1324"/>
      <point x="548" y="1324" type="curve" smooth="yes"/>
      <point x="629" y="1324" type="line" smooth="yes"/>
      <point x="639" y="1324"/>
      <point x="645" y="1295"/>
      <point x="641" y="1281" type="curve" smooth="yes"/>
      <point x="575" y="997" type="line" smooth="yes"/>
      <point x="569" y="972"/>
      <point x="576" y="967"/>
      <point x="591" y="958" type="curve"/>
      <point x="645" y="918"/>
      <point x="721" y="836"/>
      <point x="721" y="675" type="curve" smooth="yes"/>
      <point x="721" y="469"/>
      <point x="630" y="346"/>
      <point x="442" y="346" type="curve" smooth="yes"/>
      <point x="398" y="346"/>
      <point x="345" y="362"/>
      <point x="314" y="380" type="curve"/>
      <point x="299" y="369"/>
      <point x="272" y="324"/>
      <point x="272" y="272" type="curve" smooth="yes"/>
      <point x="272" y="217"/>
      <point x="308" y="188"/>
      <point x="376" y="188" type="curve" smooth="yes"/>
      <point x="483" y="188" type="line" smooth="yes"/>
      <point x="684" y="188"/>
      <point x="765" y="122"/>
      <point x="765" y="-25" type="curve" smooth="yes"/>
      <point x="765" y="-255"/>
      <point x="560" y="-307"/>
    </contour>
  </outline>
</glyph>
<glyph name="h" format="1">
  <advance width="785"/>
  <unicode hex="0068"/>
  <outline>
    <contour>
      <point x="130" y="0" type="line" smooth="yes"/>
      <point x="115" y="0"/>
      <point x="104" y="6"/>
      <point x="104" y="49" type="curve" smooth="yes"/>
      <point x="104" y="1384" type="line" smooth="yes"/>
      <point x="104" y="1427"/>
      <point x="115" y="1437"/>
      <point x="130" y="1437" type="curve" smooth="yes"/>
      <point x="257" y="1437" type="line" smooth="yes"/>
      <point x="272" y="1437"/>
      <point x="282" y="1427"/>
      <point x="282" y="1384" type="curve" smooth="yes"/>
      <point x="282" y="878" type="line" smooth="yes"/>
      <point x="282" y="867"/>
      <point x="285" y="863"/>
      <point x="287" y="863" type="curve" smooth="yes"/>
      <point x="289" y="863"/>
      <point x="292" y="866"/>
      <point x="294" y="869" type="curve" smooth="yes"/>
      <point x="339" y="980"/>
      <point x="423" y="1018"/>
      <point x="485" y="1018" type="curve" smooth="yes"/>
      <point x="608" y="1018"/>
      <point x="694" y="921"/>
      <point x="694" y="574" type="curve" smooth="yes"/>
      <point x="694" y="49" type="line" smooth="yes"/>
      <point x="694" y="6"/>
      <point x="683" y="0"/>
      <point x="669" y="0" type="curve" smooth="yes"/>
      <point x="541" y="0" type="line" smooth="yes"/>
      <point x="526" y="0"/>
      <point x="516" y="6"/>
      <point x="516" y="49" type="curve" smooth="yes"/>
      <point x="516" y="595" type="line" smooth="yes"/>
      <point x="516" y="798"/>
      <point x="492" y="882"/>
      <point x="422" y="882" type="curve" smooth="yes"/>
      <point x="344" y="882"/>
      <point x="282" y="763"/>
      <point x="282" y="588" type="curve" smooth="yes"/>
      <point x="282" y="49" type="line" smooth="yes"/>
      <point x="282" y="6"/>
      <point x="272" y="0"/>
      <point x="258" y="0" type="curve" smooth="yes"/>
    </contour>
  </outline>
</glyph>
<glyph name="i" format="1">
  <advance width="363"/>
  <unicode hex="0069"/>
  <outline>
    <contour>
      <point x="133" y="0" type="line" smooth="yes"/>
      <point x="118" y="0"/>
      <point x="108" y="24"/>
      <point x="108" y="67" type="curve" smooth="yes"/>
      <point x="108" y="940" type="line" smooth="yes"/>
      <point x="108" y="983"/>
      <point x="118" y="1006"/>
      <point x="133" y="1006" type="curve" smooth="yes"/>
      <point x="245" y="1006" type="line" smooth="yes"/>
      <point x="259" y="1006"/>
      <point x="269" y="983"/>
      <point x="269" y="940" type="curve" smooth="yes"/>
      <point x="269" y="67" type="line" smooth="yes"/>
      <point x="269" y="24"/>
      <point x="259" y="0"/>
      <point x="245" y="0" type="curve" smooth="yes"/>
    </contour>
    <contour>
      <point x="129" y="1161" type="line" smooth="yes"/>
      <point x="114" y="1161"/>
      <point x="104" y="1172"/>
      <point x="104" y="1215" type="curve" smooth="yes"/>
      <point x="104" y="1344" type="line" smooth="yes"/>
      <point x="104" y="1387"/>
      <point x="114" y="1397"/>
      <point x="129" y="1397" type="curve" smooth="yes"/>
      <point x="248" y="1397" type="line" smooth="yes"/>
      <point x="263" y="1397"/>
      <point x="273" y="1387"/>
      <point x="273" y="1344" type="curve" smooth="yes"/>
      <point x="273" y="1215" type="line" smooth="yes"/>
      <point x="273" y="1172"/>
      <point x="263" y="1161"/>
      <point x="248" y="1161" type="curve" smooth="yes"/>
    </contour>
  </outline>
</glyph>
<glyph name="j" format="1">
  <advance width="404"/>
  <unicode hex="006A"/>
  <outline>
    <contour>
      <point x="34" y="-335" type="line" smooth="yes"/>
      <point x="19" y="-335"/>
      <point x="9" y="-311"/>
      <point x="9" y="-277" type="curve" smooth="yes"/>
      <point x="9" y="-216" type="line" smooth="yes"/>
      <point x="9" y="-185"/>
      <point x="17" y="-165"/>
      <point x="33" y="-165" type="curve" smooth="yes"/>
      <point x="72" y="-165" type="line" smooth="yes"/>
      <point x="117" y="-165"/>
      <point x="146" y="-144"/>
      <point x="146" y="-6" type="curve" smooth="yes"/>
      <point x="146" y="940" type="line" smooth="yes"/>
      <point x="146" y="983"/>
      <point x="156" y="1006"/>
      <point x="171" y="1006" type="curve" smooth="yes"/>
      <point x="282" y="1006" type="line" smooth="yes"/>
      <point x="298" y="1006"/>
      <point x="307" y="983"/>
      <point x="307" y="940" type="curve" smooth="yes"/>
      <point x="307" y="-3" type="line" smooth="yes"/>
      <point x="307" y="-307"/>
      <point x="222" y="-335"/>
      <point x="118" y="-335" type="curve" smooth="yes"/>
    </contour>
    <contour>
      <point x="167" y="1161" type="line" smooth="yes"/>
      <point x="152" y="1161"/>
      <point x="142" y="1172"/>
      <point x="142" y="1215" type="curve" smooth="yes"/>
      <point x="142" y="1344" type="line" smooth="yes"/>
      <point x="142" y="1387"/>
      <point x="152" y="1397"/>
      <point x="167" y="1397" type="curve" smooth="yes"/>
      <point x="286" y="1397" type="line" smooth="yes"/>
      <point x="301" y="1397"/>
      <point x="311" y="1387"/>
      <point x="311" y="1344" type="curve" smooth="yes"/>
      <point x="311" y="1215" type="line" smooth="yes"/>
      <point x="311" y="1172"/>
      <point x="301" y="1161"/>
      <point x="286" y="1161" type="curve" smooth="yes"/>
    </contour>
  </outline>
</glyph>
<glyph name="k" format="1">
  <advance width="706"/>
  <unicode hex="006B"/>
  <outline>
    <contour>
      <point x="130" y="0" type="line" smooth="yes"/>
      <point x="116" y="0"/>
      <point x="105" y="18"/>
      <point x="105" y="61" type="curve" smooth="yes"/>
      <point x="105" y="1402" type="line" smooth="yes"/>
      <point x="105" y="1445"/>
      <point x="116" y="1462"/>
      <point x="130" y="1462" type="curve" smooth="yes"/>
      <point x="243" y="1462" type="line" smooth="yes"/>
      <point x="257" y="1462"/>
      <point x="268" y="1445"/>
      <point x="268" y="1402" type="curve" smooth="yes"/>
      <point x="268" y="550" type="line" smooth="yes"/>
      <point x="268" y="541"/>
      <point x="270" y="535"/>
      <point x="274" y="535" type="curve"/>
      <point x="277" y="538" type="line" smooth="yes"/>
      <point x="337.413" y="679.8" type="line"/>
      <point x="473" y="953" type="line" smooth="yes"/>
      <point x="487.911" y="983.045"/>
      <point x="506" y="1006"/>
      <point x="521" y="1006" type="curve" smooth="yes"/>
      <point x="651" y="1006" type="line" smooth="yes"/>
      <point x="656" y="1006"/>
      <point x="660" y="996"/>
      <point x="660" y="984" type="curve" smooth="yes"/>
      <point x="660" y="974"/>
      <point x="657" y="963"/>
      <point x="651" y="953" type="curve"/>
      <point x="459" y="575" type="line" smooth="yes"/>
      <point x="456" y="570"/>
      <point x="455" y="563"/>
      <point x="455" y="556" type="curve" smooth="yes"/>
      <point x="455" y="549"/>
      <point x="456" y="543"/>
      <point x="458" y="538" type="curve" smooth="yes"/>
      <point x="668" y="59" type="line" smooth="yes"/>
      <point x="672.325" y="49.1348"/>
      <point x="674" y="38"/>
      <point x="674" y="29" type="curve" smooth="yes"/>
      <point x="674" y="14"/>
      <point x="669" y="0"/>
      <point x="663" y="0" type="curve" smooth="yes"/>
      <point x="536" y="0" type="line" smooth="yes"/>
      <point x="521" y="0"/>
      <point x="510.001" y="11.6553"/>
      <point x="498" y="48" type="curve" smooth="yes"/>
      <point x="345" y="472" type="line" smooth="yes"/>
      <point x="342.724" y="478.31"/>
      <point x="341" y="482"/>
      <point x="337" y="482" type="curve" smooth="yes"/>
      <point x="335" y="482"/>
      <point x="331" y="480"/>
      <point x="330" y="475" type="curve"/>
      <point x="320" y="461"/>
      <point x="276" y="366"/>
      <point x="275" y="365" type="curve" smooth="yes"/>
      <point x="271" y="354"/>
      <point x="268" y="337"/>
      <point x="268" y="318" type="curve" smooth="yes"/>
      <point x="268" y="61" type="line" smooth="yes"/>
      <point x="268" y="18"/>
      <point x="257" y="0"/>
      <point x="243" y="0" type="curve" smooth="yes"/>
    </contour>
  </outline>
</glyph>
<glyph name="l" format="1">
  <advance width="363"/>
  <unicode hex="006C"/>
  <outline>
    <contour>
      <point x="135" y="0" type="line" smooth="yes"/>
      <point x="120" y="0"/>
      <point x="110" y="11"/>
      <point x="110" y="54" type="curve" smooth="yes"/>
      <point x="110" y="1402" type="line" smooth="yes"/>
      <point x="110" y="1445"/>
      <point x="120" y="1462"/>
      <point x="135" y="1462" type="curve" smooth="yes"/>
      <point x="247" y="1462" type="line" smooth="yes"/>
      <point x="261" y="1462"/>
      <point x="272" y="1445"/>
      <point x="272" y="1402" type="curve" smooth="yes"/>
      <point x="272" y="54" type="line" smooth="yes"/>
      <point x="272" y="11"/>
      <point x="261" y="0"/>
      <point x="247" y="0" type="curve" smooth="yes"/>
    </contour>
  </outline>
</glyph>
<glyph name="m" format="1">
  <advance width="1104"/>
  <unicode hex="006D"/>
  <outline>
    <contour>
      <point x="129" y="0" type="line" smooth="yes"/>
      <point x="115" y="0"/>
      <point x="104" y="25"/>
      <point x="104" y="68" type="curve" smooth="yes"/>
      <point x="104" y="933" type="line" smooth="yes"/>
      <point x="104" y="976"/>
      <point x="114" y="1006"/>
      <point x="128" y="1006" type="curve" smooth="yes"/>
      <point x="163" y="1006" type="line" smooth="yes"/>
      <point x="178" y="1006"/>
      <point x="191" y="988"/>
      <point x="199" y="946" type="curve"/>
      <point x="217" y="811" type="line" smooth="yes"/>
      <point x="219" y="803"/>
      <point x="221" y="799"/>
      <point x="225" y="799" type="curve" smooth="yes"/>
      <point x="227" y="799"/>
      <point x="229" y="804"/>
      <point x="231" y="812" type="curve" smooth="yes"/>
      <point x="271" y="975"/>
      <point x="347" y="1018"/>
      <point x="422" y="1018" type="curve" smooth="yes"/>
      <point x="499" y="1018"/>
      <point x="564" y="966"/>
      <point x="600" y="828" type="curve" smooth="yes"/>
      <point x="602" y="822"/>
      <point x="604" y="820"/>
      <point x="606" y="820" type="curve" smooth="yes"/>
      <point x="609" y="820"/>
      <point x="612" y="822"/>
      <point x="613" y="828" type="curve" smooth="yes"/>
      <point x="649" y="963"/>
      <point x="735" y="1018"/>
      <point x="801" y="1018" type="curve" smooth="yes"/>
      <point x="920" y="1018"/>
      <point x="1013" y="956"/>
      <point x="1013" y="602" type="curve" smooth="yes"/>
      <point x="1013" y="68" type="line" smooth="yes"/>
      <point x="1013" y="25"/>
      <point x="1003" y="0"/>
      <point x="988" y="0" type="curve" smooth="yes"/>
      <point x="872" y="0" type="line" smooth="yes"/>
      <point x="857" y="0"/>
      <point x="847" y="25"/>
      <point x="847" y="68" type="curve" smooth="yes"/>
      <point x="847" y="620" type="line" smooth="yes"/>
      <point x="847" y="830"/>
      <point x="820" y="882"/>
      <point x="760" y="882" type="curve" smooth="yes"/>
      <point x="699" y="882"/>
      <point x="642" y="807"/>
      <point x="642" y="588" type="curve" smooth="yes"/>
      <point x="642" y="68" type="line" smooth="yes"/>
      <point x="642" y="25"/>
      <point x="631" y="0"/>
      <point x="617" y="0" type="curve" smooth="yes"/>
      <point x="502" y="0" type="line" smooth="yes"/>
      <point x="486" y="0"/>
      <point x="476" y="25"/>
      <point x="476" y="68" type="curve" smooth="yes"/>
      <point x="476" y="607" type="line" smooth="yes"/>
      <point x="476" y="827"/>
      <point x="445" y="882"/>
      <point x="389" y="882" type="curve" smooth="yes"/>
      <point x="305" y="882"/>
      <point x="271" y="744"/>
      <point x="271" y="577" type="curve" smooth="yes"/>
      <point x="271" y="68" type="line" smooth="yes"/>
      <point x="271" y="25"/>
      <point x="260" y="0"/>
      <point x="246" y="0" type="curve" smooth="yes"/>
    </contour>
  </outline>
</glyph>
<glyph name="n" format="1">
  <advance width="789"/>
  <unicode hex="006E"/>
  <outline>
    <contour>
      <point x="129" y="0" type="line" smooth="yes"/>
      <point x="115" y="0"/>
      <point x="104" y="6"/>
      <point x="104" y="49" type="curve" smooth="yes"/>
      <point x="104" y="946" type="line" smooth="yes"/>
      <point x="104" y="989"/>
      <point x="114" y="1006"/>
      <point x="128" y="1006" type="curve" smooth="yes"/>
      <point x="171" y="1006" type="line" smooth="yes"/>
      <point x="187" y="1006"/>
      <point x="200" y="1001"/>
      <point x="208" y="959" type="curve"/>
      <point x="228" y="833" type="line" smooth="yes"/>
      <point x="229" y="826"/>
      <point x="232" y="822"/>
      <point x="235" y="822" type="curve" smooth="yes"/>
      <point x="238" y="822"/>
      <point x="240" y="827"/>
      <point x="241" y="832" type="curve" smooth="yes"/>
      <point x="290" y="995"/>
      <point x="387" y="1018"/>
      <point x="467" y="1018" type="curve" smooth="yes"/>
      <point x="606" y="1018"/>
      <point x="697" y="927"/>
      <point x="697" y="585" type="curve" smooth="yes"/>
      <point x="697" y="49" type="line" smooth="yes"/>
      <point x="697" y="6"/>
      <point x="687" y="0"/>
      <point x="672" y="0" type="curve" smooth="yes"/>
      <point x="544" y="0" type="line" smooth="yes"/>
      <point x="529" y="0"/>
      <point x="519" y="6"/>
      <point x="519" y="49" type="curve" smooth="yes"/>
      <point x="519" y="607" type="line" smooth="yes"/>
      <point x="519" y="791"/>
      <point x="493" y="882"/>
      <point x="427" y="882" type="curve" smooth="yes"/>
      <point x="345" y="882"/>
      <point x="283" y="761"/>
      <point x="283" y="600" type="curve" smooth="yes"/>
      <point x="283" y="49" type="line" smooth="yes"/>
      <point x="283" y="6"/>
      <point x="272" y="0"/>
      <point x="258" y="0" type="curve" smooth="yes"/>
    </contour>
  </outline>
</glyph>
<glyph name="o" format="1">
  <advance width="768"/>
  <unicode hex="006F"/>
  <outline>
    <contour>
      <point x="385" y="125" type="curve" smooth="yes"/>
      <point x="461" y="125"/>
      <point x="513" y="175"/>
      <point x="513" y="506" type="curve" smooth="yes"/>
      <point x="513" y="829"/>
      <point x="460" y="882"/>
      <point x="385" y="882" type="curve" smooth="yes"/>
      <point x="309" y="882"/>
      <point x="256" y="829"/>
      <point x="256" y="506" type="curve" smooth="yes"/>
      <point x="256" y="176"/>
      <point x="307" y="125"/>
    </contour>
    <contour>
      <point x="385" y="-11" type="curve" smooth="yes"/>
      <point x="255" y="-11"/>
      <point x="81" y="23"/>
      <point x="81" y="506" type="curve" smooth="yes"/>
      <point x="81" y="987"/>
      <point x="260" y="1018"/>
      <point x="385" y="1018" type="curve" smooth="yes"/>
      <point x="510" y="1018"/>
      <point x="687" y="987"/>
      <point x="687" y="506" type="curve" smooth="yes"/>
      <point x="687" y="23"/>
      <point x="514" y="-11"/>
    </contour>
  </outline>
</glyph>
<glyph name="p" format="1">
  <advance width="780"/>
  <unicode hex="0070"/>
  <outline>
    <contour>
      <point x="127" y="-344" type="line" smooth="yes"/>
      <point x="112" y="-344"/>
      <point x="104" y="-318"/>
      <point x="104" y="-275" type="curve" smooth="yes"/>
      <point x="104" y="937" type="line" smooth="yes"/>
      <point x="104" y="980"/>
      <point x="113" y="1007"/>
      <point x="127" y="1007" type="curve" smooth="yes"/>
      <point x="153" y="1007" type="line" smooth="yes"/>
      <point x="167" y="1007"/>
      <point x="181" y="987"/>
      <point x="189" y="937" type="curve" smooth="yes"/>
      <point x="191" y="923"/>
      <point x="212" y="812"/>
      <point x="212" y="800" type="curve"/>
      <point x="213" y="793"/>
      <point x="216" y="789"/>
      <point x="218" y="789" type="curve" smooth="yes"/>
      <point x="221" y="789"/>
      <point x="222" y="792"/>
      <point x="224" y="798" type="curve" smooth="yes"/>
      <point x="264" y="960"/>
      <point x="359" y="1017"/>
      <point x="439" y="1017" type="curve" smooth="yes"/>
      <point x="568" y="1017"/>
      <point x="699" y="875"/>
      <point x="699" y="510" type="curve" smooth="yes"/>
      <point x="699" y="125"/>
      <point x="586" y="-11"/>
      <point x="444" y="-11" type="curve" smooth="yes"/>
      <point x="379" y="-11"/>
      <point x="313" y="39"/>
      <point x="278" y="138" type="curve" smooth="yes"/>
      <point x="277" y="142"/>
      <point x="274" y="144"/>
      <point x="272" y="144" type="curve" smooth="yes"/>
      <point x="268" y="144"/>
      <point x="266" y="140"/>
      <point x="266" y="131" type="curve" smooth="yes"/>
      <point x="266" y="-275" type="line" smooth="yes"/>
      <point x="266" y="-318"/>
      <point x="256" y="-344"/>
      <point x="242" y="-344" type="curve" smooth="yes"/>
    </contour>
    <contour>
      <point x="399" y="125" type="curve" smooth="yes"/>
      <point x="471" y="125"/>
      <point x="524" y="227"/>
      <point x="524" y="500" type="curve" smooth="yes"/>
      <point x="524" y="743"/>
      <point x="473" y="882"/>
      <point x="398" y="882" type="curve" smooth="yes"/>
      <point x="319" y="882"/>
      <point x="266" y="736"/>
      <point x="266" y="500" type="curve" smooth="yes"/>
      <point x="266" y="254"/>
      <point x="321" y="125"/>
    </contour>
  </outline>
</glyph>
<glyph name="q" format="1">
  <advance width="769"/>
  <unicode hex="0071"/>
  <outline>
    <contour>
      <point x="529" y="-344" type="line" smooth="yes"/>
      <point x="515" y="-344"/>
      <point x="506" y="-335"/>
      <point x="506" y="-292" type="curve" smooth="yes"/>
      <point x="505" y="131" type="line" smooth="yes"/>
      <point x="505" y="140"/>
      <point x="503" y="144"/>
      <point x="499" y="144" type="curve" smooth="yes"/>
      <point x="497" y="144"/>
      <point x="494" y="142"/>
      <point x="493" y="138" type="curve" smooth="yes"/>
      <point x="458" y="39"/>
      <point x="396" y="-11"/>
      <point x="330" y="-11" type="curve" smooth="yes"/>
      <point x="189" y="-11"/>
      <point x="81" y="115"/>
      <point x="81" y="510" type="curve" smooth="yes"/>
      <point x="81" y="888"/>
      <point x="212" y="1018"/>
      <point x="341" y="1018" type="curve" smooth="yes"/>
      <point x="425" y="1018"/>
      <point x="507" y="953"/>
      <point x="547" y="790" type="curve" smooth="yes"/>
      <point x="549" y="784"/>
      <point x="550" y="781"/>
      <point x="553" y="781" type="curve" smooth="yes"/>
      <point x="555" y="781"/>
      <point x="558" y="785"/>
      <point x="559" y="792" type="curve"/>
      <point x="559" y="804"/>
      <point x="580" y="934"/>
      <point x="582" y="947" type="curve" smooth="yes"/>
      <point x="591" y="997"/>
      <point x="605" y="1008"/>
      <point x="618" y="1008" type="curve" smooth="yes"/>
      <point x="644" y="1008" type="line" smooth="yes"/>
      <point x="659" y="1008"/>
      <point x="667" y="990"/>
      <point x="667" y="947" type="curve" smooth="yes"/>
      <point x="667" y="-292" type="line" smooth="yes"/>
      <point x="667" y="-335"/>
      <point x="659" y="-344"/>
      <point x="644" y="-344" type="curve" smooth="yes"/>
    </contour>
    <contour>
      <point x="376" y="125" type="curve" smooth="yes"/>
      <point x="453" y="125"/>
      <point x="506" y="254"/>
      <point x="506" y="500" type="curve" smooth="yes"/>
      <point x="506" y="736"/>
      <point x="456" y="882"/>
      <point x="377" y="882" type="curve" smooth="yes"/>
      <point x="302" y="882"/>
      <point x="255" y="743"/>
      <point x="255" y="500" type="curve" smooth="yes"/>
      <point x="255" y="227"/>
      <point x="304" y="125"/>
    </contour>
  </outline>
</glyph>
<glyph name="r" format="1">
  <advance width="496"/>
  <unicode hex="0072"/>
  <outline>
    <contour>
      <point x="129" y="0" type="line" smooth="yes"/>
      <point x="115" y="0"/>
      <point x="104" y="26"/>
      <point x="104" y="69" type="curve" smooth="yes"/>
      <point x="104" y="929" type="line" smooth="yes"/>
      <point x="104" y="972"/>
      <point x="109" y="1006"/>
      <point x="123" y="1006" type="curve" smooth="yes"/>
      <point x="161" y="1006" type="line" smooth="yes"/>
      <point x="177" y="1006"/>
      <point x="183" y="985"/>
      <point x="191" y="942" type="curve" smooth="yes"/>
      <point x="214" y="806" type="line" smooth="yes"/>
      <point x="215" y="798"/>
      <point x="218" y="791"/>
      <point x="221" y="791" type="curve" smooth="yes"/>
      <point x="224" y="791"/>
      <point x="226" y="799"/>
      <point x="227" y="806" type="curve" smooth="yes"/>
      <point x="269" y="955"/>
      <point x="330" y="1014"/>
      <point x="386" y="1016" type="curve"/>
      <point x="402" y="1016" type="line" smooth="yes"/>
      <point x="438" y="1016"/>
      <point x="446" y="997"/>
      <point x="446" y="962" type="curve" smooth="yes"/>
      <point x="446" y="862" type="line" smooth="yes"/>
      <point x="446" y="829"/>
      <point x="441" y="824"/>
      <point x="428" y="824" type="curve" smooth="yes"/>
      <point x="427" y="824"/>
      <point x="385" y="822"/>
      <point x="375" y="818" type="curve"/>
      <point x="295" y="795"/>
      <point x="266" y="632"/>
      <point x="266" y="519" type="curve" smooth="yes"/>
      <point x="266" y="69" type="line" smooth="yes"/>
      <point x="266" y="26"/>
      <point x="255" y="0"/>
      <point x="241" y="0" type="curve" smooth="yes"/>
    </contour>
  </outline>
</glyph>
<glyph name="s" format="1">
  <advance width="596"/>
  <unicode hex="0073"/>
  <outline>
    <contour>
      <point x="289" y="-11" type="curve" smooth="yes"/>
      <point x="197" y="-11"/>
      <point x="105" y="35"/>
      <point x="40" y="114" type="curve"/>
      <point x="99" y="229" type="line"/>
      <point x="157" y="163"/>
      <point x="218" y="125"/>
      <point x="283" y="125" type="curve" smooth="yes"/>
      <point x="364" y="125"/>
      <point x="399" y="192"/>
      <point x="399" y="261" type="curve" smooth="yes"/>
      <point x="399" y="341"/>
      <point x="351" y="378"/>
      <point x="259" y="442" type="curve" smooth="yes"/>
      <point x="151" y="517"/>
      <point x="76" y="583"/>
      <point x="76" y="747" type="curve" smooth="yes"/>
      <point x="76" y="901"/>
      <point x="169" y="1018"/>
      <point x="311" y="1018" type="curve" smooth="yes"/>
      <point x="401" y="1018"/>
      <point x="475" y="977"/>
      <point x="529" y="917" type="curve"/>
      <point x="467" y="798" type="line"/>
      <point x="423" y="846"/>
      <point x="377" y="876"/>
      <point x="324" y="876" type="curve" smooth="yes"/>
      <point x="259" y="876"/>
      <point x="225" y="823"/>
      <point x="225" y="759" type="curve" smooth="yes"/>
      <point x="225" y="679"/>
      <point x="276" y="633"/>
      <point x="350" y="586" type="curve" smooth="yes"/>
      <point x="457" y="518"/>
      <point x="547" y="437"/>
      <point x="547" y="260" type="curve" smooth="yes"/>
      <point x="547" y="93"/>
      <point x="454" y="-11"/>
    </contour>
  </outline>
</glyph>
<glyph name="t" format="1">
  <advance width="522"/>
  <unicode hex="0074"/>
  <outline>
    <contour>
      <point x="361" y="-2" type="line" smooth="yes"/>
      <point x="243" y="-2"/>
      <point x="131" y="32"/>
      <point x="131" y="322" type="curve" smooth="yes"/>
      <point x="131" y="835" type="line" smooth="yes"/>
      <point x="131" y="853"/>
      <point x="126" y="855"/>
      <point x="120" y="855" type="curve" smooth="yes"/>
      <point x="58" y="855" type="line" smooth="yes"/>
      <point x="44" y="855"/>
      <point x="33" y="865"/>
      <point x="33" y="903" type="curve" smooth="yes"/>
      <point x="33" y="957" type="line" smooth="yes"/>
      <point x="33" y="997"/>
      <point x="44" y="1006"/>
      <point x="58" y="1006" type="curve" smooth="yes"/>
      <point x="120" y="1006" type="line" smooth="yes"/>
      <point x="126" y="1006"/>
      <point x="131" y="1013"/>
      <point x="131" y="1033" type="curve" smooth="yes"/>
      <point x="149" y="1422" type="line" smooth="yes"/>
      <point x="151" y="1464"/>
      <point x="161" y="1475"/>
      <point x="175" y="1475" type="curve" smooth="yes"/>
      <point x="275" y="1475" type="line" smooth="yes"/>
      <point x="290" y="1475"/>
      <point x="300" y="1465"/>
      <point x="300" y="1422" type="curve" smooth="yes"/>
      <point x="300" y="1033" type="line" smooth="yes"/>
      <point x="300" y="1013"/>
      <point x="304" y="1006"/>
      <point x="312" y="1006" type="curve" smooth="yes"/>
      <point x="440" y="1006" type="line" smooth="yes"/>
      <point x="455" y="1006"/>
      <point x="465" y="997"/>
      <point x="465" y="957" type="curve" smooth="yes"/>
      <point x="465" y="903" type="line" smooth="yes"/>
      <point x="465" y="865"/>
      <point x="455" y="855"/>
      <point x="440" y="855" type="curve" smooth="yes"/>
      <point x="312" y="855" type="line" smooth="yes"/>
      <point x="304" y="855"/>
      <point x="300" y="853"/>
      <point x="300" y="835" type="curve" smooth="yes"/>
      <point x="300" y="319" type="line" smooth="yes"/>
      <point x="300" y="156"/>
      <point x="346" y="136"/>
      <point x="394" y="136" type="curve" smooth="yes"/>
      <point x="465" y="136" type="line" smooth="yes"/>
      <point x="480" y="136"/>
      <point x="492" y="129"/>
      <point x="492" y="99" type="curve" smooth="yes"/>
      <point x="492" y="39" type="line" smooth="yes"/>
      <point x="492" y="6"/>
      <point x="480" y="-2"/>
      <point x="463" y="-2" type="curve" smooth="yes"/>
    </contour>
  </outline>
</glyph>
<glyph name="u" format="1">
  <advance width="755"/>
  <unicode hex="0075"/>
  <outline>
    <contour>
      <point x="326" y="-11" type="curve" smooth="yes"/>
      <point x="200" y="-11"/>
      <point x="91" y="57"/>
      <point x="91" y="372" type="curve" smooth="yes"/>
      <point x="91" y="957" type="line" smooth="yes"/>
      <point x="91" y="1000"/>
      <point x="102" y="1006"/>
      <point x="117" y="1006" type="curve" smooth="yes"/>
      <point x="235" y="1006" type="line" smooth="yes"/>
      <point x="249" y="1006"/>
      <point x="260" y="1000"/>
      <point x="260" y="957" type="curve" smooth="yes"/>
      <point x="260" y="345" type="line" smooth="yes"/>
      <point x="260" y="181"/>
      <point x="295" y="125"/>
      <point x="362" y="125" type="curve" smooth="yes"/>
      <point x="443" y="125"/>
      <point x="492" y="257"/>
      <point x="492" y="390" type="curve" smooth="yes"/>
      <point x="492" y="957" type="line" smooth="yes"/>
      <point x="492" y="1000"/>
      <point x="503" y="1006"/>
      <point x="518" y="1006" type="curve" smooth="yes"/>
      <point x="630" y="1006" type="line" smooth="yes"/>
      <point x="645" y="1006"/>
      <point x="656" y="1000"/>
      <point x="656" y="957" type="curve" smooth="yes"/>
      <point x="656" y="61" type="line" smooth="yes"/>
      <point x="656" y="18"/>
      <point x="646" y="0"/>
      <point x="631" y="0" type="curve" smooth="yes"/>
      <point x="605" y="0" type="line" smooth="yes"/>
      <point x="589" y="0"/>
      <point x="576" y="5"/>
      <point x="569" y="48" type="curve" smooth="yes"/>
      <point x="546" y="190" type="line" smooth="yes"/>
      <point x="544" y="198"/>
      <point x="541" y="203"/>
      <point x="539" y="203" type="curve" smooth="yes"/>
      <point x="536" y="203"/>
      <point x="534" y="198"/>
      <point x="532" y="191" type="curve" smooth="yes"/>
      <point x="497" y="45"/>
      <point x="406" y="-11"/>
    </contour>
  </outline>
</glyph>
<glyph name="v" format="1">
  <advance width="663"/>
  <unicode hex="0076"/>
  <outline>
    <contour>
      <point x="275" y="0" type="line" smooth="yes"/>
      <point x="260" y="0"/>
      <point x="246" y="27"/>
      <point x="238" y="68" type="curve" smooth="yes"/>
      <point x="57" y="942" type="line" smooth="yes"/>
      <point x="54.9316" y="951.988"/>
      <point x="55" y="961"/>
      <point x="55" y="970" type="curve" smooth="yes"/>
      <point x="55" y="992"/>
      <point x="60" y="1006"/>
      <point x="70" y="1006" type="curve" smooth="yes"/>
      <point x="192" y="1006" type="line" smooth="yes"/>
      <point x="208" y="1006"/>
      <point x="219.697" y="987.113"/>
      <point x="226" y="946" type="curve" smooth="yes"/>
      <point x="340" y="248" type="line" smooth="yes"/>
      <point x="341.14" y="241.023"/>
      <point x="343" y="238"/>
      <point x="345" y="238" type="curve" smooth="yes"/>
      <point x="347" y="238"/>
      <point x="348" y="241"/>
      <point x="349" y="248" type="curve" smooth="yes"/>
      <point x="446" y="946" type="line" smooth="yes"/>
      <point x="451.84" y="988.021"/>
      <point x="466" y="1006"/>
      <point x="482" y="1006" type="curve" smooth="yes"/>
      <point x="594" y="1006" type="line" smooth="yes"/>
      <point x="603" y="1006"/>
      <point x="609" y="993"/>
      <point x="609" y="972" type="curve" smooth="yes"/>
      <point x="609" y="964"/>
      <point x="607.13" y="953.975"/>
      <point x="605" y="943" type="curve" smooth="yes"/>
      <point x="435" y="67" type="line" smooth="yes"/>
      <point x="427" y="27"/>
      <point x="413" y="0"/>
      <point x="397" y="0" type="curve" smooth="yes"/>
    </contour>
  </outline>
</glyph>
<glyph name="w" format="1">
  <advance width="922"/>
  <unicode hex="0077"/>
  <outline>
    <contour>
      <point x="232" y="0" type="line" smooth="yes"/>
      <point x="217" y="0"/>
      <point x="203" y="15"/>
      <point x="197" y="57" type="curve" smooth="yes"/>
      <point x="59" y="941" type="line" smooth="yes"/>
      <point x="58" y="950"/>
      <point x="57" y="959"/>
      <point x="57" y="967" type="curve" smooth="yes"/>
      <point x="57" y="991"/>
      <point x="63" y="1006"/>
      <point x="74" y="1006" type="curve" smooth="yes"/>
      <point x="173" y="1006" type="line" smooth="yes"/>
      <point x="189" y="1006"/>
      <point x="199.387" y="988.052"/>
      <point x="205" y="944" type="curve" smooth="yes"/>
      <point x="297" y="222" type="line" smooth="yes"/>
      <point x="297.876" y="215.98"/>
      <point x="300" y="213"/>
      <point x="300" y="213" type="curve"/>
      <point x="302" y="213"/>
      <point x="304" y="216"/>
      <point x="304" y="221" type="curve" smooth="yes"/>
      <point x="398" y="945" type="line" smooth="yes"/>
      <point x="403" y="989"/>
      <point x="416" y="1006"/>
      <point x="431" y="1006" type="curve" smooth="yes"/>
      <point x="521" y="1006" type="line" smooth="yes"/>
      <point x="535" y="1006"/>
      <point x="546.602" y="987.082"/>
      <point x="552" y="945" type="curve" smooth="yes"/>
      <point x="645" y="220" type="line" smooth="yes"/>
      <point x="645" y="214"/>
      <point x="647" y="212"/>
      <point x="649" y="212" type="curve" smooth="yes"/>
      <point x="651" y="212"/>
      <point x="651.456" y="216.037"/>
      <point x="652" y="220" type="curve" smooth="yes"/>
      <point x="739" y="944" type="line" smooth="yes"/>
      <point x="744.402" y="988.953"/>
      <point x="756" y="1006"/>
      <point x="772" y="1006" type="curve" smooth="yes"/>
      <point x="849" y="1006" type="line" smooth="yes"/>
      <point x="859" y="1006"/>
      <point x="865" y="993"/>
      <point x="865" y="970" type="curve" smooth="yes"/>
      <point x="865" y="961"/>
      <point x="864" y="952"/>
      <point x="862" y="942" type="curve" smooth="yes"/>
      <point x="738" y="57" type="line" smooth="yes"/>
      <point x="731" y="14"/>
      <point x="717" y="0"/>
      <point x="702" y="0" type="curve" smooth="yes"/>
      <point x="597" y="0" type="line" smooth="yes"/>
      <point x="582" y="0"/>
      <point x="568.12" y="16.0176"/>
      <point x="562" y="59" type="curve" smooth="yes"/>
      <point x="474" y="677" type="line" smooth="yes"/>
      <point x="474" y="682"/>
      <point x="473" y="684"/>
      <point x="471" y="684" type="curve" smooth="yes"/>
      <point x="470" y="684"/>
      <point x="467" y="681"/>
      <point x="466" y="677" type="curve" smooth="yes"/>
      <point x="376" y="59" type="line" smooth="yes"/>
      <point x="369.601" y="15.0557"/>
      <point x="355" y="0"/>
      <point x="340" y="0" type="curve" smooth="yes"/>
    </contour>
  </outline>
</glyph>
<glyph name="x" format="1">
  <advance width="677"/>
  <unicode hex="0078"/>
  <outline>
    <contour>
      <point x="59" y="0" type="line" smooth="yes"/>
      <point x="54" y="0"/>
      <point x="51" y="13"/>
      <point x="51" y="26" type="curve" smooth="yes"/>
      <point x="51" y="33"/>
      <point x="52" y="40"/>
      <point x="54" y="46" type="curve" smooth="yes"/>
      <point x="237" y="464" type="line" smooth="yes"/>
      <point x="239" y="469"/>
      <point x="240" y="474"/>
      <point x="240" y="481" type="curve" smooth="yes"/>
      <point x="240" y="488"/>
      <point x="239" y="495"/>
      <point x="238" y="500" type="curve" smooth="yes"/>
      <point x="50" y="958" type="line" smooth="yes"/>
      <point x="48" y="963"/>
      <point x="46" y="971"/>
      <point x="46" y="979" type="curve" smooth="yes"/>
      <point x="46" y="993"/>
      <point x="50" y="1006"/>
      <point x="56" y="1006" type="curve" smooth="yes"/>
      <point x="191" y="1006" type="line" smooth="yes"/>
      <point x="207" y="1006"/>
      <point x="222" y="986"/>
      <point x="234" y="956" type="curve" smooth="yes"/>
      <point x="334" y="699" type="line" smooth="yes"/>
      <point x="336" y="693"/>
      <point x="339" y="691"/>
      <point x="341" y="691" type="curve" smooth="yes"/>
      <point x="344" y="691"/>
      <point x="347" y="693"/>
      <point x="349" y="698" type="curve" smooth="yes"/>
      <point x="445" y="958" type="line" smooth="yes"/>
      <point x="456.008" y="987.813"/>
      <point x="473" y="1006"/>
      <point x="489" y="1006" type="curve" smooth="yes"/>
      <point x="602" y="1006" type="line" smooth="yes"/>
      <point x="608" y="1006"/>
      <point x="611" y="993"/>
      <point x="611" y="981" type="curve" smooth="yes"/>
      <point x="611" y="973"/>
      <point x="610" y="966"/>
      <point x="607" y="960" type="curve" smooth="yes"/>
      <point x="434" y="567" type="line" smooth="yes"/>
      <point x="431" y="562"/>
      <point x="429" y="557"/>
      <point x="429" y="549" type="curve" smooth="yes"/>
      <point x="429" y="543"/>
      <point x="431" y="535"/>
      <point x="433" y="530" type="curve" smooth="yes"/>
      <point x="635" y="48" type="line" smooth="yes"/>
      <point x="637" y="43"/>
      <point x="638" y="35"/>
      <point x="638" y="27" type="curve" smooth="yes"/>
      <point x="638" y="13"/>
      <point x="635" y="0"/>
      <point x="629" y="0" type="curve" smooth="yes"/>
      <point x="493" y="0" type="line" smooth="yes"/>
      <point x="476" y="0"/>
      <point x="459" y="20"/>
      <point x="447" y="50" type="curve" smooth="yes"/>
      <point x="348" y="318" type="line" smooth="yes"/>
      <point x="346" y="324"/>
      <point x="343" y="328"/>
      <point x="339" y="328" type="curve" smooth="yes"/>
      <point x="337" y="328"/>
      <point x="331.766" y="326.304"/>
      <point x="329" y="319" type="curve" smooth="yes"/>
      <point x="226" y="47" type="line" smooth="yes"/>
      <point x="214.745" y="17.2793"/>
      <point x="196" y="0"/>
      <point x="181" y="0" type="curve" smooth="yes"/>
    </contour>
  </outline>
</glyph>
<glyph name="y" format="1">
  <advance width="662"/>
  <unicode hex="0079"/>
  <outline>
    <contour>
      <point x="223" y="-122" type="curve" smooth="yes"/>
      <point x="251" y="-122"/>
      <point x="280" y="-76"/>
      <point x="280" y="22" type="curve" smooth="yes"/>
      <point x="280" y="53"/>
      <point x="268" y="95"/>
      <point x="260" y="133" type="curve"/>
      <point x="64" y="948" type="line" smooth="yes"/>
      <point x="63" y="955"/>
      <point x="62" y="963"/>
      <point x="62" y="970" type="curve" smooth="yes"/>
      <point x="62" y="993"/>
      <point x="69" y="1006"/>
      <point x="77" y="1006" type="curve" smooth="yes"/>
      <point x="198" y="1006" type="line" smooth="yes"/>
      <point x="214" y="1006"/>
      <point x="228" y="1000"/>
      <point x="235" y="958" type="curve" smooth="yes"/>
      <point x="365" y="270" type="line" smooth="yes"/>
      <point x="367" y="264"/>
      <point x="368" y="258"/>
      <point x="370" y="258" type="curve" smooth="yes"/>
      <point x="372" y="258"/>
      <point x="374" y="262"/>
      <point x="374" y="269" type="curve"/>
      <point x="476" y="955" type="line" smooth="yes"/>
      <point x="482" y="998"/>
      <point x="494" y="1006"/>
      <point x="510" y="1006" type="curve" smooth="yes"/>
      <point x="594" y="1006" type="line" smooth="yes"/>
      <point x="604" y="1006"/>
      <point x="611" y="993"/>
      <point x="611" y="967" type="curve" smooth="yes"/>
      <point x="611" y="960"/>
      <point x="610" y="951"/>
      <point x="609" y="944" type="curve" smooth="yes"/>
      <point x="431" y="17" type="line"/>
      <point x="389" y="-215"/>
      <point x="343" y="-263"/>
      <point x="247" y="-265" type="curve" smooth="yes"/>
      <point x="237" y="-265" type="line" smooth="yes"/>
      <point x="197" y="-265"/>
      <point x="148" y="-253"/>
      <point x="127" y="-222" type="curve"/>
      <point x="120" y="-214"/>
      <point x="119" y="-196"/>
      <point x="119" y="-176" type="curve" smooth="yes"/>
      <point x="119" y="-112"/>
      <point x="135" y="-102"/>
      <point x="143" y="-102" type="curve" smooth="yes"/>
      <point x="150" y="-102"/>
      <point x="205" y="-122"/>
    </contour>
  </outline>
</glyph>
<glyph name="z" format="1">
  <advance width="580"/>
  <unicode hex="007A"/>
  <outline>
    <contour>
      <point x="100" y="0" type="line" smooth="yes"/>
      <point x="93" y="0"/>
      <point x="84" y="8"/>
      <point x="84" y="25" type="curve" smooth="yes"/>
      <point x="84" y="139" type="line" smooth="yes"/>
      <point x="84" y="162"/>
      <point x="89" y="178"/>
      <point x="97" y="199" type="curve" smooth="yes"/>
      <point x="329" y="852" type="line"/>
      <point x="97" y="852" type="line"/>
      <point x="91" y="850"/>
      <point x="86" y="858"/>
      <point x="86" y="878" type="curve" smooth="yes"/>
      <point x="86" y="979" type="line" smooth="yes"/>
      <point x="86" y="997"/>
      <point x="91" y="1006"/>
      <point x="97" y="1006" type="curve" smooth="yes"/>
      <point x="493" y="1006" type="line" smooth="yes"/>
      <point x="500" y="1006"/>
      <point x="508" y="998"/>
      <point x="508" y="979" type="curve" smooth="yes"/>
      <point x="508" y="851" type="line" smooth="yes"/>
      <point x="508" y="828"/>
      <point x="504" y="810"/>
      <point x="498" y="796" type="curve"/>
      <point x="273" y="153" type="line"/>
      <point x="506" y="153" type="line"/>
      <point x="512" y="155"/>
      <point x="519" y="145"/>
      <point x="519" y="127" type="curve" smooth="yes"/>
      <point x="519" y="25" type="line" smooth="yes"/>
      <point x="519" y="8"/>
      <point x="512" y="0"/>
      <point x="506" y="0" type="curve" smooth="yes"/>
    </contour>
  </outline>
</glyph>
<glyph name="braceleft" format="1">
  <advance width="526"/>
  <unicode hex="007B"/>
  <outline>
    <contour>
      <point x="427" y="1543" type="line" smooth="yes"/>
      <point x="441" y="1543"/>
      <point x="453" y="1518"/>
      <point x="453" y="1482" type="curve" smooth="yes"/>
      <point x="453" y="1456" type="line" smooth="yes"/>
      <point x="453" y="1415"/>
      <point x="445" y="1393"/>
      <point x="416" y="1393" type="curve" smooth="yes"/>
      <point x="368" y="1393"/>
      <point x="364" y="1357"/>
      <point x="363" y="1161" type="curve" smooth="yes"/>
      <point x="363" y="1005" type="line" smooth="yes"/>
      <point x="362" y="865"/>
      <point x="355" y="755"/>
      <point x="293" y="731" type="curve" smooth="yes"/>
      <point x="288" y="729"/>
      <point x="287" y="713"/>
      <point x="293" y="711" type="curve" smooth="yes"/>
      <point x="353" y="688"/>
      <point x="360" y="589"/>
      <point x="360" y="456" type="curve" smooth="yes"/>
      <point x="360" y="302" type="line" smooth="yes"/>
      <point x="361" y="96"/>
      <point x="365" y="47"/>
      <point x="416" y="47" type="curve" smooth="yes"/>
      <point x="445" y="47"/>
      <point x="453" y="26"/>
      <point x="453" y="-16" type="curve" smooth="yes"/>
      <point x="453" y="-42" type="line" smooth="yes"/>
      <point x="453" y="-78"/>
      <point x="441" y="-103"/>
      <point x="427" y="-103" type="curve" smooth="yes"/>
      <point x="345" y="-103" type="line" smooth="yes"/>
      <point x="244" y="-103"/>
      <point x="201" y="-7"/>
      <point x="198" y="290" type="curve" smooth="yes"/>
      <point x="198" y="423" type="line" smooth="yes"/>
      <point x="196" y="571"/>
      <point x="179" y="619"/>
      <point x="130" y="620" type="curve" smooth="yes"/>
      <point x="98" y="621"/>
      <point x="90" y="641"/>
      <point x="90" y="696" type="curve" smooth="yes"/>
      <point x="90" y="751" type="line" smooth="yes"/>
      <point x="90" y="803"/>
      <point x="100" y="817"/>
      <point x="130" y="818" type="curve" smooth="yes"/>
      <point x="180" y="819"/>
      <point x="195" y="886"/>
      <point x="198" y="1029" type="curve" smooth="yes"/>
      <point x="198" y="1040"/>
      <point x="199" y="1161"/>
      <point x="199" y="1168" type="curve" smooth="yes"/>
      <point x="202" y="1466"/>
      <point x="247" y="1543"/>
      <point x="345" y="1543" type="curve" smooth="yes"/>
    </contour>
  </outline>
</glyph>
<glyph name="bar" format="1">
  <advance width="329"/>
  <unicode hex="007C"/>
  <outline>
    <contour>
      <point x="143" y="-150" type="line" smooth="yes"/>
      <point x="128" y="-150"/>
      <point x="116" y="-123"/>
      <point x="116" y="-80" type="curve" smooth="yes"/>
      <point x="116" y="1485" type="line" smooth="yes"/>
      <point x="116" y="1528"/>
      <point x="128" y="1555"/>
      <point x="143" y="1555" type="curve" smooth="yes"/>
      <point x="185" y="1555" type="line" smooth="yes"/>
      <point x="200" y="1555"/>
      <point x="212" y="1528"/>
      <point x="212" y="1485" type="curve" smooth="yes"/>
      <point x="212" y="-80" type="line" smooth="yes"/>
      <point x="212" y="-123"/>
      <point x="200" y="-150"/>
      <point x="185" y="-150" type="curve" smooth="yes"/>
    </contour>
  </outline>
</glyph>
<glyph name="braceright" format="1">
  <advance width="526"/>
  <unicode hex="007D"/>
  <outline>
    <contour>
      <point x="116" y="-103" type="line" smooth="yes"/>
      <point x="102" y="-103"/>
      <point x="90" y="-78"/>
      <point x="90" y="-42" type="curve" smooth="yes"/>
      <point x="90" y="-16" type="line" smooth="yes"/>
      <point x="90" y="26"/>
      <point x="98" y="47"/>
      <point x="127" y="47" type="curve" smooth="yes"/>
      <point x="175" y="47"/>
      <point x="179" y="83"/>
      <point x="180" y="279" type="curve" smooth="yes"/>
      <point x="180" y="435" type="line" smooth="yes"/>
      <point x="181" y="575"/>
      <point x="188" y="686"/>
      <point x="250" y="709" type="curve" smooth="yes"/>
      <point x="255" y="711"/>
      <point x="256" y="727"/>
      <point x="250" y="730" type="curve" smooth="yes"/>
      <point x="191" y="752"/>
      <point x="184" y="851"/>
      <point x="183" y="984" type="curve" smooth="yes"/>
      <point x="183" y="1138" type="line" smooth="yes"/>
      <point x="182" y="1345"/>
      <point x="178" y="1393"/>
      <point x="127" y="1393" type="curve" smooth="yes"/>
      <point x="98" y="1393"/>
      <point x="90" y="1415"/>
      <point x="90" y="1456" type="curve" smooth="yes"/>
      <point x="90" y="1482" type="line" smooth="yes"/>
      <point x="90" y="1518"/>
      <point x="102" y="1543"/>
      <point x="116" y="1543" type="curve" smooth="yes"/>
      <point x="198" y="1543" type="line" smooth="yes"/>
      <point x="299" y="1543"/>
      <point x="342" y="1448"/>
      <point x="345" y="1151" type="curve" smooth="yes"/>
      <point x="345" y="1018" type="line" smooth="yes"/>
      <point x="348" y="869"/>
      <point x="365" y="821"/>
      <point x="413" y="820" type="curve" smooth="yes"/>
      <point x="445" y="819"/>
      <point x="453" y="799"/>
      <point x="453" y="745" type="curve" smooth="yes"/>
      <point x="453" y="690" type="line" smooth="yes"/>
      <point x="453" y="637"/>
      <point x="443" y="623"/>
      <point x="413" y="623" type="curve"/>
      <point x="363" y="621"/>
      <point x="348" y="555"/>
      <point x="346" y="412" type="curve" smooth="yes"/>
      <point x="345" y="401"/>
      <point x="344" y="280"/>
      <point x="344" y="273" type="curve" smooth="yes"/>
      <point x="341" y="-26"/>
      <point x="296" y="-103"/>
      <point x="198" y="-103" type="curve" smooth="yes"/>
    </contour>
  </outline>
</glyph>
<glyph name="asciitilde" format="1">
  <advance width="949"/>
  <unicode hex="007E"/>
  <outline>
    <contour>
      <point x="293" y="532" type="curve" smooth="yes"/>
      <point x="193" y="532"/>
      <point x="138" y="575"/>
      <point x="92" y="653" type="curve" smooth="yes"/>
      <point x="85" y="665"/>
      <point x="79" y="677"/>
      <point x="79" y="691" type="curve" smooth="yes"/>
      <point x="79" y="714.548"/>
      <point x="116.89" y="784"/>
      <point x="141" y="784" type="curve" smooth="yes"/>
      <point x="155" y="784"/>
      <point x="161" y="775"/>
      <point x="165" y="767" type="curve" smooth="yes"/>
      <point x="207" y="688"/>
      <point x="238" y="675"/>
      <point x="293" y="675" type="curve" smooth="yes"/>
      <point x="403" y="676"/>
      <point x="532" y="804"/>
      <point x="660" y="804" type="curve" smooth="yes"/>
      <point x="743" y="804"/>
      <point x="808" y="770"/>
      <point x="863" y="683" type="curve" smooth="yes"/>
      <point x="868" y="675"/>
      <point x="870" y="666"/>
      <point x="870" y="656" type="curve" smooth="yes"/>
      <point x="870" y="621"/>
      <point x="841" y="563"/>
      <point x="811" y="563" type="curve" smooth="yes"/>
      <point x="802" y="563"/>
      <point x="793" y="568"/>
      <point x="784" y="581" type="curve" smooth="yes"/>
      <point x="744" y="635"/>
      <point x="721" y="661"/>
      <point x="674" y="661" type="curve" smooth="yes"/>
      <point x="562" y="661"/>
      <point x="427" y="532"/>
    </contour>
  </outline>
</glyph>
<glyph name="cent" format="1">
  <advance width="582"/>
  <unicode hex="00A2"/>
  <outline>
    <contour>
      <point x="523" y="980" type="curve" smooth="yes"/>
      <point x="523" y="874" type="line"/>
      <point x="524" y="865"/>
      <point x="517" y="858"/>
      <point x="512" y="858" type="curve" smooth="yes"/>
      <point x="491" y="861"/>
      <point x="466" y="871"/>
      <point x="446" y="873" type="curve"/>
      <point x="446" y="133" type="line"/>
      <point x="469" y="136"/>
      <point x="492" y="142"/>
      <point x="511" y="148" type="curve"/>
      <point x="517" y="147"/>
      <point x="524" y="135"/>
      <point x="524" y="127" type="curve" smooth="yes"/>
      <point x="524" y="28" type="line" smooth="yes"/>
      <point x="524" y="-3"/>
      <point x="472" y="-4"/>
      <point x="446" y="-7" type="curve"/>
      <point x="446" y="-127" type="line" smooth="yes"/>
      <point x="446" y="-165"/>
      <point x="437" y="-181"/>
      <point x="422" y="-181" type="curve" smooth="yes"/>
      <point x="396" y="-181" type="line" smooth="yes"/>
      <point x="381" y="-181"/>
      <point x="372" y="-165"/>
      <point x="372" y="-127" type="curve" smooth="yes"/>
      <point x="372" y="-11" type="line"/>
      <point x="227" y="-5"/>
      <point x="81" y="67"/>
      <point x="81" y="509" type="curve" smooth="yes"/>
      <point x="81" y="932"/>
      <point x="227" y="1016"/>
      <point x="372" y="1017" type="curve"/>
      <point x="372" y="1177" type="line" smooth="yes"/>
      <point x="372" y="1215"/>
      <point x="381" y="1230"/>
      <point x="396" y="1230" type="curve" smooth="yes"/>
      <point x="422" y="1230" type="line" smooth="yes"/>
      <point x="437" y="1230"/>
      <point x="446" y="1215"/>
      <point x="446" y="1177" type="curve" smooth="yes"/>
      <point x="446" y="1010" type="line"/>
      <point x="463" y="1007"/>
      <point x="523" y="1002"/>
    </contour>
    <contour>
      <point x="372" y="136" type="curve"/>
      <point x="372" y="871" type="line"/>
      <point x="310" y="854"/>
      <point x="255" y="788"/>
      <point x="255" y="509" type="curve" smooth="yes"/>
      <point x="255" y="215"/>
      <point x="305" y="149"/>
    </contour>
  </outline>
</glyph>
<glyph name="sterling" format="1">
  <advance width="963"/>
  <unicode hex="00A3"/>
  <outline>
    <contour>
      <point x="636" y="1467" type="curve" smooth="yes"/>
      <point x="755" y="1467"/>
      <point x="841" y="1431"/>
      <point x="876" y="1413" type="curve" smooth="yes"/>
      <point x="904" y="1398"/>
      <point x="924" y="1389"/>
      <point x="924" y="1364" type="curve" smooth="yes"/>
      <point x="924" y="1360"/>
      <point x="923" y="1356"/>
      <point x="922" y="1351" type="curve" smooth="yes"/>
      <point x="907" y="1282" type="line" smooth="yes"/>
      <point x="900" y="1254"/>
      <point x="888" y="1247"/>
      <point x="861" y="1253" type="curve"/>
      <point x="808" y="1260"/>
      <point x="770" y="1303"/>
      <point x="646" y="1303" type="curve" smooth="yes"/>
      <point x="448" y="1303"/>
      <point x="417" y="1220"/>
      <point x="417" y="918" type="curve" smooth="yes"/>
      <point x="417" y="808" type="line"/>
      <point x="701" y="808" type="line" smooth="yes"/>
      <point x="733" y="808"/>
      <point x="750" y="792"/>
      <point x="750" y="756" type="curve" smooth="yes"/>
      <point x="750" y="719" type="line" smooth="yes"/>
      <point x="750" y="683"/>
      <point x="733" y="667"/>
      <point x="701" y="667" type="curve" smooth="yes"/>
      <point x="415" y="667" type="line"/>
      <point x="415" y="194" type="line" smooth="yes"/>
      <point x="415" y="156"/>
      <point x="417" y="148"/>
      <point x="449" y="148" type="curve" smooth="yes"/>
      <point x="882" y="148" type="line" smooth="yes"/>
      <point x="911" y="148"/>
      <point x="924" y="138"/>
      <point x="924" y="103" type="curve" smooth="yes"/>
      <point x="924" y="37" type="line" smooth="yes"/>
      <point x="924" y="7"/>
      <point x="911" y="0"/>
      <point x="882" y="0" type="curve" smooth="yes"/>
      <point x="98" y="0" type="line" smooth="yes"/>
      <point x="58" y="0"/>
      <point x="49" y="16"/>
      <point x="49" y="51" type="curve" smooth="yes"/>
      <point x="49" y="94" type="line" smooth="yes"/>
      <point x="49" y="130"/>
      <point x="58" y="148"/>
      <point x="98" y="148" type="curve" smooth="yes"/>
      <point x="189" y="148" type="line" smooth="yes"/>
      <point x="216" y="148"/>
      <point x="219" y="152"/>
      <point x="219" y="171" type="curve" smooth="yes"/>
      <point x="219" y="624" type="line" smooth="yes"/>
      <point x="219" y="651"/>
      <point x="212" y="667"/>
      <point x="189" y="667" type="curve" smooth="yes"/>
      <point x="98" y="667" type="line" smooth="yes"/>
      <point x="66" y="667"/>
      <point x="49" y="683"/>
      <point x="49" y="719" type="curve" smooth="yes"/>
      <point x="49" y="756" type="line" smooth="yes"/>
      <point x="49" y="792"/>
      <point x="66" y="808"/>
      <point x="98" y="808" type="curve" smooth="yes"/>
      <point x="215" y="808" type="line"/>
      <point x="215" y="838"/>
      <point x="214" y="923"/>
      <point x="214" y="958" type="curve" smooth="yes"/>
      <point x="214" y="1227"/>
      <point x="251" y="1467"/>
    </contour>
  </outline>
</glyph>
<glyph name="currency" format="1">
  <advance width="1193"/>
  <unicode hex="00A4"/>
  <outline>
    <contour>
      <point x="596" y="515" type="curve" smooth="yes"/>
      <point x="473" y="515"/>
      <point x="394" y="545"/>
      <point x="316" y="596" type="curve"/>
      <point x="288" y="568" type="line" smooth="yes"/>
      <point x="269" y="548"/>
      <point x="252" y="532"/>
      <point x="236" y="532" type="curve" smooth="yes"/>
      <point x="228" y="532"/>
      <point x="220" y="535"/>
      <point x="213" y="543" type="curve" smooth="yes"/>
      <point x="183" y="572" type="line" smooth="yes"/>
      <point x="174" y="582"/>
      <point x="170" y="591"/>
      <point x="170" y="599" type="curve" smooth="yes"/>
      <point x="170" y="616"/>
      <point x="186" y="632"/>
      <point x="204" y="650" type="curve" smooth="yes"/>
      <point x="227" y="673" type="line"/>
      <point x="156" y="755"/>
      <point x="119" y="862"/>
      <point x="119" y="977" type="curve" smooth="yes"/>
      <point x="119" y="1095"/>
      <point x="157" y="1203"/>
      <point x="229" y="1286" type="curve"/>
      <point x="204" y="1311" type="line" smooth="yes"/>
      <point x="185" y="1330"/>
      <point x="168" y="1347"/>
      <point x="168" y="1363" type="curve" smooth="yes"/>
      <point x="168" y="1371"/>
      <point x="172" y="1379"/>
      <point x="180" y="1386" type="curve" smooth="yes"/>
      <point x="210" y="1415" type="line" smooth="yes"/>
      <point x="219" y="1425"/>
      <point x="228" y="1428"/>
      <point x="237" y="1428" type="curve" smooth="yes"/>
      <point x="254" y="1428"/>
      <point x="269" y="1413"/>
      <point x="288" y="1394" type="curve" smooth="yes"/>
      <point x="319" y="1363" type="line"/>
      <point x="397" y="1414"/>
      <point x="475" y="1444"/>
      <point x="596" y="1444" type="curve" smooth="yes"/>
      <point x="717" y="1444"/>
      <point x="796" y="1414"/>
      <point x="874" y="1363" type="curve"/>
      <point x="904" y="1393" type="line" smooth="yes"/>
      <point x="924" y="1413"/>
      <point x="939" y="1428"/>
      <point x="957" y="1428" type="curve" smooth="yes"/>
      <point x="965" y="1428"/>
      <point x="973" y="1425"/>
      <point x="982" y="1415" type="curve"/>
      <point x="1013" y="1386" type="line"/>
      <point x="1020" y="1378"/>
      <point x="1024" y="1371"/>
      <point x="1024" y="1363" type="curve" smooth="yes"/>
      <point x="1024" y="1347"/>
      <point x="1007" y="1330"/>
      <point x="988" y="1311" type="curve" smooth="yes"/>
      <point x="963" y="1286" type="line"/>
      <point x="1036" y="1203"/>
      <point x="1073" y="1095"/>
      <point x="1073" y="977" type="curve" smooth="yes"/>
      <point x="1073" y="862"/>
      <point x="1037" y="756"/>
      <point x="966" y="673" type="curve"/>
      <point x="988" y="651" type="line" smooth="yes"/>
      <point x="1007" y="632"/>
      <point x="1023" y="616"/>
      <point x="1023" y="599" type="curve" smooth="yes"/>
      <point x="1023" y="591"/>
      <point x="1019" y="582"/>
      <point x="1010" y="573" type="curve" smooth="yes"/>
      <point x="980" y="543" type="line" smooth="yes"/>
      <point x="972" y="536"/>
      <point x="965" y="532"/>
      <point x="958" y="532" type="curve" smooth="yes"/>
      <point x="940" y="532"/>
      <point x="924" y="548"/>
      <point x="905" y="568" type="curve" smooth="yes"/>
      <point x="877" y="596" type="line"/>
      <point x="798" y="545"/>
      <point x="719" y="515"/>
    </contour>
    <contour>
      <point x="596" y="616" type="curve" smooth="yes"/>
      <point x="858" y="616"/>
      <point x="956" y="809"/>
      <point x="956" y="976" type="curve" smooth="yes"/>
      <point x="956" y="1152"/>
      <point x="858" y="1339"/>
      <point x="596" y="1339" type="curve" smooth="yes"/>
      <point x="334" y="1339"/>
      <point x="236" y="1152"/>
      <point x="236" y="976" type="curve" smooth="yes"/>
      <point x="236" y="809"/>
      <point x="334" y="616"/>
    </contour>
  </outline>
</glyph>
<glyph name="yen" format="1">
  <advance width="732"/>
  <unicode hex="00A5"/>
  <outline>
    <contour>
      <point x="295" y="0" type="line" smooth="yes"/>
      <point x="280" y="0"/>
      <point x="270" y="8"/>
      <point x="270" y="51" type="curve" smooth="yes"/>
      <point x="270" y="329" type="line"/>
      <point x="118" y="329" type="line" smooth="yes"/>
      <point x="103" y="329"/>
      <point x="93" y="333"/>
      <point x="93" y="369" type="curve" smooth="yes"/>
      <point x="93" y="439" type="line" smooth="yes"/>
      <point x="93" y="475"/>
      <point x="103" y="480"/>
      <point x="118" y="480" type="curve" smooth="yes"/>
      <point x="260" y="480" type="line"/>
      <point x="247" y="570" type="line"/>
      <point x="118" y="570" type="line" smooth="yes"/>
      <point x="103" y="570"/>
      <point x="93" y="575"/>
      <point x="93" y="611" type="curve" smooth="yes"/>
      <point x="93" y="681" type="line" smooth="yes"/>
      <point x="93" y="717"/>
      <point x="103" y="721"/>
      <point x="118" y="721" type="curve" smooth="yes"/>
      <point x="212" y="721" type="line"/>
      <point x="39" y="1378" type="line" smooth="yes"/>
      <point x="35" y="1390"/>
      <point x="34" y="1398"/>
      <point x="34" y="1407" type="curve" smooth="yes"/>
      <point x="34" y="1424"/>
      <point x="40" y="1438"/>
      <point x="50" y="1438" type="curve" smooth="yes"/>
      <point x="185" y="1438" type="line" smooth="yes"/>
      <point x="201" y="1438"/>
      <point x="220" y="1420"/>
      <point x="227" y="1385" type="curve"/>
      <point x="374" y="751" type="line"/>
      <point x="388" y="751" type="line"/>
      <point x="532" y="1384" type="line" smooth="yes"/>
      <point x="539" y="1417"/>
      <point x="557" y="1438"/>
      <point x="572" y="1438" type="curve" smooth="yes"/>
      <point x="684" y="1438" type="line" smooth="yes"/>
      <point x="694" y="1438"/>
      <point x="700" y="1423"/>
      <point x="700" y="1406" type="curve" smooth="yes"/>
      <point x="700" y="1397"/>
      <point x="699" y="1389"/>
      <point x="696" y="1378" type="curve" smooth="yes"/>
      <point x="525" y="721" type="line"/>
      <point x="618" y="721" type="line" smooth="yes"/>
      <point x="632" y="721"/>
      <point x="642" y="717"/>
      <point x="642" y="681" type="curve" smooth="yes"/>
      <point x="642" y="611" type="line" smooth="yes"/>
      <point x="642" y="575"/>
      <point x="632" y="570"/>
      <point x="618" y="570" type="curve" smooth="yes"/>
      <point x="491" y="570" type="line"/>
      <point x="478" y="480" type="line"/>
      <point x="613" y="480" type="line" smooth="yes"/>
      <point x="627" y="480"/>
      <point x="637" y="475"/>
      <point x="637" y="439" type="curve" smooth="yes"/>
      <point x="637" y="369" type="line" smooth="yes"/>
      <point x="637" y="333"/>
      <point x="627" y="329"/>
      <point x="613" y="329" type="curve" smooth="yes"/>
      <point x="468" y="329" type="line"/>
      <point x="468" y="51" type="line" smooth="yes"/>
      <point x="468" y="8"/>
      <point x="457" y="0"/>
      <point x="443" y="0" type="curve" smooth="yes"/>
    </contour>
  </outline>
</glyph>
<glyph name="brokenbar" format="1">
  <advance width="388"/>
  <unicode hex="00A6"/>
  <outline>
    <contour>
      <point x="170" y="-123" type="line" smooth="yes"/>
      <point x="156" y="-123"/>
      <point x="145" y="-106"/>
      <point x="145" y="-63" type="curve" smooth="yes"/>
      <point x="145" y="506" type="line" smooth="yes"/>
      <point x="145" y="549"/>
      <point x="156" y="566"/>
      <point x="170" y="566" type="curve" smooth="yes"/>
      <point x="218" y="566" type="line" smooth="yes"/>
      <point x="233" y="566"/>
      <point x="243" y="549"/>
      <point x="243" y="506" type="curve" smooth="yes"/>
      <point x="243" y="-63" type="line" smooth="yes"/>
      <point x="243" y="-106"/>
      <point x="233" y="-123"/>
      <point x="218" y="-123" type="curve" smooth="yes"/>
    </contour>
    <contour>
      <point x="170" y="852" type="line" smooth="yes"/>
      <point x="155" y="852"/>
      <point x="144" y="869"/>
      <point x="144" y="912" type="curve" smooth="yes"/>
      <point x="144" y="1482" type="line" smooth="yes"/>
      <point x="144" y="1525"/>
      <point x="155" y="1542"/>
      <point x="170" y="1542" type="curve" smooth="yes"/>
      <point x="217" y="1542" type="line" smooth="yes"/>
      <point x="232" y="1542"/>
      <point x="243" y="1525"/>
      <point x="243" y="1482" type="curve" smooth="yes"/>
      <point x="243" y="912" type="line" smooth="yes"/>
      <point x="243" y="869"/>
      <point x="232" y="852"/>
      <point x="217" y="852" type="curve" smooth="yes"/>
    </contour>
  </outline>
</glyph>
